%TF.GenerationSoftware,KiCad,Pcbnew,5.1.6-c6e7f7d~87~ubuntu20.04.1*%
%TF.CreationDate,2020-08-29T22:12:38-04:00*%
%TF.ProjectId,Tube AMP GU17 Power Output Stage,54756265-2041-44d5-9020-475531372050,rev?*%
%TF.SameCoordinates,Original*%
%TF.FileFunction,Legend,Top*%
%TF.FilePolarity,Positive*%
%FSLAX46Y46*%
G04 Gerber Fmt 4.6, Leading zero omitted, Abs format (unit mm)*
G04 Created by KiCad (PCBNEW 5.1.6-c6e7f7d~87~ubuntu20.04.1) date 2020-08-29 22:12:38*
%MOMM*%
%LPD*%
G01*
G04 APERTURE LIST*
%ADD10C,0.127000*%
%ADD11C,0.120000*%
%ADD12C,0.015000*%
%ADD13C,0.150000*%
G04 APERTURE END LIST*
D10*
%TO.C,J17*%
X143460000Y-90460000D02*
X148540000Y-90460000D01*
X148540000Y-90460000D02*
X148540000Y-95540000D01*
X148540000Y-95540000D02*
X143460000Y-95540000D01*
X143460000Y-95540000D02*
X143460000Y-90460000D01*
D11*
%TO.C,RV2*%
X90075000Y-74470000D02*
X99845000Y-74470000D01*
X90075000Y-79540000D02*
X99845000Y-79540000D01*
X90075000Y-74470000D02*
X90075000Y-79540000D01*
X99845000Y-74470000D02*
X99845000Y-79540000D01*
%TO.C,RV1*%
X90115000Y-114470000D02*
X99885000Y-114470000D01*
X90115000Y-119540000D02*
X99885000Y-119540000D01*
X90115000Y-114470000D02*
X90115000Y-119540000D01*
X99885000Y-114470000D02*
X99885000Y-119540000D01*
%TO.C,D1*%
X97505000Y-99725000D02*
X97505000Y-94275000D01*
X97505000Y-94275000D02*
X87735000Y-94275000D01*
X87735000Y-94275000D02*
X87735000Y-99725000D01*
X87735000Y-99725000D02*
X97505000Y-99725000D01*
X98700000Y-97000000D02*
X97505000Y-97000000D01*
X86540000Y-97000000D02*
X87735000Y-97000000D01*
X95955500Y-99725000D02*
X95955500Y-94275000D01*
X95835500Y-99725000D02*
X95835500Y-94275000D01*
X96075500Y-99725000D02*
X96075500Y-94275000D01*
D10*
%TO.C,J16*%
X159460000Y-95540000D02*
X159460000Y-90460000D01*
X164540000Y-95540000D02*
X159460000Y-95540000D01*
X164540000Y-90460000D02*
X164540000Y-95540000D01*
X159460000Y-90460000D02*
X164540000Y-90460000D01*
%TO.C,J15*%
X114460000Y-79540000D02*
X114460000Y-74460000D01*
X119540000Y-79540000D02*
X114460000Y-79540000D01*
X119540000Y-74460000D02*
X119540000Y-79540000D01*
X114460000Y-74460000D02*
X119540000Y-74460000D01*
%TO.C,J14*%
X122460000Y-79540000D02*
X122460000Y-74460000D01*
X127540000Y-79540000D02*
X122460000Y-79540000D01*
X127540000Y-74460000D02*
X127540000Y-79540000D01*
X122460000Y-74460000D02*
X127540000Y-74460000D01*
%TO.C,J13*%
X106460000Y-79540000D02*
X106460000Y-74460000D01*
X111540000Y-79540000D02*
X106460000Y-79540000D01*
X111540000Y-74460000D02*
X111540000Y-79540000D01*
X106460000Y-74460000D02*
X111540000Y-74460000D01*
D11*
%TO.C,R7*%
X99120000Y-89000000D02*
X98350000Y-89000000D01*
X91040000Y-89000000D02*
X91810000Y-89000000D01*
X98350000Y-87630000D02*
X91810000Y-87630000D01*
X98350000Y-90370000D02*
X98350000Y-87630000D01*
X91810000Y-90370000D02*
X98350000Y-90370000D01*
X91810000Y-87630000D02*
X91810000Y-90370000D01*
%TO.C,R3*%
X91040000Y-105000000D02*
X91810000Y-105000000D01*
X99120000Y-105000000D02*
X98350000Y-105000000D01*
X91810000Y-106370000D02*
X98350000Y-106370000D01*
X91810000Y-103630000D02*
X91810000Y-106370000D01*
X98350000Y-103630000D02*
X91810000Y-103630000D01*
X98350000Y-106370000D02*
X98350000Y-103630000D01*
%TO.C,R2*%
X85880000Y-84000000D02*
X86650000Y-84000000D01*
X93960000Y-84000000D02*
X93190000Y-84000000D01*
X86650000Y-85370000D02*
X93190000Y-85370000D01*
X86650000Y-82630000D02*
X86650000Y-85370000D01*
X93190000Y-82630000D02*
X86650000Y-82630000D01*
X93190000Y-85370000D02*
X93190000Y-82630000D01*
%TO.C,R1*%
X85880000Y-110000000D02*
X86650000Y-110000000D01*
X93960000Y-110000000D02*
X93190000Y-110000000D01*
X86650000Y-111370000D02*
X93190000Y-111370000D01*
X86650000Y-108630000D02*
X86650000Y-111370000D01*
X93190000Y-108630000D02*
X86650000Y-108630000D01*
X93190000Y-111370000D02*
X93190000Y-108630000D01*
D10*
%TO.C,J12*%
X159460000Y-106460000D02*
X164540000Y-106460000D01*
X159460000Y-111540000D02*
X159460000Y-106460000D01*
X164540000Y-111540000D02*
X159460000Y-111540000D01*
X164540000Y-106460000D02*
X164540000Y-111540000D01*
%TO.C,J11*%
X159460000Y-98460000D02*
X164540000Y-98460000D01*
X159460000Y-103540000D02*
X159460000Y-98460000D01*
X164540000Y-103540000D02*
X159460000Y-103540000D01*
X164540000Y-98460000D02*
X164540000Y-103540000D01*
%TO.C,J10*%
X159460000Y-82460000D02*
X164540000Y-82460000D01*
X159460000Y-87540000D02*
X159460000Y-82460000D01*
X164540000Y-87540000D02*
X159460000Y-87540000D01*
X164540000Y-82460000D02*
X164540000Y-87540000D01*
%TO.C,J9*%
X151460000Y-86460000D02*
X156540000Y-86460000D01*
X151460000Y-91540000D02*
X151460000Y-86460000D01*
X156540000Y-91540000D02*
X151460000Y-91540000D01*
X156540000Y-86460000D02*
X156540000Y-91540000D01*
%TO.C,J8*%
X143460000Y-98460000D02*
X148540000Y-98460000D01*
X143460000Y-103540000D02*
X143460000Y-98460000D01*
X148540000Y-103540000D02*
X143460000Y-103540000D01*
X148540000Y-98460000D02*
X148540000Y-103540000D01*
%TO.C,J7*%
X151460000Y-94460000D02*
X156540000Y-94460000D01*
X151460000Y-99540000D02*
X151460000Y-94460000D01*
X156540000Y-99540000D02*
X151460000Y-99540000D01*
X156540000Y-94460000D02*
X156540000Y-99540000D01*
%TO.C,J6*%
X151460000Y-102460000D02*
X156540000Y-102460000D01*
X151460000Y-107540000D02*
X151460000Y-102460000D01*
X156540000Y-107540000D02*
X151460000Y-107540000D01*
X156540000Y-102460000D02*
X156540000Y-107540000D01*
%TO.C,J5*%
X78460000Y-114460000D02*
X83540000Y-114460000D01*
X78460000Y-119540000D02*
X78460000Y-114460000D01*
X83540000Y-119540000D02*
X78460000Y-119540000D01*
X83540000Y-114460000D02*
X83540000Y-119540000D01*
%TO.C,J4*%
X78460000Y-74460000D02*
X83540000Y-74460000D01*
X78460000Y-79540000D02*
X78460000Y-74460000D01*
X83540000Y-79540000D02*
X78460000Y-79540000D01*
X83540000Y-74460000D02*
X83540000Y-79540000D01*
D11*
%TO.C,R5*%
X137500000Y-113060000D02*
X137500000Y-110410000D01*
X137500000Y-95620000D02*
X137500000Y-98270000D01*
X139870000Y-110410000D02*
X139870000Y-98270000D01*
X135130000Y-110410000D02*
X139870000Y-110410000D01*
X135130000Y-98270000D02*
X135130000Y-110410000D01*
X139870000Y-98270000D02*
X135130000Y-98270000D01*
%TO.C,R4*%
X131000000Y-76440000D02*
X131000000Y-79090000D01*
X131000000Y-93880000D02*
X131000000Y-91230000D01*
X128630000Y-79090000D02*
X128630000Y-91230000D01*
X133370000Y-79090000D02*
X128630000Y-79090000D01*
X133370000Y-91230000D02*
X133370000Y-79090000D01*
X128630000Y-91230000D02*
X133370000Y-91230000D01*
D10*
%TO.C,J3*%
X69460000Y-102460000D02*
X74540000Y-102460000D01*
X69460000Y-107540000D02*
X69460000Y-102460000D01*
X74540000Y-107540000D02*
X69460000Y-107540000D01*
X74540000Y-102460000D02*
X74540000Y-107540000D01*
%TO.C,J2*%
X69460000Y-94460000D02*
X74540000Y-94460000D01*
X69460000Y-99540000D02*
X69460000Y-94460000D01*
X74540000Y-99540000D02*
X69460000Y-99540000D01*
X74540000Y-94460000D02*
X74540000Y-99540000D01*
%TO.C,J1*%
X69460000Y-86460000D02*
X74540000Y-86460000D01*
X69460000Y-91540000D02*
X69460000Y-86460000D01*
X74540000Y-91540000D02*
X69460000Y-91540000D01*
X74540000Y-86460000D02*
X74540000Y-91540000D01*
D11*
%TO.C,C5*%
X142307918Y-110300000D02*
X142307918Y-111550000D01*
X141682918Y-110925000D02*
X142932918Y-110925000D01*
X154861000Y-114183000D02*
X154861000Y-114817000D01*
X154821000Y-113743000D02*
X154821000Y-115257000D01*
X154781000Y-113472000D02*
X154781000Y-115528000D01*
X154741000Y-113259000D02*
X154741000Y-115741000D01*
X154701000Y-113078000D02*
X154701000Y-115922000D01*
X154661000Y-112917000D02*
X154661000Y-116083000D01*
X154621000Y-112772000D02*
X154621000Y-116228000D01*
X154581000Y-112639000D02*
X154581000Y-116361000D01*
X154541000Y-112516000D02*
X154541000Y-116484000D01*
X154501000Y-112400000D02*
X154501000Y-116600000D01*
X154461000Y-112291000D02*
X154461000Y-116709000D01*
X154421000Y-112188000D02*
X154421000Y-116812000D01*
X154381000Y-112090000D02*
X154381000Y-116910000D01*
X154341000Y-111996000D02*
X154341000Y-117004000D01*
X154301000Y-111906000D02*
X154301000Y-117094000D01*
X154261000Y-111819000D02*
X154261000Y-117181000D01*
X154221000Y-111736000D02*
X154221000Y-117264000D01*
X154181000Y-111656000D02*
X154181000Y-117344000D01*
X154141000Y-111579000D02*
X154141000Y-117421000D01*
X154101000Y-111504000D02*
X154101000Y-117496000D01*
X154061000Y-111431000D02*
X154061000Y-117569000D01*
X154021000Y-111360000D02*
X154021000Y-117640000D01*
X153981000Y-111292000D02*
X153981000Y-117708000D01*
X153941000Y-111225000D02*
X153941000Y-117775000D01*
X153901000Y-111161000D02*
X153901000Y-117839000D01*
X153861000Y-111098000D02*
X153861000Y-117902000D01*
X153821000Y-111036000D02*
X153821000Y-117964000D01*
X153781000Y-110976000D02*
X153781000Y-118024000D01*
X153741000Y-110917000D02*
X153741000Y-118083000D01*
X153701000Y-110860000D02*
X153701000Y-118140000D01*
X153661000Y-110804000D02*
X153661000Y-118196000D01*
X153621000Y-110750000D02*
X153621000Y-118250000D01*
X153581000Y-110696000D02*
X153581000Y-118304000D01*
X153541000Y-110644000D02*
X153541000Y-118356000D01*
X153501000Y-110593000D02*
X153501000Y-118407000D01*
X153461000Y-110543000D02*
X153461000Y-118457000D01*
X153421000Y-110493000D02*
X153421000Y-118507000D01*
X153381000Y-110445000D02*
X153381000Y-118555000D01*
X153341000Y-110398000D02*
X153341000Y-118602000D01*
X153301000Y-110352000D02*
X153301000Y-118648000D01*
X153261000Y-110306000D02*
X153261000Y-118694000D01*
X153221000Y-110262000D02*
X153221000Y-118738000D01*
X153181000Y-110218000D02*
X153181000Y-118782000D01*
X153141000Y-110175000D02*
X153141000Y-118825000D01*
X153101000Y-110133000D02*
X153101000Y-118867000D01*
X153061000Y-110092000D02*
X153061000Y-118908000D01*
X153021000Y-110051000D02*
X153021000Y-118949000D01*
X152981000Y-110011000D02*
X152981000Y-118989000D01*
X152941000Y-109972000D02*
X152941000Y-119028000D01*
X152901000Y-109933000D02*
X152901000Y-119067000D01*
X152861000Y-109895000D02*
X152861000Y-119105000D01*
X152821000Y-109858000D02*
X152821000Y-119142000D01*
X152781000Y-109822000D02*
X152781000Y-119178000D01*
X152741000Y-109786000D02*
X152741000Y-119214000D01*
X152701000Y-109750000D02*
X152701000Y-119250000D01*
X152661000Y-109715000D02*
X152661000Y-119285000D01*
X152621000Y-109681000D02*
X152621000Y-119319000D01*
X152581000Y-109648000D02*
X152581000Y-119352000D01*
X152541000Y-109615000D02*
X152541000Y-119385000D01*
X152501000Y-109582000D02*
X152501000Y-119418000D01*
X152461000Y-109550000D02*
X152461000Y-119450000D01*
X152421000Y-115940000D02*
X152421000Y-119482000D01*
X152421000Y-109518000D02*
X152421000Y-113060000D01*
X152381000Y-115940000D02*
X152381000Y-119512000D01*
X152381000Y-109488000D02*
X152381000Y-113060000D01*
X152341000Y-115940000D02*
X152341000Y-119543000D01*
X152341000Y-109457000D02*
X152341000Y-113060000D01*
X152301000Y-115940000D02*
X152301000Y-119573000D01*
X152301000Y-109427000D02*
X152301000Y-113060000D01*
X152261000Y-115940000D02*
X152261000Y-119602000D01*
X152261000Y-109398000D02*
X152261000Y-113060000D01*
X152221000Y-115940000D02*
X152221000Y-119631000D01*
X152221000Y-109369000D02*
X152221000Y-113060000D01*
X152181000Y-115940000D02*
X152181000Y-119660000D01*
X152181000Y-109340000D02*
X152181000Y-113060000D01*
X152141000Y-115940000D02*
X152141000Y-119688000D01*
X152141000Y-109312000D02*
X152141000Y-113060000D01*
X152101000Y-115940000D02*
X152101000Y-119716000D01*
X152101000Y-109284000D02*
X152101000Y-113060000D01*
X152061000Y-115940000D02*
X152061000Y-119743000D01*
X152061000Y-109257000D02*
X152061000Y-113060000D01*
X152021000Y-115940000D02*
X152021000Y-119770000D01*
X152021000Y-109230000D02*
X152021000Y-113060000D01*
X151981000Y-115940000D02*
X151981000Y-119796000D01*
X151981000Y-109204000D02*
X151981000Y-113060000D01*
X151941000Y-115940000D02*
X151941000Y-119822000D01*
X151941000Y-109178000D02*
X151941000Y-113060000D01*
X151901000Y-115940000D02*
X151901000Y-119847000D01*
X151901000Y-109153000D02*
X151901000Y-113060000D01*
X151861000Y-115940000D02*
X151861000Y-119872000D01*
X151861000Y-109128000D02*
X151861000Y-113060000D01*
X151821000Y-115940000D02*
X151821000Y-119897000D01*
X151821000Y-109103000D02*
X151821000Y-113060000D01*
X151781000Y-115940000D02*
X151781000Y-119921000D01*
X151781000Y-109079000D02*
X151781000Y-113060000D01*
X151741000Y-115940000D02*
X151741000Y-119945000D01*
X151741000Y-109055000D02*
X151741000Y-113060000D01*
X151701000Y-115940000D02*
X151701000Y-119968000D01*
X151701000Y-109032000D02*
X151701000Y-113060000D01*
X151661000Y-115940000D02*
X151661000Y-119991000D01*
X151661000Y-109009000D02*
X151661000Y-113060000D01*
X151621000Y-115940000D02*
X151621000Y-120014000D01*
X151621000Y-108986000D02*
X151621000Y-113060000D01*
X151581000Y-115940000D02*
X151581000Y-120036000D01*
X151581000Y-108964000D02*
X151581000Y-113060000D01*
X151541000Y-115940000D02*
X151541000Y-120058000D01*
X151541000Y-108942000D02*
X151541000Y-113060000D01*
X151501000Y-115940000D02*
X151501000Y-120080000D01*
X151501000Y-108920000D02*
X151501000Y-113060000D01*
X151461000Y-115940000D02*
X151461000Y-120101000D01*
X151461000Y-108899000D02*
X151461000Y-113060000D01*
X151421000Y-115940000D02*
X151421000Y-120122000D01*
X151421000Y-108878000D02*
X151421000Y-113060000D01*
X151381000Y-115940000D02*
X151381000Y-120142000D01*
X151381000Y-108858000D02*
X151381000Y-113060000D01*
X151341000Y-115940000D02*
X151341000Y-120162000D01*
X151341000Y-108838000D02*
X151341000Y-113060000D01*
X151301000Y-115940000D02*
X151301000Y-120182000D01*
X151301000Y-108818000D02*
X151301000Y-113060000D01*
X151261000Y-115940000D02*
X151261000Y-120202000D01*
X151261000Y-108798000D02*
X151261000Y-113060000D01*
X151221000Y-115940000D02*
X151221000Y-120221000D01*
X151221000Y-108779000D02*
X151221000Y-113060000D01*
X151181000Y-115940000D02*
X151181000Y-120239000D01*
X151181000Y-108761000D02*
X151181000Y-113060000D01*
X151141000Y-115940000D02*
X151141000Y-120258000D01*
X151141000Y-108742000D02*
X151141000Y-113060000D01*
X151101000Y-115940000D02*
X151101000Y-120276000D01*
X151101000Y-108724000D02*
X151101000Y-113060000D01*
X151061000Y-115940000D02*
X151061000Y-120293000D01*
X151061000Y-108707000D02*
X151061000Y-113060000D01*
X151021000Y-115940000D02*
X151021000Y-120311000D01*
X151021000Y-108689000D02*
X151021000Y-113060000D01*
X150981000Y-115940000D02*
X150981000Y-120328000D01*
X150981000Y-108672000D02*
X150981000Y-113060000D01*
X150941000Y-115940000D02*
X150941000Y-120345000D01*
X150941000Y-108655000D02*
X150941000Y-113060000D01*
X150901000Y-115940000D02*
X150901000Y-120361000D01*
X150901000Y-108639000D02*
X150901000Y-113060000D01*
X150861000Y-115940000D02*
X150861000Y-120377000D01*
X150861000Y-108623000D02*
X150861000Y-113060000D01*
X150821000Y-115940000D02*
X150821000Y-120393000D01*
X150821000Y-108607000D02*
X150821000Y-113060000D01*
X150781000Y-115940000D02*
X150781000Y-120408000D01*
X150781000Y-108592000D02*
X150781000Y-113060000D01*
X150741000Y-115940000D02*
X150741000Y-120424000D01*
X150741000Y-108576000D02*
X150741000Y-113060000D01*
X150701000Y-115940000D02*
X150701000Y-120439000D01*
X150701000Y-108561000D02*
X150701000Y-113060000D01*
X150661000Y-115940000D02*
X150661000Y-120453000D01*
X150661000Y-108547000D02*
X150661000Y-113060000D01*
X150621000Y-115940000D02*
X150621000Y-120467000D01*
X150621000Y-108533000D02*
X150621000Y-113060000D01*
X150581000Y-115940000D02*
X150581000Y-120481000D01*
X150581000Y-108519000D02*
X150581000Y-113060000D01*
X150541000Y-115940000D02*
X150541000Y-120495000D01*
X150541000Y-108505000D02*
X150541000Y-113060000D01*
X150501000Y-115940000D02*
X150501000Y-120508000D01*
X150501000Y-108492000D02*
X150501000Y-113060000D01*
X150461000Y-115940000D02*
X150461000Y-120521000D01*
X150461000Y-108479000D02*
X150461000Y-113060000D01*
X150421000Y-115940000D02*
X150421000Y-120534000D01*
X150421000Y-108466000D02*
X150421000Y-113060000D01*
X150381000Y-115940000D02*
X150381000Y-120547000D01*
X150381000Y-108453000D02*
X150381000Y-113060000D01*
X150341000Y-115940000D02*
X150341000Y-120559000D01*
X150341000Y-108441000D02*
X150341000Y-113060000D01*
X150301000Y-115940000D02*
X150301000Y-120571000D01*
X150301000Y-108429000D02*
X150301000Y-113060000D01*
X150261000Y-115940000D02*
X150261000Y-120583000D01*
X150261000Y-108417000D02*
X150261000Y-113060000D01*
X150221000Y-115940000D02*
X150221000Y-120594000D01*
X150221000Y-108406000D02*
X150221000Y-113060000D01*
X150181000Y-115940000D02*
X150181000Y-120605000D01*
X150181000Y-108395000D02*
X150181000Y-113060000D01*
X150141000Y-115940000D02*
X150141000Y-120616000D01*
X150141000Y-108384000D02*
X150141000Y-113060000D01*
X150101000Y-115940000D02*
X150101000Y-120626000D01*
X150101000Y-108374000D02*
X150101000Y-113060000D01*
X150061000Y-115940000D02*
X150061000Y-120637000D01*
X150061000Y-108363000D02*
X150061000Y-113060000D01*
X150021000Y-115940000D02*
X150021000Y-120646000D01*
X150021000Y-108354000D02*
X150021000Y-113060000D01*
X149981000Y-115940000D02*
X149981000Y-120656000D01*
X149981000Y-108344000D02*
X149981000Y-113060000D01*
X149941000Y-115940000D02*
X149941000Y-120666000D01*
X149941000Y-108334000D02*
X149941000Y-113060000D01*
X149901000Y-115940000D02*
X149901000Y-120675000D01*
X149901000Y-108325000D02*
X149901000Y-113060000D01*
X149861000Y-115940000D02*
X149861000Y-120684000D01*
X149861000Y-108316000D02*
X149861000Y-113060000D01*
X149821000Y-115940000D02*
X149821000Y-120692000D01*
X149821000Y-108308000D02*
X149821000Y-113060000D01*
X149781000Y-115940000D02*
X149781000Y-120701000D01*
X149781000Y-108299000D02*
X149781000Y-113060000D01*
X149741000Y-115940000D02*
X149741000Y-120709000D01*
X149741000Y-108291000D02*
X149741000Y-113060000D01*
X149701000Y-115940000D02*
X149701000Y-120716000D01*
X149701000Y-108284000D02*
X149701000Y-113060000D01*
X149661000Y-115940000D02*
X149661000Y-120724000D01*
X149661000Y-108276000D02*
X149661000Y-113060000D01*
X149621000Y-115940000D02*
X149621000Y-120731000D01*
X149621000Y-108269000D02*
X149621000Y-113060000D01*
X149581000Y-115940000D02*
X149581000Y-120738000D01*
X149581000Y-108262000D02*
X149581000Y-113060000D01*
X149541000Y-108255000D02*
X149541000Y-120745000D01*
X149501000Y-108248000D02*
X149501000Y-120752000D01*
X149461000Y-108242000D02*
X149461000Y-120758000D01*
X149421000Y-108236000D02*
X149421000Y-120764000D01*
X149381000Y-108231000D02*
X149381000Y-120769000D01*
X149341000Y-108225000D02*
X149341000Y-120775000D01*
X149301000Y-108220000D02*
X149301000Y-120780000D01*
X149261000Y-108215000D02*
X149261000Y-120785000D01*
X149221000Y-108210000D02*
X149221000Y-120790000D01*
X149180000Y-108206000D02*
X149180000Y-120794000D01*
X149140000Y-108202000D02*
X149140000Y-120798000D01*
X149100000Y-108198000D02*
X149100000Y-120802000D01*
X149060000Y-108194000D02*
X149060000Y-120806000D01*
X149020000Y-108191000D02*
X149020000Y-120809000D01*
X148980000Y-108188000D02*
X148980000Y-120812000D01*
X148940000Y-108185000D02*
X148940000Y-120815000D01*
X148900000Y-108182000D02*
X148900000Y-120818000D01*
X148860000Y-108180000D02*
X148860000Y-120820000D01*
X148820000Y-108178000D02*
X148820000Y-120822000D01*
X148780000Y-108176000D02*
X148780000Y-120824000D01*
X148740000Y-108174000D02*
X148740000Y-120826000D01*
X148700000Y-108173000D02*
X148700000Y-120827000D01*
X148660000Y-108172000D02*
X148660000Y-120828000D01*
X148620000Y-108171000D02*
X148620000Y-120829000D01*
X148580000Y-108170000D02*
X148580000Y-120830000D01*
X148540000Y-108170000D02*
X148540000Y-120830000D01*
X148500000Y-108170000D02*
X148500000Y-120830000D01*
X154870000Y-114500000D02*
G75*
G03*
X154870000Y-114500000I-6370000J0D01*
G01*
%TO.C,C4*%
X142307918Y-75300000D02*
X142307918Y-76550000D01*
X141682918Y-75925000D02*
X142932918Y-75925000D01*
X154861000Y-79183000D02*
X154861000Y-79817000D01*
X154821000Y-78743000D02*
X154821000Y-80257000D01*
X154781000Y-78472000D02*
X154781000Y-80528000D01*
X154741000Y-78259000D02*
X154741000Y-80741000D01*
X154701000Y-78078000D02*
X154701000Y-80922000D01*
X154661000Y-77917000D02*
X154661000Y-81083000D01*
X154621000Y-77772000D02*
X154621000Y-81228000D01*
X154581000Y-77639000D02*
X154581000Y-81361000D01*
X154541000Y-77516000D02*
X154541000Y-81484000D01*
X154501000Y-77400000D02*
X154501000Y-81600000D01*
X154461000Y-77291000D02*
X154461000Y-81709000D01*
X154421000Y-77188000D02*
X154421000Y-81812000D01*
X154381000Y-77090000D02*
X154381000Y-81910000D01*
X154341000Y-76996000D02*
X154341000Y-82004000D01*
X154301000Y-76906000D02*
X154301000Y-82094000D01*
X154261000Y-76819000D02*
X154261000Y-82181000D01*
X154221000Y-76736000D02*
X154221000Y-82264000D01*
X154181000Y-76656000D02*
X154181000Y-82344000D01*
X154141000Y-76579000D02*
X154141000Y-82421000D01*
X154101000Y-76504000D02*
X154101000Y-82496000D01*
X154061000Y-76431000D02*
X154061000Y-82569000D01*
X154021000Y-76360000D02*
X154021000Y-82640000D01*
X153981000Y-76292000D02*
X153981000Y-82708000D01*
X153941000Y-76225000D02*
X153941000Y-82775000D01*
X153901000Y-76161000D02*
X153901000Y-82839000D01*
X153861000Y-76098000D02*
X153861000Y-82902000D01*
X153821000Y-76036000D02*
X153821000Y-82964000D01*
X153781000Y-75976000D02*
X153781000Y-83024000D01*
X153741000Y-75917000D02*
X153741000Y-83083000D01*
X153701000Y-75860000D02*
X153701000Y-83140000D01*
X153661000Y-75804000D02*
X153661000Y-83196000D01*
X153621000Y-75750000D02*
X153621000Y-83250000D01*
X153581000Y-75696000D02*
X153581000Y-83304000D01*
X153541000Y-75644000D02*
X153541000Y-83356000D01*
X153501000Y-75593000D02*
X153501000Y-83407000D01*
X153461000Y-75543000D02*
X153461000Y-83457000D01*
X153421000Y-75493000D02*
X153421000Y-83507000D01*
X153381000Y-75445000D02*
X153381000Y-83555000D01*
X153341000Y-75398000D02*
X153341000Y-83602000D01*
X153301000Y-75352000D02*
X153301000Y-83648000D01*
X153261000Y-75306000D02*
X153261000Y-83694000D01*
X153221000Y-75262000D02*
X153221000Y-83738000D01*
X153181000Y-75218000D02*
X153181000Y-83782000D01*
X153141000Y-75175000D02*
X153141000Y-83825000D01*
X153101000Y-75133000D02*
X153101000Y-83867000D01*
X153061000Y-75092000D02*
X153061000Y-83908000D01*
X153021000Y-75051000D02*
X153021000Y-83949000D01*
X152981000Y-75011000D02*
X152981000Y-83989000D01*
X152941000Y-74972000D02*
X152941000Y-84028000D01*
X152901000Y-74933000D02*
X152901000Y-84067000D01*
X152861000Y-74895000D02*
X152861000Y-84105000D01*
X152821000Y-74858000D02*
X152821000Y-84142000D01*
X152781000Y-74822000D02*
X152781000Y-84178000D01*
X152741000Y-74786000D02*
X152741000Y-84214000D01*
X152701000Y-74750000D02*
X152701000Y-84250000D01*
X152661000Y-74715000D02*
X152661000Y-84285000D01*
X152621000Y-74681000D02*
X152621000Y-84319000D01*
X152581000Y-74648000D02*
X152581000Y-84352000D01*
X152541000Y-74615000D02*
X152541000Y-84385000D01*
X152501000Y-74582000D02*
X152501000Y-84418000D01*
X152461000Y-74550000D02*
X152461000Y-84450000D01*
X152421000Y-80940000D02*
X152421000Y-84482000D01*
X152421000Y-74518000D02*
X152421000Y-78060000D01*
X152381000Y-80940000D02*
X152381000Y-84512000D01*
X152381000Y-74488000D02*
X152381000Y-78060000D01*
X152341000Y-80940000D02*
X152341000Y-84543000D01*
X152341000Y-74457000D02*
X152341000Y-78060000D01*
X152301000Y-80940000D02*
X152301000Y-84573000D01*
X152301000Y-74427000D02*
X152301000Y-78060000D01*
X152261000Y-80940000D02*
X152261000Y-84602000D01*
X152261000Y-74398000D02*
X152261000Y-78060000D01*
X152221000Y-80940000D02*
X152221000Y-84631000D01*
X152221000Y-74369000D02*
X152221000Y-78060000D01*
X152181000Y-80940000D02*
X152181000Y-84660000D01*
X152181000Y-74340000D02*
X152181000Y-78060000D01*
X152141000Y-80940000D02*
X152141000Y-84688000D01*
X152141000Y-74312000D02*
X152141000Y-78060000D01*
X152101000Y-80940000D02*
X152101000Y-84716000D01*
X152101000Y-74284000D02*
X152101000Y-78060000D01*
X152061000Y-80940000D02*
X152061000Y-84743000D01*
X152061000Y-74257000D02*
X152061000Y-78060000D01*
X152021000Y-80940000D02*
X152021000Y-84770000D01*
X152021000Y-74230000D02*
X152021000Y-78060000D01*
X151981000Y-80940000D02*
X151981000Y-84796000D01*
X151981000Y-74204000D02*
X151981000Y-78060000D01*
X151941000Y-80940000D02*
X151941000Y-84822000D01*
X151941000Y-74178000D02*
X151941000Y-78060000D01*
X151901000Y-80940000D02*
X151901000Y-84847000D01*
X151901000Y-74153000D02*
X151901000Y-78060000D01*
X151861000Y-80940000D02*
X151861000Y-84872000D01*
X151861000Y-74128000D02*
X151861000Y-78060000D01*
X151821000Y-80940000D02*
X151821000Y-84897000D01*
X151821000Y-74103000D02*
X151821000Y-78060000D01*
X151781000Y-80940000D02*
X151781000Y-84921000D01*
X151781000Y-74079000D02*
X151781000Y-78060000D01*
X151741000Y-80940000D02*
X151741000Y-84945000D01*
X151741000Y-74055000D02*
X151741000Y-78060000D01*
X151701000Y-80940000D02*
X151701000Y-84968000D01*
X151701000Y-74032000D02*
X151701000Y-78060000D01*
X151661000Y-80940000D02*
X151661000Y-84991000D01*
X151661000Y-74009000D02*
X151661000Y-78060000D01*
X151621000Y-80940000D02*
X151621000Y-85014000D01*
X151621000Y-73986000D02*
X151621000Y-78060000D01*
X151581000Y-80940000D02*
X151581000Y-85036000D01*
X151581000Y-73964000D02*
X151581000Y-78060000D01*
X151541000Y-80940000D02*
X151541000Y-85058000D01*
X151541000Y-73942000D02*
X151541000Y-78060000D01*
X151501000Y-80940000D02*
X151501000Y-85080000D01*
X151501000Y-73920000D02*
X151501000Y-78060000D01*
X151461000Y-80940000D02*
X151461000Y-85101000D01*
X151461000Y-73899000D02*
X151461000Y-78060000D01*
X151421000Y-80940000D02*
X151421000Y-85122000D01*
X151421000Y-73878000D02*
X151421000Y-78060000D01*
X151381000Y-80940000D02*
X151381000Y-85142000D01*
X151381000Y-73858000D02*
X151381000Y-78060000D01*
X151341000Y-80940000D02*
X151341000Y-85162000D01*
X151341000Y-73838000D02*
X151341000Y-78060000D01*
X151301000Y-80940000D02*
X151301000Y-85182000D01*
X151301000Y-73818000D02*
X151301000Y-78060000D01*
X151261000Y-80940000D02*
X151261000Y-85202000D01*
X151261000Y-73798000D02*
X151261000Y-78060000D01*
X151221000Y-80940000D02*
X151221000Y-85221000D01*
X151221000Y-73779000D02*
X151221000Y-78060000D01*
X151181000Y-80940000D02*
X151181000Y-85239000D01*
X151181000Y-73761000D02*
X151181000Y-78060000D01*
X151141000Y-80940000D02*
X151141000Y-85258000D01*
X151141000Y-73742000D02*
X151141000Y-78060000D01*
X151101000Y-80940000D02*
X151101000Y-85276000D01*
X151101000Y-73724000D02*
X151101000Y-78060000D01*
X151061000Y-80940000D02*
X151061000Y-85293000D01*
X151061000Y-73707000D02*
X151061000Y-78060000D01*
X151021000Y-80940000D02*
X151021000Y-85311000D01*
X151021000Y-73689000D02*
X151021000Y-78060000D01*
X150981000Y-80940000D02*
X150981000Y-85328000D01*
X150981000Y-73672000D02*
X150981000Y-78060000D01*
X150941000Y-80940000D02*
X150941000Y-85345000D01*
X150941000Y-73655000D02*
X150941000Y-78060000D01*
X150901000Y-80940000D02*
X150901000Y-85361000D01*
X150901000Y-73639000D02*
X150901000Y-78060000D01*
X150861000Y-80940000D02*
X150861000Y-85377000D01*
X150861000Y-73623000D02*
X150861000Y-78060000D01*
X150821000Y-80940000D02*
X150821000Y-85393000D01*
X150821000Y-73607000D02*
X150821000Y-78060000D01*
X150781000Y-80940000D02*
X150781000Y-85408000D01*
X150781000Y-73592000D02*
X150781000Y-78060000D01*
X150741000Y-80940000D02*
X150741000Y-85424000D01*
X150741000Y-73576000D02*
X150741000Y-78060000D01*
X150701000Y-80940000D02*
X150701000Y-85439000D01*
X150701000Y-73561000D02*
X150701000Y-78060000D01*
X150661000Y-80940000D02*
X150661000Y-85453000D01*
X150661000Y-73547000D02*
X150661000Y-78060000D01*
X150621000Y-80940000D02*
X150621000Y-85467000D01*
X150621000Y-73533000D02*
X150621000Y-78060000D01*
X150581000Y-80940000D02*
X150581000Y-85481000D01*
X150581000Y-73519000D02*
X150581000Y-78060000D01*
X150541000Y-80940000D02*
X150541000Y-85495000D01*
X150541000Y-73505000D02*
X150541000Y-78060000D01*
X150501000Y-80940000D02*
X150501000Y-85508000D01*
X150501000Y-73492000D02*
X150501000Y-78060000D01*
X150461000Y-80940000D02*
X150461000Y-85521000D01*
X150461000Y-73479000D02*
X150461000Y-78060000D01*
X150421000Y-80940000D02*
X150421000Y-85534000D01*
X150421000Y-73466000D02*
X150421000Y-78060000D01*
X150381000Y-80940000D02*
X150381000Y-85547000D01*
X150381000Y-73453000D02*
X150381000Y-78060000D01*
X150341000Y-80940000D02*
X150341000Y-85559000D01*
X150341000Y-73441000D02*
X150341000Y-78060000D01*
X150301000Y-80940000D02*
X150301000Y-85571000D01*
X150301000Y-73429000D02*
X150301000Y-78060000D01*
X150261000Y-80940000D02*
X150261000Y-85583000D01*
X150261000Y-73417000D02*
X150261000Y-78060000D01*
X150221000Y-80940000D02*
X150221000Y-85594000D01*
X150221000Y-73406000D02*
X150221000Y-78060000D01*
X150181000Y-80940000D02*
X150181000Y-85605000D01*
X150181000Y-73395000D02*
X150181000Y-78060000D01*
X150141000Y-80940000D02*
X150141000Y-85616000D01*
X150141000Y-73384000D02*
X150141000Y-78060000D01*
X150101000Y-80940000D02*
X150101000Y-85626000D01*
X150101000Y-73374000D02*
X150101000Y-78060000D01*
X150061000Y-80940000D02*
X150061000Y-85637000D01*
X150061000Y-73363000D02*
X150061000Y-78060000D01*
X150021000Y-80940000D02*
X150021000Y-85646000D01*
X150021000Y-73354000D02*
X150021000Y-78060000D01*
X149981000Y-80940000D02*
X149981000Y-85656000D01*
X149981000Y-73344000D02*
X149981000Y-78060000D01*
X149941000Y-80940000D02*
X149941000Y-85666000D01*
X149941000Y-73334000D02*
X149941000Y-78060000D01*
X149901000Y-80940000D02*
X149901000Y-85675000D01*
X149901000Y-73325000D02*
X149901000Y-78060000D01*
X149861000Y-80940000D02*
X149861000Y-85684000D01*
X149861000Y-73316000D02*
X149861000Y-78060000D01*
X149821000Y-80940000D02*
X149821000Y-85692000D01*
X149821000Y-73308000D02*
X149821000Y-78060000D01*
X149781000Y-80940000D02*
X149781000Y-85701000D01*
X149781000Y-73299000D02*
X149781000Y-78060000D01*
X149741000Y-80940000D02*
X149741000Y-85709000D01*
X149741000Y-73291000D02*
X149741000Y-78060000D01*
X149701000Y-80940000D02*
X149701000Y-85716000D01*
X149701000Y-73284000D02*
X149701000Y-78060000D01*
X149661000Y-80940000D02*
X149661000Y-85724000D01*
X149661000Y-73276000D02*
X149661000Y-78060000D01*
X149621000Y-80940000D02*
X149621000Y-85731000D01*
X149621000Y-73269000D02*
X149621000Y-78060000D01*
X149581000Y-80940000D02*
X149581000Y-85738000D01*
X149581000Y-73262000D02*
X149581000Y-78060000D01*
X149541000Y-73255000D02*
X149541000Y-85745000D01*
X149501000Y-73248000D02*
X149501000Y-85752000D01*
X149461000Y-73242000D02*
X149461000Y-85758000D01*
X149421000Y-73236000D02*
X149421000Y-85764000D01*
X149381000Y-73231000D02*
X149381000Y-85769000D01*
X149341000Y-73225000D02*
X149341000Y-85775000D01*
X149301000Y-73220000D02*
X149301000Y-85780000D01*
X149261000Y-73215000D02*
X149261000Y-85785000D01*
X149221000Y-73210000D02*
X149221000Y-85790000D01*
X149180000Y-73206000D02*
X149180000Y-85794000D01*
X149140000Y-73202000D02*
X149140000Y-85798000D01*
X149100000Y-73198000D02*
X149100000Y-85802000D01*
X149060000Y-73194000D02*
X149060000Y-85806000D01*
X149020000Y-73191000D02*
X149020000Y-85809000D01*
X148980000Y-73188000D02*
X148980000Y-85812000D01*
X148940000Y-73185000D02*
X148940000Y-85815000D01*
X148900000Y-73182000D02*
X148900000Y-85818000D01*
X148860000Y-73180000D02*
X148860000Y-85820000D01*
X148820000Y-73178000D02*
X148820000Y-85822000D01*
X148780000Y-73176000D02*
X148780000Y-85824000D01*
X148740000Y-73174000D02*
X148740000Y-85826000D01*
X148700000Y-73173000D02*
X148700000Y-85827000D01*
X148660000Y-73172000D02*
X148660000Y-85828000D01*
X148620000Y-73171000D02*
X148620000Y-85829000D01*
X148580000Y-73170000D02*
X148580000Y-85830000D01*
X148540000Y-73170000D02*
X148540000Y-85830000D01*
X148500000Y-73170000D02*
X148500000Y-85830000D01*
X154870000Y-79500000D02*
G75*
G03*
X154870000Y-79500000I-6370000J0D01*
G01*
%TO.C,C2*%
X84220000Y-87630000D02*
X84220000Y-90370000D01*
X76780000Y-87630000D02*
X76780000Y-90370000D01*
X76780000Y-90370000D02*
X84220000Y-90370000D01*
X76780000Y-87630000D02*
X84220000Y-87630000D01*
%TO.C,C1*%
X84220000Y-103630000D02*
X84220000Y-106370000D01*
X76780000Y-103630000D02*
X76780000Y-106370000D01*
X76780000Y-106370000D02*
X84220000Y-106370000D01*
X76780000Y-103630000D02*
X84220000Y-103630000D01*
%TO.C,J17*%
D12*
X145501461Y-87531976D02*
X145501461Y-88532409D01*
X145434765Y-88732495D01*
X145301374Y-88865886D01*
X145101287Y-88932582D01*
X144967896Y-88932582D01*
X146902067Y-88932582D02*
X146101720Y-88932582D01*
X146501893Y-88932582D02*
X146501893Y-87531976D01*
X146368502Y-87732063D01*
X146235111Y-87865454D01*
X146101720Y-87932149D01*
X147368935Y-87531976D02*
X148302673Y-87531976D01*
X147702413Y-88932582D01*
D13*
X142350182Y-96139060D02*
X142350182Y-95070444D01*
X142884490Y-95604752D02*
X141815874Y-95604752D01*
X141615509Y-94469347D02*
X141548720Y-94402559D01*
X141481931Y-94268981D01*
X141481931Y-93935039D01*
X141548720Y-93801462D01*
X141615509Y-93734673D01*
X141749086Y-93667885D01*
X141882663Y-93667885D01*
X142083028Y-93734673D01*
X142884490Y-94536136D01*
X142884490Y-93667885D01*
X141481931Y-92799634D02*
X141481931Y-92666057D01*
X141548720Y-92532480D01*
X141615509Y-92465691D01*
X141749086Y-92398903D01*
X142016240Y-92332114D01*
X142350182Y-92332114D01*
X142617336Y-92398903D01*
X142750913Y-92465691D01*
X142817702Y-92532480D01*
X142884490Y-92666057D01*
X142884490Y-92799634D01*
X142817702Y-92933211D01*
X142750913Y-93000000D01*
X142617336Y-93066788D01*
X142350182Y-93133577D01*
X142016240Y-93133577D01*
X141749086Y-93066788D01*
X141615509Y-93000000D01*
X141548720Y-92933211D01*
X141481931Y-92799634D01*
X141481931Y-91463863D02*
X141481931Y-91330286D01*
X141548720Y-91196709D01*
X141615509Y-91129921D01*
X141749086Y-91063132D01*
X142016240Y-90996344D01*
X142350182Y-90996344D01*
X142617336Y-91063132D01*
X142750913Y-91129921D01*
X142817702Y-91196709D01*
X142884490Y-91330286D01*
X142884490Y-91463863D01*
X142817702Y-91597441D01*
X142750913Y-91664229D01*
X142617336Y-91731018D01*
X142350182Y-91797806D01*
X142016240Y-91797806D01*
X141749086Y-91731018D01*
X141615509Y-91664229D01*
X141548720Y-91597441D01*
X141481931Y-91463863D01*
X141481931Y-90595613D02*
X142884490Y-90128093D01*
X141481931Y-89660573D01*
%TO.C,RV2*%
X94364761Y-73792380D02*
X94031428Y-73316190D01*
X93793333Y-73792380D02*
X93793333Y-72792380D01*
X94174285Y-72792380D01*
X94269523Y-72840000D01*
X94317142Y-72887619D01*
X94364761Y-72982857D01*
X94364761Y-73125714D01*
X94317142Y-73220952D01*
X94269523Y-73268571D01*
X94174285Y-73316190D01*
X93793333Y-73316190D01*
X94650476Y-72792380D02*
X94983809Y-73792380D01*
X95317142Y-72792380D01*
X95602857Y-72887619D02*
X95650476Y-72840000D01*
X95745714Y-72792380D01*
X95983809Y-72792380D01*
X96079047Y-72840000D01*
X96126666Y-72887619D01*
X96174285Y-72982857D01*
X96174285Y-73078095D01*
X96126666Y-73220952D01*
X95555238Y-73792380D01*
X96174285Y-73792380D01*
%TO.C,RV1*%
X94404761Y-113792380D02*
X94071428Y-113316190D01*
X93833333Y-113792380D02*
X93833333Y-112792380D01*
X94214285Y-112792380D01*
X94309523Y-112840000D01*
X94357142Y-112887619D01*
X94404761Y-112982857D01*
X94404761Y-113125714D01*
X94357142Y-113220952D01*
X94309523Y-113268571D01*
X94214285Y-113316190D01*
X93833333Y-113316190D01*
X94690476Y-112792380D02*
X95023809Y-113792380D01*
X95357142Y-112792380D01*
X96214285Y-113792380D02*
X95642857Y-113792380D01*
X95928571Y-113792380D02*
X95928571Y-112792380D01*
X95833333Y-112935238D01*
X95738095Y-113030476D01*
X95642857Y-113078095D01*
%TO.C,D1*%
X91881904Y-101177380D02*
X91881904Y-100177380D01*
X92120000Y-100177380D01*
X92262857Y-100225000D01*
X92358095Y-100320238D01*
X92405714Y-100415476D01*
X92453333Y-100605952D01*
X92453333Y-100748809D01*
X92405714Y-100939285D01*
X92358095Y-101034523D01*
X92262857Y-101129761D01*
X92120000Y-101177380D01*
X91881904Y-101177380D01*
X93405714Y-101177380D02*
X92834285Y-101177380D01*
X93120000Y-101177380D02*
X93120000Y-100177380D01*
X93024761Y-100320238D01*
X92929523Y-100415476D01*
X92834285Y-100463095D01*
X99978095Y-99752380D02*
X99978095Y-98752380D01*
X100549523Y-99752380D02*
X100120952Y-99180952D01*
X100549523Y-98752380D02*
X99978095Y-99323809D01*
%TO.C,J16*%
D12*
X161501461Y-87531976D02*
X161501461Y-88532409D01*
X161434765Y-88732495D01*
X161301374Y-88865886D01*
X161101287Y-88932582D01*
X160967896Y-88932582D01*
X162902067Y-88932582D02*
X162101720Y-88932582D01*
X162501893Y-88932582D02*
X162501893Y-87531976D01*
X162368502Y-87732063D01*
X162235111Y-87865454D01*
X162101720Y-87932149D01*
X164102586Y-87531976D02*
X163835804Y-87531976D01*
X163702413Y-87598672D01*
X163635717Y-87665367D01*
X163502326Y-87865454D01*
X163435631Y-88132236D01*
X163435631Y-88665800D01*
X163502326Y-88799191D01*
X163569022Y-88865886D01*
X163702413Y-88932582D01*
X163969195Y-88932582D01*
X164102586Y-88865886D01*
X164169282Y-88799191D01*
X164235977Y-88665800D01*
X164235977Y-88332322D01*
X164169282Y-88198931D01*
X164102586Y-88132236D01*
X163969195Y-88065540D01*
X163702413Y-88065540D01*
X163569022Y-88132236D01*
X163502326Y-88198931D01*
X163435631Y-88332322D01*
D13*
X158149817Y-93768068D02*
X158216605Y-93567702D01*
X158283394Y-93500913D01*
X158416971Y-93434125D01*
X158617336Y-93434125D01*
X158750913Y-93500913D01*
X158817702Y-93567702D01*
X158884490Y-93701279D01*
X158884490Y-94235587D01*
X157481931Y-94235587D01*
X157481931Y-93768068D01*
X157548720Y-93634490D01*
X157615509Y-93567702D01*
X157749086Y-93500913D01*
X157882663Y-93500913D01*
X158016240Y-93567702D01*
X158083028Y-93634490D01*
X158149817Y-93768068D01*
X158149817Y-94235587D01*
X158350182Y-92833028D02*
X158350182Y-91764412D01*
X158884490Y-92298720D02*
X157815874Y-92298720D01*
%TO.C,J15*%
D12*
X115866176Y-76233001D02*
X115866176Y-77233434D01*
X115799480Y-77433520D01*
X115666089Y-77566911D01*
X115466002Y-77633607D01*
X115332611Y-77633607D01*
X117266782Y-77633607D02*
X116466435Y-77633607D01*
X116866608Y-77633607D02*
X116866608Y-76233001D01*
X116733217Y-76433088D01*
X116599826Y-76566479D01*
X116466435Y-76633174D01*
X118533997Y-76233001D02*
X117867041Y-76233001D01*
X117800346Y-76899956D01*
X117867041Y-76833261D01*
X118000432Y-76766565D01*
X118333910Y-76766565D01*
X118467301Y-76833261D01*
X118533997Y-76899956D01*
X118600692Y-77033347D01*
X118600692Y-77366825D01*
X118533997Y-77500216D01*
X118467301Y-77566911D01*
X118333910Y-77633607D01*
X118000432Y-77633607D01*
X117867041Y-77566911D01*
X117800346Y-77500216D01*
D13*
X117200365Y-73399817D02*
X116732845Y-73399817D01*
X116732845Y-74134490D02*
X116732845Y-72731931D01*
X117400731Y-72731931D01*
%TO.C,J14*%
D12*
X124116176Y-76233001D02*
X124116176Y-77233434D01*
X124049480Y-77433520D01*
X123916089Y-77566911D01*
X123716002Y-77633607D01*
X123582611Y-77633607D01*
X125516782Y-77633607D02*
X124716435Y-77633607D01*
X125116608Y-77633607D02*
X125116608Y-76233001D01*
X124983217Y-76433088D01*
X124849826Y-76566479D01*
X124716435Y-76633174D01*
X126717301Y-76699870D02*
X126717301Y-77633607D01*
X126383823Y-76166305D02*
X126050346Y-77166738D01*
X126917388Y-77166738D01*
D13*
X124465691Y-73399817D02*
X123998172Y-73399817D01*
X123998172Y-74134490D02*
X123998172Y-72731931D01*
X124666057Y-72731931D01*
X125200365Y-74134490D02*
X125200365Y-72731931D01*
X125200365Y-73399817D02*
X126001827Y-73399817D01*
X126001827Y-74134490D02*
X126001827Y-72731931D01*
%TO.C,J13*%
D12*
X107866176Y-75983001D02*
X107866176Y-76983434D01*
X107799480Y-77183520D01*
X107666089Y-77316911D01*
X107466002Y-77383607D01*
X107332611Y-77383607D01*
X109266782Y-77383607D02*
X108466435Y-77383607D01*
X108866608Y-77383607D02*
X108866608Y-75983001D01*
X108733217Y-76183088D01*
X108599826Y-76316479D01*
X108466435Y-76383174D01*
X109733650Y-75983001D02*
X110600692Y-75983001D01*
X110133823Y-76516565D01*
X110333910Y-76516565D01*
X110467301Y-76583261D01*
X110533997Y-76649956D01*
X110600692Y-76783347D01*
X110600692Y-77116825D01*
X110533997Y-77250216D01*
X110467301Y-77316911D01*
X110333910Y-77383607D01*
X109933737Y-77383607D01*
X109800346Y-77316911D01*
X109733650Y-77250216D01*
D13*
X109200365Y-73399817D02*
X108732845Y-73399817D01*
X108732845Y-74134490D02*
X108732845Y-72731931D01*
X109400731Y-72731931D01*
%TO.C,H4*%
X71238095Y-113252380D02*
X71238095Y-112252380D01*
X71238095Y-112728571D02*
X71809523Y-112728571D01*
X71809523Y-113252380D02*
X71809523Y-112252380D01*
X72714285Y-112585714D02*
X72714285Y-113252380D01*
X72476190Y-112204761D02*
X72238095Y-112919047D01*
X72857142Y-112919047D01*
%TO.C,H3*%
X161238095Y-113252380D02*
X161238095Y-112252380D01*
X161238095Y-112728571D02*
X161809523Y-112728571D01*
X161809523Y-113252380D02*
X161809523Y-112252380D01*
X162190476Y-112252380D02*
X162809523Y-112252380D01*
X162476190Y-112633333D01*
X162619047Y-112633333D01*
X162714285Y-112680952D01*
X162761904Y-112728571D01*
X162809523Y-112823809D01*
X162809523Y-113061904D01*
X162761904Y-113157142D01*
X162714285Y-113204761D01*
X162619047Y-113252380D01*
X162333333Y-113252380D01*
X162238095Y-113204761D01*
X162190476Y-113157142D01*
%TO.C,H2*%
X161238095Y-73252380D02*
X161238095Y-72252380D01*
X161238095Y-72728571D02*
X161809523Y-72728571D01*
X161809523Y-73252380D02*
X161809523Y-72252380D01*
X162238095Y-72347619D02*
X162285714Y-72300000D01*
X162380952Y-72252380D01*
X162619047Y-72252380D01*
X162714285Y-72300000D01*
X162761904Y-72347619D01*
X162809523Y-72442857D01*
X162809523Y-72538095D01*
X162761904Y-72680952D01*
X162190476Y-73252380D01*
X162809523Y-73252380D01*
%TO.C,H1*%
X71238095Y-73252380D02*
X71238095Y-72252380D01*
X71238095Y-72728571D02*
X71809523Y-72728571D01*
X71809523Y-73252380D02*
X71809523Y-72252380D01*
X72809523Y-73252380D02*
X72238095Y-73252380D01*
X72523809Y-73252380D02*
X72523809Y-72252380D01*
X72428571Y-72395238D01*
X72333333Y-72490476D01*
X72238095Y-72538095D01*
%TO.C,R7*%
X94913333Y-87082380D02*
X94580000Y-86606190D01*
X94341904Y-87082380D02*
X94341904Y-86082380D01*
X94722857Y-86082380D01*
X94818095Y-86130000D01*
X94865714Y-86177619D01*
X94913333Y-86272857D01*
X94913333Y-86415714D01*
X94865714Y-86510952D01*
X94818095Y-86558571D01*
X94722857Y-86606190D01*
X94341904Y-86606190D01*
X95246666Y-86082380D02*
X95913333Y-86082380D01*
X95484761Y-87082380D01*
%TO.C,R3*%
X94913333Y-107822380D02*
X94580000Y-107346190D01*
X94341904Y-107822380D02*
X94341904Y-106822380D01*
X94722857Y-106822380D01*
X94818095Y-106870000D01*
X94865714Y-106917619D01*
X94913333Y-107012857D01*
X94913333Y-107155714D01*
X94865714Y-107250952D01*
X94818095Y-107298571D01*
X94722857Y-107346190D01*
X94341904Y-107346190D01*
X95246666Y-106822380D02*
X95865714Y-106822380D01*
X95532380Y-107203333D01*
X95675238Y-107203333D01*
X95770476Y-107250952D01*
X95818095Y-107298571D01*
X95865714Y-107393809D01*
X95865714Y-107631904D01*
X95818095Y-107727142D01*
X95770476Y-107774761D01*
X95675238Y-107822380D01*
X95389523Y-107822380D01*
X95294285Y-107774761D01*
X95246666Y-107727142D01*
%TO.C,R2*%
X89753333Y-86822380D02*
X89420000Y-86346190D01*
X89181904Y-86822380D02*
X89181904Y-85822380D01*
X89562857Y-85822380D01*
X89658095Y-85870000D01*
X89705714Y-85917619D01*
X89753333Y-86012857D01*
X89753333Y-86155714D01*
X89705714Y-86250952D01*
X89658095Y-86298571D01*
X89562857Y-86346190D01*
X89181904Y-86346190D01*
X90134285Y-85917619D02*
X90181904Y-85870000D01*
X90277142Y-85822380D01*
X90515238Y-85822380D01*
X90610476Y-85870000D01*
X90658095Y-85917619D01*
X90705714Y-86012857D01*
X90705714Y-86108095D01*
X90658095Y-86250952D01*
X90086666Y-86822380D01*
X90705714Y-86822380D01*
%TO.C,R1*%
X89753333Y-112822380D02*
X89420000Y-112346190D01*
X89181904Y-112822380D02*
X89181904Y-111822380D01*
X89562857Y-111822380D01*
X89658095Y-111870000D01*
X89705714Y-111917619D01*
X89753333Y-112012857D01*
X89753333Y-112155714D01*
X89705714Y-112250952D01*
X89658095Y-112298571D01*
X89562857Y-112346190D01*
X89181904Y-112346190D01*
X90705714Y-112822380D02*
X90134285Y-112822380D01*
X90420000Y-112822380D02*
X90420000Y-111822380D01*
X90324761Y-111965238D01*
X90229523Y-112060476D01*
X90134285Y-112108095D01*
%TO.C,J12*%
D12*
X165934026Y-110769108D02*
X166934459Y-110769108D01*
X167134545Y-110835804D01*
X167267936Y-110969195D01*
X167334632Y-111169282D01*
X167334632Y-111302673D01*
X167334632Y-109368502D02*
X167334632Y-110168849D01*
X167334632Y-109768676D02*
X165934026Y-109768676D01*
X166134113Y-109902067D01*
X166267504Y-110035458D01*
X166334199Y-110168849D01*
X166067417Y-108834938D02*
X166000722Y-108768243D01*
X165934026Y-108634852D01*
X165934026Y-108301374D01*
X166000722Y-108167983D01*
X166067417Y-108101287D01*
X166200808Y-108034592D01*
X166334199Y-108034592D01*
X166534286Y-108101287D01*
X167334632Y-108901634D01*
X167334632Y-108034592D01*
D13*
X158149817Y-110232193D02*
X158216605Y-110031827D01*
X158283394Y-109965039D01*
X158416971Y-109898250D01*
X158617336Y-109898250D01*
X158750913Y-109965039D01*
X158817702Y-110031827D01*
X158884490Y-110165404D01*
X158884490Y-110699713D01*
X157481931Y-110699713D01*
X157481931Y-110232193D01*
X157548720Y-110098616D01*
X157615509Y-110031827D01*
X157749086Y-109965039D01*
X157882663Y-109965039D01*
X158016240Y-110031827D01*
X158083028Y-110098616D01*
X158149817Y-110232193D01*
X158149817Y-110699713D01*
X158884490Y-108629268D02*
X158884490Y-109297154D01*
X157481931Y-109297154D01*
X157481931Y-108161749D02*
X158617336Y-108161749D01*
X158750913Y-108094960D01*
X158817702Y-108028172D01*
X158884490Y-107894595D01*
X158884490Y-107627441D01*
X158817702Y-107493863D01*
X158750913Y-107427075D01*
X158617336Y-107360286D01*
X157481931Y-107360286D01*
%TO.C,J11*%
D12*
X165934026Y-102769108D02*
X166934459Y-102769108D01*
X167134545Y-102835804D01*
X167267936Y-102969195D01*
X167334632Y-103169282D01*
X167334632Y-103302673D01*
X167334632Y-101368502D02*
X167334632Y-102168849D01*
X167334632Y-101768676D02*
X165934026Y-101768676D01*
X166134113Y-101902067D01*
X166267504Y-102035458D01*
X166334199Y-102168849D01*
X167334632Y-100034592D02*
X167334632Y-100834938D01*
X167334632Y-100434765D02*
X165934026Y-100434765D01*
X166134113Y-100568156D01*
X166267504Y-100701547D01*
X166334199Y-100834938D01*
D13*
X158149817Y-101778068D02*
X158216605Y-101577702D01*
X158283394Y-101510913D01*
X158416971Y-101444125D01*
X158617336Y-101444125D01*
X158750913Y-101510913D01*
X158817702Y-101577702D01*
X158884490Y-101711279D01*
X158884490Y-102245587D01*
X157481931Y-102245587D01*
X157481931Y-101778068D01*
X157548720Y-101644490D01*
X157615509Y-101577702D01*
X157749086Y-101510913D01*
X157882663Y-101510913D01*
X158016240Y-101577702D01*
X158083028Y-101644490D01*
X158149817Y-101778068D01*
X158149817Y-102245587D01*
X158350182Y-100843028D02*
X158350182Y-99774412D01*
X158884490Y-100308720D02*
X157815874Y-100308720D01*
%TO.C,J10*%
D12*
X165934026Y-86769108D02*
X166934459Y-86769108D01*
X167134545Y-86835804D01*
X167267936Y-86969195D01*
X167334632Y-87169282D01*
X167334632Y-87302673D01*
X167334632Y-85368502D02*
X167334632Y-86168849D01*
X167334632Y-85768676D02*
X165934026Y-85768676D01*
X166134113Y-85902067D01*
X166267504Y-86035458D01*
X166334199Y-86168849D01*
X165934026Y-84501461D02*
X165934026Y-84368070D01*
X166000722Y-84234679D01*
X166067417Y-84167983D01*
X166200808Y-84101287D01*
X166467590Y-84034592D01*
X166801068Y-84034592D01*
X167067850Y-84101287D01*
X167201241Y-84167983D01*
X167267936Y-84234679D01*
X167334632Y-84368070D01*
X167334632Y-84501461D01*
X167267936Y-84634852D01*
X167201241Y-84701547D01*
X167067850Y-84768243D01*
X166801068Y-84834938D01*
X166467590Y-84834938D01*
X166200808Y-84768243D01*
X166067417Y-84701547D01*
X166000722Y-84634852D01*
X165934026Y-84501461D01*
D13*
X158149817Y-86495770D02*
X158216605Y-86295404D01*
X158283394Y-86228616D01*
X158416971Y-86161827D01*
X158617336Y-86161827D01*
X158750913Y-86228616D01*
X158817702Y-86295404D01*
X158884490Y-86428981D01*
X158884490Y-86963290D01*
X157481931Y-86963290D01*
X157481931Y-86495770D01*
X157548720Y-86362193D01*
X157615509Y-86295404D01*
X157749086Y-86228616D01*
X157882663Y-86228616D01*
X158016240Y-86295404D01*
X158083028Y-86362193D01*
X158149817Y-86495770D01*
X158149817Y-86963290D01*
X158884490Y-84759268D02*
X158216605Y-85226788D01*
X158884490Y-85560731D02*
X157481931Y-85560731D01*
X157481931Y-85026422D01*
X157548720Y-84892845D01*
X157615509Y-84826057D01*
X157749086Y-84759268D01*
X157949451Y-84759268D01*
X158083028Y-84826057D01*
X158149817Y-84892845D01*
X158216605Y-85026422D01*
X158216605Y-85560731D01*
X158884490Y-84158172D02*
X157481931Y-84158172D01*
X158884490Y-83356709D01*
X157481931Y-83356709D01*
%TO.C,J9*%
D12*
X157934026Y-90102153D02*
X158934459Y-90102153D01*
X159134545Y-90168849D01*
X159267936Y-90302240D01*
X159334632Y-90502326D01*
X159334632Y-90635717D01*
X159334632Y-89368502D02*
X159334632Y-89101720D01*
X159267936Y-88968329D01*
X159201241Y-88901634D01*
X159001154Y-88768243D01*
X158734372Y-88701547D01*
X158200808Y-88701547D01*
X158067417Y-88768243D01*
X158000722Y-88834938D01*
X157934026Y-88968329D01*
X157934026Y-89235111D01*
X158000722Y-89368502D01*
X158067417Y-89435198D01*
X158200808Y-89501893D01*
X158534286Y-89501893D01*
X158667677Y-89435198D01*
X158734372Y-89368502D01*
X158801068Y-89235111D01*
X158801068Y-88968329D01*
X158734372Y-88834938D01*
X158667677Y-88768243D01*
X158534286Y-88701547D01*
D13*
X149548720Y-90068616D02*
X149481931Y-90202193D01*
X149481931Y-90402559D01*
X149548720Y-90602924D01*
X149682297Y-90736501D01*
X149815874Y-90803290D01*
X150083028Y-90870078D01*
X150283394Y-90870078D01*
X150550548Y-90803290D01*
X150684125Y-90736501D01*
X150817702Y-90602924D01*
X150884490Y-90402559D01*
X150884490Y-90268981D01*
X150817702Y-90068616D01*
X150750913Y-90001827D01*
X150283394Y-90001827D01*
X150283394Y-90268981D01*
X150884490Y-89400731D02*
X149481931Y-89400731D01*
X150884490Y-88599268D01*
X149481931Y-88599268D01*
X150884490Y-87931383D02*
X149481931Y-87931383D01*
X149481931Y-87597441D01*
X149548720Y-87397075D01*
X149682297Y-87263498D01*
X149815874Y-87196709D01*
X150083028Y-87129921D01*
X150283394Y-87129921D01*
X150550548Y-87196709D01*
X150684125Y-87263498D01*
X150817702Y-87397075D01*
X150884490Y-87597441D01*
X150884490Y-87931383D01*
%TO.C,J8*%
D12*
X149934026Y-102102153D02*
X150934459Y-102102153D01*
X151134545Y-102168849D01*
X151267936Y-102302240D01*
X151334632Y-102502326D01*
X151334632Y-102635717D01*
X150534286Y-101235111D02*
X150467590Y-101368502D01*
X150400895Y-101435198D01*
X150267504Y-101501893D01*
X150200808Y-101501893D01*
X150067417Y-101435198D01*
X150000722Y-101368502D01*
X149934026Y-101235111D01*
X149934026Y-100968329D01*
X150000722Y-100834938D01*
X150067417Y-100768243D01*
X150200808Y-100701547D01*
X150267504Y-100701547D01*
X150400895Y-100768243D01*
X150467590Y-100834938D01*
X150534286Y-100968329D01*
X150534286Y-101235111D01*
X150600981Y-101368502D01*
X150667677Y-101435198D01*
X150801068Y-101501893D01*
X151067850Y-101501893D01*
X151201241Y-101435198D01*
X151267936Y-101368502D01*
X151334632Y-101235111D01*
X151334632Y-100968329D01*
X151267936Y-100834938D01*
X151201241Y-100768243D01*
X151067850Y-100701547D01*
X150801068Y-100701547D01*
X150667677Y-100768243D01*
X150600981Y-100834938D01*
X150534286Y-100968329D01*
D13*
X142350182Y-104139060D02*
X142350182Y-103070444D01*
X142884490Y-103604752D02*
X141815874Y-103604752D01*
X141615509Y-102469347D02*
X141548720Y-102402559D01*
X141481931Y-102268981D01*
X141481931Y-101935039D01*
X141548720Y-101801462D01*
X141615509Y-101734673D01*
X141749086Y-101667885D01*
X141882663Y-101667885D01*
X142083028Y-101734673D01*
X142884490Y-102536136D01*
X142884490Y-101667885D01*
X141481931Y-100799634D02*
X141481931Y-100666057D01*
X141548720Y-100532480D01*
X141615509Y-100465691D01*
X141749086Y-100398903D01*
X142016240Y-100332114D01*
X142350182Y-100332114D01*
X142617336Y-100398903D01*
X142750913Y-100465691D01*
X142817702Y-100532480D01*
X142884490Y-100666057D01*
X142884490Y-100799634D01*
X142817702Y-100933211D01*
X142750913Y-101000000D01*
X142617336Y-101066788D01*
X142350182Y-101133577D01*
X142016240Y-101133577D01*
X141749086Y-101066788D01*
X141615509Y-101000000D01*
X141548720Y-100933211D01*
X141481931Y-100799634D01*
X141481931Y-99463863D02*
X141481931Y-99330286D01*
X141548720Y-99196709D01*
X141615509Y-99129921D01*
X141749086Y-99063132D01*
X142016240Y-98996344D01*
X142350182Y-98996344D01*
X142617336Y-99063132D01*
X142750913Y-99129921D01*
X142817702Y-99196709D01*
X142884490Y-99330286D01*
X142884490Y-99463863D01*
X142817702Y-99597441D01*
X142750913Y-99664229D01*
X142617336Y-99731018D01*
X142350182Y-99797806D01*
X142016240Y-99797806D01*
X141749086Y-99731018D01*
X141615509Y-99664229D01*
X141548720Y-99597441D01*
X141481931Y-99463863D01*
X141481931Y-98595613D02*
X142884490Y-98128093D01*
X141481931Y-97660573D01*
%TO.C,J7*%
D12*
X157934026Y-98102153D02*
X158934459Y-98102153D01*
X159134545Y-98168849D01*
X159267936Y-98302240D01*
X159334632Y-98502326D01*
X159334632Y-98635717D01*
X157934026Y-97568589D02*
X157934026Y-96634852D01*
X159334632Y-97235111D01*
D13*
X149548720Y-98068616D02*
X149481931Y-98202193D01*
X149481931Y-98402559D01*
X149548720Y-98602924D01*
X149682297Y-98736501D01*
X149815874Y-98803290D01*
X150083028Y-98870078D01*
X150283394Y-98870078D01*
X150550548Y-98803290D01*
X150684125Y-98736501D01*
X150817702Y-98602924D01*
X150884490Y-98402559D01*
X150884490Y-98268981D01*
X150817702Y-98068616D01*
X150750913Y-98001827D01*
X150283394Y-98001827D01*
X150283394Y-98268981D01*
X150884490Y-97400731D02*
X149481931Y-97400731D01*
X150884490Y-96599268D01*
X149481931Y-96599268D01*
X150884490Y-95931383D02*
X149481931Y-95931383D01*
X149481931Y-95597441D01*
X149548720Y-95397075D01*
X149682297Y-95263498D01*
X149815874Y-95196709D01*
X150083028Y-95129921D01*
X150283394Y-95129921D01*
X150550548Y-95196709D01*
X150684125Y-95263498D01*
X150817702Y-95397075D01*
X150884490Y-95597441D01*
X150884490Y-95931383D01*
%TO.C,J6*%
D12*
X157934026Y-106102153D02*
X158934459Y-106102153D01*
X159134545Y-106168849D01*
X159267936Y-106302240D01*
X159334632Y-106502326D01*
X159334632Y-106635717D01*
X157934026Y-104834938D02*
X157934026Y-105101720D01*
X158000722Y-105235111D01*
X158067417Y-105301807D01*
X158267504Y-105435198D01*
X158534286Y-105501893D01*
X159067850Y-105501893D01*
X159201241Y-105435198D01*
X159267936Y-105368502D01*
X159334632Y-105235111D01*
X159334632Y-104968329D01*
X159267936Y-104834938D01*
X159201241Y-104768243D01*
X159067850Y-104701547D01*
X158734372Y-104701547D01*
X158600981Y-104768243D01*
X158534286Y-104834938D01*
X158467590Y-104968329D01*
X158467590Y-105235111D01*
X158534286Y-105368502D01*
X158600981Y-105435198D01*
X158734372Y-105501893D01*
D13*
X149548720Y-106068616D02*
X149481931Y-106202193D01*
X149481931Y-106402559D01*
X149548720Y-106602924D01*
X149682297Y-106736501D01*
X149815874Y-106803290D01*
X150083028Y-106870078D01*
X150283394Y-106870078D01*
X150550548Y-106803290D01*
X150684125Y-106736501D01*
X150817702Y-106602924D01*
X150884490Y-106402559D01*
X150884490Y-106268981D01*
X150817702Y-106068616D01*
X150750913Y-106001827D01*
X150283394Y-106001827D01*
X150283394Y-106268981D01*
X150884490Y-105400731D02*
X149481931Y-105400731D01*
X150884490Y-104599268D01*
X149481931Y-104599268D01*
X150884490Y-103931383D02*
X149481931Y-103931383D01*
X149481931Y-103597441D01*
X149548720Y-103397075D01*
X149682297Y-103263498D01*
X149815874Y-103196709D01*
X150083028Y-103129921D01*
X150283394Y-103129921D01*
X150550548Y-103196709D01*
X150684125Y-103263498D01*
X150817702Y-103397075D01*
X150884490Y-103597441D01*
X150884490Y-103931383D01*
%TO.C,J5*%
D12*
X84934026Y-118102153D02*
X85934459Y-118102153D01*
X86134545Y-118168849D01*
X86267936Y-118302240D01*
X86334632Y-118502326D01*
X86334632Y-118635717D01*
X84934026Y-116768243D02*
X84934026Y-117435198D01*
X85600981Y-117501893D01*
X85534286Y-117435198D01*
X85467590Y-117301807D01*
X85467590Y-116968329D01*
X85534286Y-116834938D01*
X85600981Y-116768243D01*
X85734372Y-116701547D01*
X86067850Y-116701547D01*
X86201241Y-116768243D01*
X86267936Y-116834938D01*
X86334632Y-116968329D01*
X86334632Y-117301807D01*
X86267936Y-117435198D01*
X86201241Y-117501893D01*
%TO.C,J4*%
X84934026Y-78102153D02*
X85934459Y-78102153D01*
X86134545Y-78168849D01*
X86267936Y-78302240D01*
X86334632Y-78502326D01*
X86334632Y-78635717D01*
X85400895Y-76834938D02*
X86334632Y-76834938D01*
X84867330Y-77168416D02*
X85867763Y-77501893D01*
X85867763Y-76634852D01*
%TO.C,R5*%
D13*
X141322380Y-104506666D02*
X140846190Y-104840000D01*
X141322380Y-105078095D02*
X140322380Y-105078095D01*
X140322380Y-104697142D01*
X140370000Y-104601904D01*
X140417619Y-104554285D01*
X140512857Y-104506666D01*
X140655714Y-104506666D01*
X140750952Y-104554285D01*
X140798571Y-104601904D01*
X140846190Y-104697142D01*
X140846190Y-105078095D01*
X140322380Y-103601904D02*
X140322380Y-104078095D01*
X140798571Y-104125714D01*
X140750952Y-104078095D01*
X140703333Y-103982857D01*
X140703333Y-103744761D01*
X140750952Y-103649523D01*
X140798571Y-103601904D01*
X140893809Y-103554285D01*
X141131904Y-103554285D01*
X141227142Y-103601904D01*
X141274761Y-103649523D01*
X141322380Y-103744761D01*
X141322380Y-103982857D01*
X141274761Y-104078095D01*
X141227142Y-104125714D01*
%TO.C,R4*%
X128082380Y-85326666D02*
X127606190Y-85660000D01*
X128082380Y-85898095D02*
X127082380Y-85898095D01*
X127082380Y-85517142D01*
X127130000Y-85421904D01*
X127177619Y-85374285D01*
X127272857Y-85326666D01*
X127415714Y-85326666D01*
X127510952Y-85374285D01*
X127558571Y-85421904D01*
X127606190Y-85517142D01*
X127606190Y-85898095D01*
X127415714Y-84469523D02*
X128082380Y-84469523D01*
X127034761Y-84707619D02*
X127749047Y-84945714D01*
X127749047Y-84326666D01*
%TO.C,J3*%
D12*
X75934026Y-106102153D02*
X76934459Y-106102153D01*
X77134545Y-106168849D01*
X77267936Y-106302240D01*
X77334632Y-106502326D01*
X77334632Y-106635717D01*
X75934026Y-105568589D02*
X75934026Y-104701547D01*
X76467590Y-105168416D01*
X76467590Y-104968329D01*
X76534286Y-104834938D01*
X76600981Y-104768243D01*
X76734372Y-104701547D01*
X77067850Y-104701547D01*
X77201241Y-104768243D01*
X77267936Y-104834938D01*
X77334632Y-104968329D01*
X77334632Y-105368502D01*
X77267936Y-105501893D01*
X77201241Y-105568589D01*
D13*
X68733759Y-107360809D02*
X68733759Y-106692924D01*
X69134490Y-107494386D02*
X67731931Y-107026867D01*
X69134490Y-106559347D01*
X69134490Y-106091827D02*
X67731931Y-106091827D01*
X69134490Y-105423942D02*
X67731931Y-105423942D01*
X69134490Y-104622480D01*
X67731931Y-104622480D01*
X68600182Y-103954595D02*
X68600182Y-102885978D01*
%TO.C,J2*%
D12*
X75934026Y-98102153D02*
X76934459Y-98102153D01*
X77134545Y-98168849D01*
X77267936Y-98302240D01*
X77334632Y-98502326D01*
X77334632Y-98635717D01*
X76067417Y-97501893D02*
X76000722Y-97435198D01*
X75934026Y-97301807D01*
X75934026Y-96968329D01*
X76000722Y-96834938D01*
X76067417Y-96768243D01*
X76200808Y-96701547D01*
X76334199Y-96701547D01*
X76534286Y-96768243D01*
X77334632Y-97568589D01*
X77334632Y-96701547D01*
D13*
X67798720Y-97998616D02*
X67731931Y-98132193D01*
X67731931Y-98332559D01*
X67798720Y-98532924D01*
X67932297Y-98666501D01*
X68065874Y-98733290D01*
X68333028Y-98800078D01*
X68533394Y-98800078D01*
X68800548Y-98733290D01*
X68934125Y-98666501D01*
X69067702Y-98532924D01*
X69134490Y-98332559D01*
X69134490Y-98198981D01*
X69067702Y-97998616D01*
X69000913Y-97931827D01*
X68533394Y-97931827D01*
X68533394Y-98198981D01*
X69134490Y-97330731D02*
X67731931Y-97330731D01*
X69134490Y-96529268D01*
X67731931Y-96529268D01*
X69134490Y-95861383D02*
X67731931Y-95861383D01*
X67731931Y-95527441D01*
X67798720Y-95327075D01*
X67932297Y-95193498D01*
X68065874Y-95126709D01*
X68333028Y-95059921D01*
X68533394Y-95059921D01*
X68800548Y-95126709D01*
X68934125Y-95193498D01*
X69067702Y-95327075D01*
X69134490Y-95527441D01*
X69134490Y-95861383D01*
%TO.C,J1*%
D12*
X75934026Y-90102153D02*
X76934459Y-90102153D01*
X77134545Y-90168849D01*
X77267936Y-90302240D01*
X77334632Y-90502326D01*
X77334632Y-90635717D01*
X77334632Y-88701547D02*
X77334632Y-89501893D01*
X77334632Y-89101720D02*
X75934026Y-89101720D01*
X76134113Y-89235111D01*
X76267504Y-89368502D01*
X76334199Y-89501893D01*
D13*
X68733759Y-91430809D02*
X68733759Y-90762924D01*
X69134490Y-91564386D02*
X67731931Y-91096867D01*
X69134490Y-90629347D01*
X69134490Y-90161827D02*
X67731931Y-90161827D01*
X69134490Y-89493942D02*
X67731931Y-89493942D01*
X69134490Y-88692480D01*
X67731931Y-88692480D01*
X68600182Y-88024595D02*
X68600182Y-86955978D01*
X69134490Y-87490286D02*
X68065874Y-87490286D01*
%TO.C,C5*%
X148333333Y-107357142D02*
X148285714Y-107404761D01*
X148142857Y-107452380D01*
X148047619Y-107452380D01*
X147904761Y-107404761D01*
X147809523Y-107309523D01*
X147761904Y-107214285D01*
X147714285Y-107023809D01*
X147714285Y-106880952D01*
X147761904Y-106690476D01*
X147809523Y-106595238D01*
X147904761Y-106500000D01*
X148047619Y-106452380D01*
X148142857Y-106452380D01*
X148285714Y-106500000D01*
X148333333Y-106547619D01*
X149238095Y-106452380D02*
X148761904Y-106452380D01*
X148714285Y-106928571D01*
X148761904Y-106880952D01*
X148857142Y-106833333D01*
X149095238Y-106833333D01*
X149190476Y-106880952D01*
X149238095Y-106928571D01*
X149285714Y-107023809D01*
X149285714Y-107261904D01*
X149238095Y-107357142D01*
X149190476Y-107404761D01*
X149095238Y-107452380D01*
X148857142Y-107452380D01*
X148761904Y-107404761D01*
X148714285Y-107357142D01*
%TO.C,C4*%
X146083333Y-75607142D02*
X146035714Y-75654761D01*
X145892857Y-75702380D01*
X145797619Y-75702380D01*
X145654761Y-75654761D01*
X145559523Y-75559523D01*
X145511904Y-75464285D01*
X145464285Y-75273809D01*
X145464285Y-75130952D01*
X145511904Y-74940476D01*
X145559523Y-74845238D01*
X145654761Y-74750000D01*
X145797619Y-74702380D01*
X145892857Y-74702380D01*
X146035714Y-74750000D01*
X146083333Y-74797619D01*
X146940476Y-75035714D02*
X146940476Y-75702380D01*
X146702380Y-74654761D02*
X146464285Y-75369047D01*
X147083333Y-75369047D01*
%TO.C,C2*%
X80333333Y-86857142D02*
X80285714Y-86904761D01*
X80142857Y-86952380D01*
X80047619Y-86952380D01*
X79904761Y-86904761D01*
X79809523Y-86809523D01*
X79761904Y-86714285D01*
X79714285Y-86523809D01*
X79714285Y-86380952D01*
X79761904Y-86190476D01*
X79809523Y-86095238D01*
X79904761Y-86000000D01*
X80047619Y-85952380D01*
X80142857Y-85952380D01*
X80285714Y-86000000D01*
X80333333Y-86047619D01*
X80714285Y-86047619D02*
X80761904Y-86000000D01*
X80857142Y-85952380D01*
X81095238Y-85952380D01*
X81190476Y-86000000D01*
X81238095Y-86047619D01*
X81285714Y-86142857D01*
X81285714Y-86238095D01*
X81238095Y-86380952D01*
X80666666Y-86952380D01*
X81285714Y-86952380D01*
%TO.C,C1*%
X80333333Y-102857142D02*
X80285714Y-102904761D01*
X80142857Y-102952380D01*
X80047619Y-102952380D01*
X79904761Y-102904761D01*
X79809523Y-102809523D01*
X79761904Y-102714285D01*
X79714285Y-102523809D01*
X79714285Y-102380952D01*
X79761904Y-102190476D01*
X79809523Y-102095238D01*
X79904761Y-102000000D01*
X80047619Y-101952380D01*
X80142857Y-101952380D01*
X80285714Y-102000000D01*
X80333333Y-102047619D01*
X81285714Y-102952380D02*
X80714285Y-102952380D01*
X81000000Y-102952380D02*
X81000000Y-101952380D01*
X80904761Y-102095238D01*
X80809523Y-102190476D01*
X80714285Y-102238095D01*
%TD*%
M02*
