%TF.GenerationSoftware,KiCad,Pcbnew,5.1.6-c6e7f7d~87~ubuntu20.04.1*%
%TF.CreationDate,2020-08-29T22:12:38-04:00*%
%TF.ProjectId,Tube AMP GU17 Power Output Stage,54756265-2041-44d5-9020-475531372050,rev?*%
%TF.SameCoordinates,Original*%
%TF.FileFunction,Copper,L2,Bot*%
%TF.FilePolarity,Positive*%
%FSLAX46Y46*%
G04 Gerber Fmt 4.6, Leading zero omitted, Abs format (unit mm)*
G04 Created by KiCad (PCBNEW 5.1.6-c6e7f7d~87~ubuntu20.04.1) date 2020-08-29 22:12:38*
%MOMM*%
%LPD*%
G01*
G04 APERTURE LIST*
%TA.AperFunction,ComponentPad*%
%ADD10C,3.740000*%
%TD*%
%TA.AperFunction,ComponentPad*%
%ADD11C,1.440000*%
%TD*%
%TA.AperFunction,ComponentPad*%
%ADD12O,2.600000X2.600000*%
%TD*%
%TA.AperFunction,ComponentPad*%
%ADD13R,2.600000X2.600000*%
%TD*%
%TA.AperFunction,ComponentPad*%
%ADD14C,0.800000*%
%TD*%
%TA.AperFunction,ComponentPad*%
%ADD15C,6.400000*%
%TD*%
%TA.AperFunction,ComponentPad*%
%ADD16O,1.600000X1.600000*%
%TD*%
%TA.AperFunction,ComponentPad*%
%ADD17C,1.600000*%
%TD*%
%TA.AperFunction,ComponentPad*%
%ADD18C,2.030000*%
%TD*%
%TA.AperFunction,ComponentPad*%
%ADD19O,2.400000X2.400000*%
%TD*%
%TA.AperFunction,ComponentPad*%
%ADD20C,2.400000*%
%TD*%
%TA.AperFunction,ComponentPad*%
%ADD21R,2.400000X2.400000*%
%TD*%
%TA.AperFunction,Conductor*%
%ADD22C,1.000000*%
%TD*%
%TA.AperFunction,Conductor*%
%ADD23C,2.000000*%
%TD*%
%TA.AperFunction,Conductor*%
%ADD24C,0.254000*%
%TD*%
G04 APERTURE END LIST*
D10*
%TO.P,J17,1*%
%TO.N,VSS*%
X146000000Y-93000000D03*
%TD*%
D11*
%TO.P,RV2,3*%
%TO.N,GND*%
X92420000Y-77000000D03*
%TO.P,RV2,2*%
%TO.N,Net-(R2-Pad1)*%
X94960000Y-77000000D03*
%TO.P,RV2,1*%
%TO.N,Net-(D1-Pad1)*%
X97500000Y-77000000D03*
%TD*%
%TO.P,RV1,3*%
%TO.N,GND*%
X92460000Y-117000000D03*
%TO.P,RV1,2*%
%TO.N,Net-(R1-Pad1)*%
X95000000Y-117000000D03*
%TO.P,RV1,1*%
%TO.N,Net-(D1-Pad1)*%
X97540000Y-117000000D03*
%TD*%
D12*
%TO.P,D1,2*%
%TO.N,GND*%
X85000000Y-97000000D03*
D13*
%TO.P,D1,1*%
%TO.N,Net-(D1-Pad1)*%
X100240000Y-97000000D03*
%TD*%
D10*
%TO.P,J16,1*%
%TO.N,VS*%
X162000000Y-93000000D03*
%TD*%
%TO.P,J15,1*%
%TO.N,Net-(J15-Pad1)*%
X117000000Y-77000000D03*
%TD*%
%TO.P,J14,1*%
%TO.N,Net-(J14-Pad1)*%
X125000000Y-77000000D03*
%TD*%
%TO.P,J13,1*%
%TO.N,Net-(J13-Pad1)*%
X109000000Y-77000000D03*
%TD*%
D14*
%TO.P,H4,1*%
%TO.N,Net-(H4-Pad1)*%
X73697056Y-115302944D03*
X72000000Y-114600000D03*
X70302944Y-115302944D03*
X69600000Y-117000000D03*
X70302944Y-118697056D03*
X72000000Y-119400000D03*
X73697056Y-118697056D03*
X74400000Y-117000000D03*
D15*
X72000000Y-117000000D03*
%TD*%
D14*
%TO.P,H3,1*%
%TO.N,Net-(H3-Pad1)*%
X163697056Y-115302944D03*
X162000000Y-114600000D03*
X160302944Y-115302944D03*
X159600000Y-117000000D03*
X160302944Y-118697056D03*
X162000000Y-119400000D03*
X163697056Y-118697056D03*
X164400000Y-117000000D03*
D15*
X162000000Y-117000000D03*
%TD*%
D14*
%TO.P,H2,1*%
%TO.N,Net-(H2-Pad1)*%
X163697056Y-75302944D03*
X162000000Y-74600000D03*
X160302944Y-75302944D03*
X159600000Y-77000000D03*
X160302944Y-78697056D03*
X162000000Y-79400000D03*
X163697056Y-78697056D03*
X164400000Y-77000000D03*
D15*
X162000000Y-77000000D03*
%TD*%
D14*
%TO.P,H1,1*%
%TO.N,Net-(H1-Pad1)*%
X73697056Y-75302944D03*
X72000000Y-74600000D03*
X70302944Y-75302944D03*
X69600000Y-77000000D03*
X70302944Y-78697056D03*
X72000000Y-79400000D03*
X73697056Y-78697056D03*
X74400000Y-77000000D03*
D15*
X72000000Y-77000000D03*
%TD*%
D16*
%TO.P,R7,2*%
%TO.N,Net-(R7-Pad2)*%
X100160000Y-89000000D03*
D17*
%TO.P,R7,1*%
%TO.N,Net-(C2-Pad2)*%
X90000000Y-89000000D03*
%TD*%
D16*
%TO.P,R3,2*%
%TO.N,Net-(C1-Pad2)*%
X90000000Y-105000000D03*
D17*
%TO.P,R3,1*%
%TO.N,Net-(R3-Pad1)*%
X100160000Y-105000000D03*
%TD*%
D16*
%TO.P,R2,2*%
%TO.N,Net-(C2-Pad2)*%
X84840000Y-84000000D03*
D17*
%TO.P,R2,1*%
%TO.N,Net-(R2-Pad1)*%
X95000000Y-84000000D03*
%TD*%
D16*
%TO.P,R1,2*%
%TO.N,Net-(C1-Pad2)*%
X84840000Y-110000000D03*
D17*
%TO.P,R1,1*%
%TO.N,Net-(R1-Pad1)*%
X95000000Y-110000000D03*
%TD*%
D10*
%TO.P,J12,1*%
%TO.N,Net-(J12-Pad1)*%
X162000000Y-109000000D03*
%TD*%
%TO.P,J11,1*%
%TO.N,VS*%
X162000000Y-101000000D03*
%TD*%
%TO.P,J10,1*%
%TO.N,Net-(J10-Pad1)*%
X162000000Y-85000000D03*
%TD*%
%TO.P,J9,1*%
%TO.N,GND*%
X154000000Y-89000000D03*
%TD*%
%TO.P,J8,1*%
%TO.N,VSS*%
X146000000Y-101000000D03*
%TD*%
%TO.P,J7,1*%
%TO.N,GND*%
X154000000Y-97000000D03*
%TD*%
%TO.P,J6,1*%
%TO.N,GND*%
X154000000Y-105000000D03*
%TD*%
%TO.P,J5,1*%
%TO.N,GND*%
X81000000Y-117000000D03*
%TD*%
%TO.P,J4,1*%
%TO.N,GND*%
X81000000Y-77000000D03*
%TD*%
D18*
%TO.P,V1,9*%
%TO.N,Net-(J14-Pad1)*%
X120410000Y-102000000D03*
%TO.P,V1,8*%
%TO.N,Net-(J12-Pad1)*%
X122560000Y-99030000D03*
%TO.P,V1,7*%
%TO.N,Net-(R4-Pad1)*%
X122560000Y-95420000D03*
%TO.P,V1,6*%
%TO.N,Net-(J10-Pad1)*%
X120410000Y-92490000D03*
%TO.P,V1,5*%
%TO.N,Net-(J15-Pad1)*%
X116950000Y-91350000D03*
%TO.P,V1,4*%
%TO.N,Net-(J13-Pad1)*%
X113500000Y-92490000D03*
%TO.P,V1,3*%
%TO.N,Net-(R7-Pad2)*%
X111350000Y-95420000D03*
%TO.P,V1,2*%
%TO.N,Net-(D1-Pad1)*%
X111350000Y-99070000D03*
%TO.P,V1,1*%
%TO.N,Net-(R3-Pad1)*%
X113500000Y-102000000D03*
%TD*%
D19*
%TO.P,R5,2*%
%TO.N,VSS*%
X137500000Y-114500000D03*
D20*
%TO.P,R5,1*%
%TO.N,Net-(C4-Pad1)*%
X137500000Y-94180000D03*
%TD*%
D19*
%TO.P,R4,2*%
%TO.N,Net-(C4-Pad1)*%
X131000000Y-75000000D03*
D20*
%TO.P,R4,1*%
%TO.N,Net-(R4-Pad1)*%
X131000000Y-95320000D03*
%TD*%
D10*
%TO.P,J3,1*%
%TO.N,Net-(C1-Pad1)*%
X72000000Y-105000000D03*
%TD*%
%TO.P,J2,1*%
%TO.N,GND*%
X72000000Y-97000000D03*
%TD*%
%TO.P,J1,1*%
%TO.N,Net-(C2-Pad1)*%
X72000000Y-89000000D03*
%TD*%
D20*
%TO.P,C5,2*%
%TO.N,GND*%
X151000000Y-114500000D03*
D21*
%TO.P,C5,1*%
%TO.N,VSS*%
X146000000Y-114500000D03*
%TD*%
D20*
%TO.P,C4,2*%
%TO.N,GND*%
X151000000Y-79500000D03*
D21*
%TO.P,C4,1*%
%TO.N,Net-(C4-Pad1)*%
X146000000Y-79500000D03*
%TD*%
D17*
%TO.P,C2,2*%
%TO.N,Net-(C2-Pad2)*%
X83000000Y-89000000D03*
%TO.P,C2,1*%
%TO.N,Net-(C2-Pad1)*%
X78000000Y-89000000D03*
%TD*%
%TO.P,C1,2*%
%TO.N,Net-(C1-Pad2)*%
X83000000Y-105000000D03*
%TO.P,C1,1*%
%TO.N,Net-(C1-Pad1)*%
X78000000Y-105000000D03*
%TD*%
D22*
%TO.N,Net-(C4-Pad1)*%
X137500000Y-88000000D02*
X146000000Y-79500000D01*
X137500000Y-94180000D02*
X137500000Y-88000000D01*
%TO.N,VSS*%
X146000000Y-101000000D02*
X146000000Y-114500000D01*
D23*
%TO.N,Net-(J14-Pad1)*%
X120410000Y-102000000D02*
X125000000Y-102000000D01*
X125000000Y-102000000D02*
X127000000Y-100000000D01*
X127000000Y-100000000D02*
X127000000Y-95000000D01*
X125000000Y-93500000D02*
X125000000Y-77000000D01*
X127000000Y-95000000D02*
X125000000Y-93500000D01*
%TD*%
D24*
%TO.N,GND*%
G36*
X130321239Y-72762426D02*
G01*
X129897752Y-72937840D01*
X129516624Y-73192501D01*
X129192501Y-73516624D01*
X128937840Y-73897752D01*
X128762426Y-74321239D01*
X128673000Y-74770811D01*
X128673000Y-75229189D01*
X128762426Y-75678761D01*
X128937840Y-76102248D01*
X129192501Y-76483376D01*
X129516624Y-76807499D01*
X129897752Y-77062160D01*
X130321239Y-77237574D01*
X130770811Y-77327000D01*
X131229189Y-77327000D01*
X131678761Y-77237574D01*
X132102248Y-77062160D01*
X132483376Y-76807499D01*
X132668590Y-76622285D01*
X158165000Y-76622285D01*
X158165000Y-77377715D01*
X158312377Y-78118628D01*
X158601467Y-78816554D01*
X159021161Y-79444670D01*
X159555330Y-79978839D01*
X160183446Y-80398533D01*
X160881372Y-80687623D01*
X161622285Y-80835000D01*
X162377715Y-80835000D01*
X163118628Y-80687623D01*
X163816554Y-80398533D01*
X164444670Y-79978839D01*
X164978839Y-79444670D01*
X165398533Y-78816554D01*
X165687623Y-78118628D01*
X165835000Y-77377715D01*
X165835000Y-76622285D01*
X165687623Y-75881372D01*
X165398533Y-75183446D01*
X164978839Y-74555330D01*
X164444670Y-74021161D01*
X163816554Y-73601467D01*
X163118628Y-73312377D01*
X162377715Y-73165000D01*
X161622285Y-73165000D01*
X160881372Y-73312377D01*
X160183446Y-73601467D01*
X159555330Y-74021161D01*
X159021161Y-74555330D01*
X158601467Y-75183446D01*
X158312377Y-75881372D01*
X158165000Y-76622285D01*
X132668590Y-76622285D01*
X132807499Y-76483376D01*
X133062160Y-76102248D01*
X133237574Y-75678761D01*
X133327000Y-75229189D01*
X133327000Y-74770811D01*
X133237574Y-74321239D01*
X133062160Y-73897752D01*
X132807499Y-73516624D01*
X132483376Y-73192501D01*
X132102248Y-72937840D01*
X131678761Y-72762426D01*
X131415199Y-72710000D01*
X166290000Y-72710000D01*
X166290001Y-121290000D01*
X67710000Y-121290000D01*
X67710000Y-116622285D01*
X68165000Y-116622285D01*
X68165000Y-117377715D01*
X68312377Y-118118628D01*
X68601467Y-118816554D01*
X69021161Y-119444670D01*
X69555330Y-119978839D01*
X70183446Y-120398533D01*
X70881372Y-120687623D01*
X71622285Y-120835000D01*
X72377715Y-120835000D01*
X73118628Y-120687623D01*
X73816554Y-120398533D01*
X74444670Y-119978839D01*
X74978839Y-119444670D01*
X75398533Y-118816554D01*
X75424028Y-118755003D01*
X79424602Y-118755003D01*
X79625103Y-119108448D01*
X80062859Y-119336164D01*
X80536629Y-119474102D01*
X81028206Y-119516962D01*
X81518700Y-119463096D01*
X81989259Y-119314575D01*
X82374897Y-119108448D01*
X82575398Y-118755003D01*
X81000000Y-117179605D01*
X79424602Y-118755003D01*
X75424028Y-118755003D01*
X75687623Y-118118628D01*
X75835000Y-117377715D01*
X75835000Y-117028206D01*
X78483038Y-117028206D01*
X78536904Y-117518700D01*
X78685425Y-117989259D01*
X78891552Y-118374897D01*
X79244997Y-118575398D01*
X80820395Y-117000000D01*
X81179605Y-117000000D01*
X82755003Y-118575398D01*
X83108448Y-118374897D01*
X83336164Y-117937141D01*
X83336624Y-117935560D01*
X91704045Y-117935560D01*
X91765932Y-118171368D01*
X92007790Y-118284266D01*
X92267027Y-118347811D01*
X92533680Y-118359561D01*
X92797501Y-118319063D01*
X93048353Y-118227875D01*
X93154068Y-118171368D01*
X93215955Y-117935560D01*
X92460000Y-117179605D01*
X91704045Y-117935560D01*
X83336624Y-117935560D01*
X83474102Y-117463371D01*
X83508078Y-117073680D01*
X91100439Y-117073680D01*
X91140937Y-117337501D01*
X91232125Y-117588353D01*
X91288632Y-117694068D01*
X91524440Y-117755955D01*
X92280395Y-117000000D01*
X92639605Y-117000000D01*
X93395560Y-117755955D01*
X93631368Y-117694068D01*
X93731764Y-117478993D01*
X93799215Y-117641833D01*
X93947503Y-117863762D01*
X94136238Y-118052497D01*
X94358167Y-118200785D01*
X94604761Y-118302928D01*
X94866544Y-118355000D01*
X95133456Y-118355000D01*
X95395239Y-118302928D01*
X95641833Y-118200785D01*
X95863762Y-118052497D01*
X96052497Y-117863762D01*
X96200785Y-117641833D01*
X96270000Y-117474734D01*
X96339215Y-117641833D01*
X96487503Y-117863762D01*
X96676238Y-118052497D01*
X96898167Y-118200785D01*
X97144761Y-118302928D01*
X97406544Y-118355000D01*
X97673456Y-118355000D01*
X97935239Y-118302928D01*
X98181833Y-118200785D01*
X98403762Y-118052497D01*
X98592497Y-117863762D01*
X98740785Y-117641833D01*
X98842928Y-117395239D01*
X98895000Y-117133456D01*
X98895000Y-116866544D01*
X98842928Y-116604761D01*
X98740785Y-116358167D01*
X98592497Y-116136238D01*
X98403762Y-115947503D01*
X98181833Y-115799215D01*
X97935239Y-115697072D01*
X97673456Y-115645000D01*
X97406544Y-115645000D01*
X97144761Y-115697072D01*
X96898167Y-115799215D01*
X96676238Y-115947503D01*
X96487503Y-116136238D01*
X96339215Y-116358167D01*
X96270000Y-116525266D01*
X96200785Y-116358167D01*
X96052497Y-116136238D01*
X95863762Y-115947503D01*
X95641833Y-115799215D01*
X95395239Y-115697072D01*
X95133456Y-115645000D01*
X94866544Y-115645000D01*
X94604761Y-115697072D01*
X94358167Y-115799215D01*
X94136238Y-115947503D01*
X93947503Y-116136238D01*
X93799215Y-116358167D01*
X93729562Y-116526324D01*
X93687875Y-116411647D01*
X93631368Y-116305932D01*
X93395560Y-116244045D01*
X92639605Y-117000000D01*
X92280395Y-117000000D01*
X91524440Y-116244045D01*
X91288632Y-116305932D01*
X91175734Y-116547790D01*
X91112189Y-116807027D01*
X91100439Y-117073680D01*
X83508078Y-117073680D01*
X83516962Y-116971794D01*
X83463096Y-116481300D01*
X83331524Y-116064440D01*
X91704045Y-116064440D01*
X92460000Y-116820395D01*
X93215955Y-116064440D01*
X93154068Y-115828632D01*
X92912210Y-115715734D01*
X92652973Y-115652189D01*
X92386320Y-115640439D01*
X92122499Y-115680937D01*
X91871647Y-115772125D01*
X91765932Y-115828632D01*
X91704045Y-116064440D01*
X83331524Y-116064440D01*
X83314575Y-116010741D01*
X83108448Y-115625103D01*
X82755003Y-115424602D01*
X81179605Y-117000000D01*
X80820395Y-117000000D01*
X79244997Y-115424602D01*
X78891552Y-115625103D01*
X78663836Y-116062859D01*
X78525898Y-116536629D01*
X78483038Y-117028206D01*
X75835000Y-117028206D01*
X75835000Y-116622285D01*
X75687623Y-115881372D01*
X75424029Y-115244997D01*
X79424602Y-115244997D01*
X81000000Y-116820395D01*
X82575398Y-115244997D01*
X82374897Y-114891552D01*
X81937141Y-114663836D01*
X81463371Y-114525898D01*
X80971794Y-114483038D01*
X80481300Y-114536904D01*
X80010741Y-114685425D01*
X79625103Y-114891552D01*
X79424602Y-115244997D01*
X75424029Y-115244997D01*
X75398533Y-115183446D01*
X74978839Y-114555330D01*
X74694320Y-114270811D01*
X135173000Y-114270811D01*
X135173000Y-114729189D01*
X135262426Y-115178761D01*
X135437840Y-115602248D01*
X135692501Y-115983376D01*
X136016624Y-116307499D01*
X136397752Y-116562160D01*
X136821239Y-116737574D01*
X137270811Y-116827000D01*
X137729189Y-116827000D01*
X138178761Y-116737574D01*
X138602248Y-116562160D01*
X138983376Y-116307499D01*
X139307499Y-115983376D01*
X139562160Y-115602248D01*
X139737574Y-115178761D01*
X139827000Y-114729189D01*
X139827000Y-114270811D01*
X139737574Y-113821239D01*
X139562160Y-113397752D01*
X139307499Y-113016624D01*
X138983376Y-112692501D01*
X138602248Y-112437840D01*
X138178761Y-112262426D01*
X137729189Y-112173000D01*
X137270811Y-112173000D01*
X136821239Y-112262426D01*
X136397752Y-112437840D01*
X136016624Y-112692501D01*
X135692501Y-113016624D01*
X135437840Y-113397752D01*
X135262426Y-113821239D01*
X135173000Y-114270811D01*
X74694320Y-114270811D01*
X74444670Y-114021161D01*
X73816554Y-113601467D01*
X73118628Y-113312377D01*
X72377715Y-113165000D01*
X71622285Y-113165000D01*
X70881372Y-113312377D01*
X70183446Y-113601467D01*
X69555330Y-114021161D01*
X69021161Y-114555330D01*
X68601467Y-115183446D01*
X68312377Y-115881372D01*
X68165000Y-116622285D01*
X67710000Y-116622285D01*
X67710000Y-109858665D01*
X83405000Y-109858665D01*
X83405000Y-110141335D01*
X83460147Y-110418574D01*
X83568320Y-110679727D01*
X83725363Y-110914759D01*
X83925241Y-111114637D01*
X84160273Y-111271680D01*
X84421426Y-111379853D01*
X84698665Y-111435000D01*
X84981335Y-111435000D01*
X85258574Y-111379853D01*
X85519727Y-111271680D01*
X85754759Y-111114637D01*
X85954637Y-110914759D01*
X86111680Y-110679727D01*
X86219853Y-110418574D01*
X86275000Y-110141335D01*
X86275000Y-109858665D01*
X93565000Y-109858665D01*
X93565000Y-110141335D01*
X93620147Y-110418574D01*
X93728320Y-110679727D01*
X93885363Y-110914759D01*
X94085241Y-111114637D01*
X94320273Y-111271680D01*
X94581426Y-111379853D01*
X94858665Y-111435000D01*
X95141335Y-111435000D01*
X95418574Y-111379853D01*
X95679727Y-111271680D01*
X95914759Y-111114637D01*
X96114637Y-110914759D01*
X96271680Y-110679727D01*
X96379853Y-110418574D01*
X96435000Y-110141335D01*
X96435000Y-109858665D01*
X96379853Y-109581426D01*
X96271680Y-109320273D01*
X96114637Y-109085241D01*
X95914759Y-108885363D01*
X95679727Y-108728320D01*
X95418574Y-108620147D01*
X95141335Y-108565000D01*
X94858665Y-108565000D01*
X94581426Y-108620147D01*
X94320273Y-108728320D01*
X94085241Y-108885363D01*
X93885363Y-109085241D01*
X93728320Y-109320273D01*
X93620147Y-109581426D01*
X93565000Y-109858665D01*
X86275000Y-109858665D01*
X86219853Y-109581426D01*
X86111680Y-109320273D01*
X85954637Y-109085241D01*
X85754759Y-108885363D01*
X85519727Y-108728320D01*
X85258574Y-108620147D01*
X84981335Y-108565000D01*
X84698665Y-108565000D01*
X84421426Y-108620147D01*
X84160273Y-108728320D01*
X83925241Y-108885363D01*
X83725363Y-109085241D01*
X83568320Y-109320273D01*
X83460147Y-109581426D01*
X83405000Y-109858665D01*
X67710000Y-109858665D01*
X67710000Y-104753279D01*
X69495000Y-104753279D01*
X69495000Y-105246721D01*
X69591265Y-105730682D01*
X69780097Y-106186563D01*
X70054239Y-106596845D01*
X70403155Y-106945761D01*
X70813437Y-107219903D01*
X71269318Y-107408735D01*
X71753279Y-107505000D01*
X72246721Y-107505000D01*
X72730682Y-107408735D01*
X73186563Y-107219903D01*
X73596845Y-106945761D01*
X73945761Y-106596845D01*
X74219903Y-106186563D01*
X74408735Y-105730682D01*
X74505000Y-105246721D01*
X74505000Y-104858665D01*
X76565000Y-104858665D01*
X76565000Y-105141335D01*
X76620147Y-105418574D01*
X76728320Y-105679727D01*
X76885363Y-105914759D01*
X77085241Y-106114637D01*
X77320273Y-106271680D01*
X77581426Y-106379853D01*
X77858665Y-106435000D01*
X78141335Y-106435000D01*
X78418574Y-106379853D01*
X78679727Y-106271680D01*
X78914759Y-106114637D01*
X79114637Y-105914759D01*
X79271680Y-105679727D01*
X79379853Y-105418574D01*
X79435000Y-105141335D01*
X79435000Y-104858665D01*
X81565000Y-104858665D01*
X81565000Y-105141335D01*
X81620147Y-105418574D01*
X81728320Y-105679727D01*
X81885363Y-105914759D01*
X82085241Y-106114637D01*
X82320273Y-106271680D01*
X82581426Y-106379853D01*
X82858665Y-106435000D01*
X83141335Y-106435000D01*
X83418574Y-106379853D01*
X83679727Y-106271680D01*
X83914759Y-106114637D01*
X84114637Y-105914759D01*
X84271680Y-105679727D01*
X84379853Y-105418574D01*
X84435000Y-105141335D01*
X84435000Y-104858665D01*
X88565000Y-104858665D01*
X88565000Y-105141335D01*
X88620147Y-105418574D01*
X88728320Y-105679727D01*
X88885363Y-105914759D01*
X89085241Y-106114637D01*
X89320273Y-106271680D01*
X89581426Y-106379853D01*
X89858665Y-106435000D01*
X90141335Y-106435000D01*
X90418574Y-106379853D01*
X90679727Y-106271680D01*
X90914759Y-106114637D01*
X91114637Y-105914759D01*
X91271680Y-105679727D01*
X91379853Y-105418574D01*
X91435000Y-105141335D01*
X91435000Y-104858665D01*
X98725000Y-104858665D01*
X98725000Y-105141335D01*
X98780147Y-105418574D01*
X98888320Y-105679727D01*
X99045363Y-105914759D01*
X99245241Y-106114637D01*
X99480273Y-106271680D01*
X99741426Y-106379853D01*
X100018665Y-106435000D01*
X100301335Y-106435000D01*
X100578574Y-106379853D01*
X100839727Y-106271680D01*
X101074759Y-106114637D01*
X101274637Y-105914759D01*
X101431680Y-105679727D01*
X101539853Y-105418574D01*
X101595000Y-105141335D01*
X101595000Y-104858665D01*
X101539853Y-104581426D01*
X101431680Y-104320273D01*
X101274637Y-104085241D01*
X101074759Y-103885363D01*
X100839727Y-103728320D01*
X100578574Y-103620147D01*
X100301335Y-103565000D01*
X100018665Y-103565000D01*
X99741426Y-103620147D01*
X99480273Y-103728320D01*
X99245241Y-103885363D01*
X99045363Y-104085241D01*
X98888320Y-104320273D01*
X98780147Y-104581426D01*
X98725000Y-104858665D01*
X91435000Y-104858665D01*
X91379853Y-104581426D01*
X91271680Y-104320273D01*
X91114637Y-104085241D01*
X90914759Y-103885363D01*
X90679727Y-103728320D01*
X90418574Y-103620147D01*
X90141335Y-103565000D01*
X89858665Y-103565000D01*
X89581426Y-103620147D01*
X89320273Y-103728320D01*
X89085241Y-103885363D01*
X88885363Y-104085241D01*
X88728320Y-104320273D01*
X88620147Y-104581426D01*
X88565000Y-104858665D01*
X84435000Y-104858665D01*
X84379853Y-104581426D01*
X84271680Y-104320273D01*
X84114637Y-104085241D01*
X83914759Y-103885363D01*
X83679727Y-103728320D01*
X83418574Y-103620147D01*
X83141335Y-103565000D01*
X82858665Y-103565000D01*
X82581426Y-103620147D01*
X82320273Y-103728320D01*
X82085241Y-103885363D01*
X81885363Y-104085241D01*
X81728320Y-104320273D01*
X81620147Y-104581426D01*
X81565000Y-104858665D01*
X79435000Y-104858665D01*
X79379853Y-104581426D01*
X79271680Y-104320273D01*
X79114637Y-104085241D01*
X78914759Y-103885363D01*
X78679727Y-103728320D01*
X78418574Y-103620147D01*
X78141335Y-103565000D01*
X77858665Y-103565000D01*
X77581426Y-103620147D01*
X77320273Y-103728320D01*
X77085241Y-103885363D01*
X76885363Y-104085241D01*
X76728320Y-104320273D01*
X76620147Y-104581426D01*
X76565000Y-104858665D01*
X74505000Y-104858665D01*
X74505000Y-104753279D01*
X74408735Y-104269318D01*
X74219903Y-103813437D01*
X73945761Y-103403155D01*
X73596845Y-103054239D01*
X73186563Y-102780097D01*
X72730682Y-102591265D01*
X72246721Y-102495000D01*
X71753279Y-102495000D01*
X71269318Y-102591265D01*
X70813437Y-102780097D01*
X70403155Y-103054239D01*
X70054239Y-103403155D01*
X69780097Y-103813437D01*
X69591265Y-104269318D01*
X69495000Y-104753279D01*
X67710000Y-104753279D01*
X67710000Y-101837489D01*
X111850000Y-101837489D01*
X111850000Y-102162511D01*
X111913408Y-102481287D01*
X112037789Y-102781568D01*
X112218361Y-103051814D01*
X112448186Y-103281639D01*
X112718432Y-103462211D01*
X113018713Y-103586592D01*
X113337489Y-103650000D01*
X113662511Y-103650000D01*
X113981287Y-103586592D01*
X114281568Y-103462211D01*
X114551814Y-103281639D01*
X114781639Y-103051814D01*
X114962211Y-102781568D01*
X115086592Y-102481287D01*
X115150000Y-102162511D01*
X115150000Y-101837489D01*
X115086592Y-101518713D01*
X114962211Y-101218432D01*
X114781639Y-100948186D01*
X114551814Y-100718361D01*
X114281568Y-100537789D01*
X113981287Y-100413408D01*
X113662511Y-100350000D01*
X113337489Y-100350000D01*
X113018713Y-100413408D01*
X112718432Y-100537789D01*
X112448186Y-100718361D01*
X112218361Y-100948186D01*
X112037789Y-101218432D01*
X111913408Y-101518713D01*
X111850000Y-101837489D01*
X67710000Y-101837489D01*
X67710000Y-98755003D01*
X70424602Y-98755003D01*
X70625103Y-99108448D01*
X71062859Y-99336164D01*
X71536629Y-99474102D01*
X72028206Y-99516962D01*
X72518700Y-99463096D01*
X72989259Y-99314575D01*
X73374897Y-99108448D01*
X73575398Y-98755003D01*
X72000000Y-97179605D01*
X70424602Y-98755003D01*
X67710000Y-98755003D01*
X67710000Y-97028206D01*
X69483038Y-97028206D01*
X69536904Y-97518700D01*
X69685425Y-97989259D01*
X69891552Y-98374897D01*
X70244997Y-98575398D01*
X71820395Y-97000000D01*
X72179605Y-97000000D01*
X73755003Y-98575398D01*
X74108448Y-98374897D01*
X74336164Y-97937141D01*
X74474102Y-97463371D01*
X74477230Y-97427484D01*
X83112811Y-97427484D01*
X83193358Y-97693028D01*
X83363275Y-98032170D01*
X83596091Y-98331646D01*
X83882858Y-98579948D01*
X84212556Y-98767533D01*
X84572515Y-98887193D01*
X84873000Y-98772082D01*
X84873000Y-97127000D01*
X85127000Y-97127000D01*
X85127000Y-98772082D01*
X85427485Y-98887193D01*
X85787444Y-98767533D01*
X86117142Y-98579948D01*
X86403909Y-98331646D01*
X86636725Y-98032170D01*
X86806642Y-97693028D01*
X86887189Y-97427484D01*
X86771704Y-97127000D01*
X85127000Y-97127000D01*
X84873000Y-97127000D01*
X83228296Y-97127000D01*
X83112811Y-97427484D01*
X74477230Y-97427484D01*
X74516962Y-96971794D01*
X74473114Y-96572516D01*
X83112811Y-96572516D01*
X83228296Y-96873000D01*
X84873000Y-96873000D01*
X84873000Y-95227918D01*
X85127000Y-95227918D01*
X85127000Y-96873000D01*
X86771704Y-96873000D01*
X86887189Y-96572516D01*
X86806642Y-96306972D01*
X86636725Y-95967830D01*
X86428511Y-95700000D01*
X98301928Y-95700000D01*
X98301928Y-98300000D01*
X98314188Y-98424482D01*
X98350498Y-98544180D01*
X98409463Y-98654494D01*
X98488815Y-98751185D01*
X98585506Y-98830537D01*
X98695820Y-98889502D01*
X98815518Y-98925812D01*
X98940000Y-98938072D01*
X101540000Y-98938072D01*
X101664482Y-98925812D01*
X101724884Y-98907489D01*
X109700000Y-98907489D01*
X109700000Y-99232511D01*
X109763408Y-99551287D01*
X109887789Y-99851568D01*
X110068361Y-100121814D01*
X110298186Y-100351639D01*
X110568432Y-100532211D01*
X110868713Y-100656592D01*
X111187489Y-100720000D01*
X111512511Y-100720000D01*
X111831287Y-100656592D01*
X112131568Y-100532211D01*
X112401814Y-100351639D01*
X112631639Y-100121814D01*
X112812211Y-99851568D01*
X112936592Y-99551287D01*
X113000000Y-99232511D01*
X113000000Y-98907489D01*
X112936592Y-98588713D01*
X112812211Y-98288432D01*
X112631639Y-98018186D01*
X112401814Y-97788361D01*
X112131568Y-97607789D01*
X111831287Y-97483408D01*
X111512511Y-97420000D01*
X111187489Y-97420000D01*
X110868713Y-97483408D01*
X110568432Y-97607789D01*
X110298186Y-97788361D01*
X110068361Y-98018186D01*
X109887789Y-98288432D01*
X109763408Y-98588713D01*
X109700000Y-98907489D01*
X101724884Y-98907489D01*
X101784180Y-98889502D01*
X101894494Y-98830537D01*
X101991185Y-98751185D01*
X102070537Y-98654494D01*
X102129502Y-98544180D01*
X102165812Y-98424482D01*
X102178072Y-98300000D01*
X102178072Y-95700000D01*
X102165812Y-95575518D01*
X102129502Y-95455820D01*
X102070537Y-95345506D01*
X101998304Y-95257489D01*
X109700000Y-95257489D01*
X109700000Y-95582511D01*
X109763408Y-95901287D01*
X109887789Y-96201568D01*
X110068361Y-96471814D01*
X110298186Y-96701639D01*
X110568432Y-96882211D01*
X110868713Y-97006592D01*
X111187489Y-97070000D01*
X111512511Y-97070000D01*
X111831287Y-97006592D01*
X112131568Y-96882211D01*
X112401814Y-96701639D01*
X112631639Y-96471814D01*
X112812211Y-96201568D01*
X112936592Y-95901287D01*
X113000000Y-95582511D01*
X113000000Y-95257489D01*
X112936592Y-94938713D01*
X112812211Y-94638432D01*
X112631639Y-94368186D01*
X112401814Y-94138361D01*
X112131568Y-93957789D01*
X111831287Y-93833408D01*
X111512511Y-93770000D01*
X111187489Y-93770000D01*
X110868713Y-93833408D01*
X110568432Y-93957789D01*
X110298186Y-94138361D01*
X110068361Y-94368186D01*
X109887789Y-94638432D01*
X109763408Y-94938713D01*
X109700000Y-95257489D01*
X101998304Y-95257489D01*
X101991185Y-95248815D01*
X101894494Y-95169463D01*
X101784180Y-95110498D01*
X101664482Y-95074188D01*
X101540000Y-95061928D01*
X98940000Y-95061928D01*
X98815518Y-95074188D01*
X98695820Y-95110498D01*
X98585506Y-95169463D01*
X98488815Y-95248815D01*
X98409463Y-95345506D01*
X98350498Y-95455820D01*
X98314188Y-95575518D01*
X98301928Y-95700000D01*
X86428511Y-95700000D01*
X86403909Y-95668354D01*
X86117142Y-95420052D01*
X85787444Y-95232467D01*
X85427485Y-95112807D01*
X85127000Y-95227918D01*
X84873000Y-95227918D01*
X84572515Y-95112807D01*
X84212556Y-95232467D01*
X83882858Y-95420052D01*
X83596091Y-95668354D01*
X83363275Y-95967830D01*
X83193358Y-96306972D01*
X83112811Y-96572516D01*
X74473114Y-96572516D01*
X74463096Y-96481300D01*
X74314575Y-96010741D01*
X74108448Y-95625103D01*
X73755003Y-95424602D01*
X72179605Y-97000000D01*
X71820395Y-97000000D01*
X70244997Y-95424602D01*
X69891552Y-95625103D01*
X69663836Y-96062859D01*
X69525898Y-96536629D01*
X69483038Y-97028206D01*
X67710000Y-97028206D01*
X67710000Y-95244997D01*
X70424602Y-95244997D01*
X72000000Y-96820395D01*
X73575398Y-95244997D01*
X73374897Y-94891552D01*
X72937141Y-94663836D01*
X72463371Y-94525898D01*
X71971794Y-94483038D01*
X71481300Y-94536904D01*
X71010741Y-94685425D01*
X70625103Y-94891552D01*
X70424602Y-95244997D01*
X67710000Y-95244997D01*
X67710000Y-92327489D01*
X111850000Y-92327489D01*
X111850000Y-92652511D01*
X111913408Y-92971287D01*
X112037789Y-93271568D01*
X112218361Y-93541814D01*
X112448186Y-93771639D01*
X112718432Y-93952211D01*
X113018713Y-94076592D01*
X113337489Y-94140000D01*
X113662511Y-94140000D01*
X113981287Y-94076592D01*
X114281568Y-93952211D01*
X114551814Y-93771639D01*
X114781639Y-93541814D01*
X114962211Y-93271568D01*
X115086592Y-92971287D01*
X115150000Y-92652511D01*
X115150000Y-92327489D01*
X115086592Y-92008713D01*
X114962211Y-91708432D01*
X114781639Y-91438186D01*
X114551814Y-91208361D01*
X114520577Y-91187489D01*
X115300000Y-91187489D01*
X115300000Y-91512511D01*
X115363408Y-91831287D01*
X115487789Y-92131568D01*
X115668361Y-92401814D01*
X115898186Y-92631639D01*
X116168432Y-92812211D01*
X116468713Y-92936592D01*
X116787489Y-93000000D01*
X117112511Y-93000000D01*
X117431287Y-92936592D01*
X117731568Y-92812211D01*
X118001814Y-92631639D01*
X118231639Y-92401814D01*
X118268000Y-92347396D01*
X118268000Y-92700969D01*
X118350316Y-93114798D01*
X118511784Y-93504617D01*
X118746200Y-93855445D01*
X119044555Y-94153800D01*
X119395383Y-94388216D01*
X119785202Y-94549684D01*
X120199031Y-94632000D01*
X120567916Y-94632000D01*
X120500316Y-94795202D01*
X120418000Y-95209031D01*
X120418000Y-95630969D01*
X120500316Y-96044798D01*
X120661784Y-96434617D01*
X120896200Y-96785445D01*
X121194555Y-97083800D01*
X121405876Y-97225000D01*
X121194555Y-97366200D01*
X120896200Y-97664555D01*
X120661784Y-98015383D01*
X120500316Y-98405202D01*
X120418000Y-98819031D01*
X120418000Y-99240969D01*
X120500316Y-99654798D01*
X120661784Y-100044617D01*
X120875857Y-100365000D01*
X120647922Y-100365000D01*
X120572511Y-100350000D01*
X120247489Y-100350000D01*
X119928713Y-100413408D01*
X119628432Y-100537789D01*
X119358186Y-100718361D01*
X119128361Y-100948186D01*
X118947789Y-101218432D01*
X118823408Y-101518713D01*
X118760000Y-101837489D01*
X118760000Y-102162511D01*
X118823408Y-102481287D01*
X118947789Y-102781568D01*
X119128361Y-103051814D01*
X119358186Y-103281639D01*
X119628432Y-103462211D01*
X119928713Y-103586592D01*
X120247489Y-103650000D01*
X120572511Y-103650000D01*
X120647922Y-103635000D01*
X124919681Y-103635000D01*
X125000000Y-103642911D01*
X125080319Y-103635000D01*
X125080322Y-103635000D01*
X125320516Y-103611343D01*
X125628715Y-103517852D01*
X125912752Y-103366031D01*
X126161714Y-103161714D01*
X126212925Y-103099313D01*
X128099320Y-101212919D01*
X128161714Y-101161714D01*
X128366031Y-100912752D01*
X128477172Y-100704821D01*
X143003000Y-100704821D01*
X143003000Y-101295179D01*
X143118173Y-101874193D01*
X143344093Y-102419612D01*
X143672078Y-102910476D01*
X144089524Y-103327922D01*
X144373000Y-103517335D01*
X144373001Y-112251817D01*
X144366629Y-112253750D01*
X144170843Y-112358400D01*
X143999235Y-112499235D01*
X143858400Y-112670843D01*
X143753750Y-112866629D01*
X143689307Y-113079069D01*
X143667547Y-113300000D01*
X143667547Y-115700000D01*
X143689307Y-115920931D01*
X143753750Y-116133371D01*
X143858400Y-116329157D01*
X143999235Y-116500765D01*
X144170843Y-116641600D01*
X144366629Y-116746250D01*
X144579069Y-116810693D01*
X144800000Y-116832453D01*
X147200000Y-116832453D01*
X147420931Y-116810693D01*
X147633371Y-116746250D01*
X147829157Y-116641600D01*
X147852692Y-116622285D01*
X158165000Y-116622285D01*
X158165000Y-117377715D01*
X158312377Y-118118628D01*
X158601467Y-118816554D01*
X159021161Y-119444670D01*
X159555330Y-119978839D01*
X160183446Y-120398533D01*
X160881372Y-120687623D01*
X161622285Y-120835000D01*
X162377715Y-120835000D01*
X163118628Y-120687623D01*
X163816554Y-120398533D01*
X164444670Y-119978839D01*
X164978839Y-119444670D01*
X165398533Y-118816554D01*
X165687623Y-118118628D01*
X165835000Y-117377715D01*
X165835000Y-116622285D01*
X165687623Y-115881372D01*
X165398533Y-115183446D01*
X164978839Y-114555330D01*
X164444670Y-114021161D01*
X163816554Y-113601467D01*
X163118628Y-113312377D01*
X162377715Y-113165000D01*
X161622285Y-113165000D01*
X160881372Y-113312377D01*
X160183446Y-113601467D01*
X159555330Y-114021161D01*
X159021161Y-114555330D01*
X158601467Y-115183446D01*
X158312377Y-115881372D01*
X158165000Y-116622285D01*
X147852692Y-116622285D01*
X148000765Y-116500765D01*
X148141600Y-116329157D01*
X148246250Y-116133371D01*
X148310693Y-115920931D01*
X148324772Y-115777980D01*
X149901626Y-115777980D01*
X150021514Y-116062836D01*
X150345210Y-116223699D01*
X150694069Y-116318322D01*
X151054684Y-116343067D01*
X151413198Y-116296985D01*
X151755833Y-116181846D01*
X151978486Y-116062836D01*
X152098374Y-115777980D01*
X151000000Y-114679605D01*
X149901626Y-115777980D01*
X148324772Y-115777980D01*
X148332453Y-115700000D01*
X148332453Y-114554684D01*
X149156933Y-114554684D01*
X149203015Y-114913198D01*
X149318154Y-115255833D01*
X149437164Y-115478486D01*
X149722020Y-115598374D01*
X150820395Y-114500000D01*
X151179605Y-114500000D01*
X152277980Y-115598374D01*
X152562836Y-115478486D01*
X152723699Y-115154790D01*
X152818322Y-114805931D01*
X152843067Y-114445316D01*
X152796985Y-114086802D01*
X152681846Y-113744167D01*
X152562836Y-113521514D01*
X152277980Y-113401626D01*
X151179605Y-114500000D01*
X150820395Y-114500000D01*
X149722020Y-113401626D01*
X149437164Y-113521514D01*
X149276301Y-113845210D01*
X149181678Y-114194069D01*
X149156933Y-114554684D01*
X148332453Y-114554684D01*
X148332453Y-113300000D01*
X148324773Y-113222020D01*
X149901626Y-113222020D01*
X151000000Y-114320395D01*
X152098374Y-113222020D01*
X151978486Y-112937164D01*
X151654790Y-112776301D01*
X151305931Y-112681678D01*
X150945316Y-112656933D01*
X150586802Y-112703015D01*
X150244167Y-112818154D01*
X150021514Y-112937164D01*
X149901626Y-113222020D01*
X148324773Y-113222020D01*
X148310693Y-113079069D01*
X148246250Y-112866629D01*
X148141600Y-112670843D01*
X148000765Y-112499235D01*
X147829157Y-112358400D01*
X147633371Y-112253750D01*
X147627000Y-112251817D01*
X147627000Y-108704821D01*
X159003000Y-108704821D01*
X159003000Y-109295179D01*
X159118173Y-109874193D01*
X159344093Y-110419612D01*
X159672078Y-110910476D01*
X160089524Y-111327922D01*
X160580388Y-111655907D01*
X161125807Y-111881827D01*
X161704821Y-111997000D01*
X162295179Y-111997000D01*
X162874193Y-111881827D01*
X163419612Y-111655907D01*
X163910476Y-111327922D01*
X164327922Y-110910476D01*
X164655907Y-110419612D01*
X164881827Y-109874193D01*
X164997000Y-109295179D01*
X164997000Y-108704821D01*
X164881827Y-108125807D01*
X164655907Y-107580388D01*
X164327922Y-107089524D01*
X163910476Y-106672078D01*
X163419612Y-106344093D01*
X162874193Y-106118173D01*
X162295179Y-106003000D01*
X161704821Y-106003000D01*
X161125807Y-106118173D01*
X160580388Y-106344093D01*
X160089524Y-106672078D01*
X159672078Y-107089524D01*
X159344093Y-107580388D01*
X159118173Y-108125807D01*
X159003000Y-108704821D01*
X147627000Y-108704821D01*
X147627000Y-106755003D01*
X152424602Y-106755003D01*
X152625103Y-107108448D01*
X153062859Y-107336164D01*
X153536629Y-107474102D01*
X154028206Y-107516962D01*
X154518700Y-107463096D01*
X154989259Y-107314575D01*
X155374897Y-107108448D01*
X155575398Y-106755003D01*
X154000000Y-105179605D01*
X152424602Y-106755003D01*
X147627000Y-106755003D01*
X147627000Y-105028206D01*
X151483038Y-105028206D01*
X151536904Y-105518700D01*
X151685425Y-105989259D01*
X151891552Y-106374897D01*
X152244997Y-106575398D01*
X153820395Y-105000000D01*
X154179605Y-105000000D01*
X155755003Y-106575398D01*
X156108448Y-106374897D01*
X156336164Y-105937141D01*
X156474102Y-105463371D01*
X156516962Y-104971794D01*
X156463096Y-104481300D01*
X156314575Y-104010741D01*
X156108448Y-103625103D01*
X155755003Y-103424602D01*
X154179605Y-105000000D01*
X153820395Y-105000000D01*
X152244997Y-103424602D01*
X151891552Y-103625103D01*
X151663836Y-104062859D01*
X151525898Y-104536629D01*
X151483038Y-105028206D01*
X147627000Y-105028206D01*
X147627000Y-103517335D01*
X147910476Y-103327922D01*
X147993401Y-103244997D01*
X152424602Y-103244997D01*
X154000000Y-104820395D01*
X155575398Y-103244997D01*
X155374897Y-102891552D01*
X154937141Y-102663836D01*
X154463371Y-102525898D01*
X153971794Y-102483038D01*
X153481300Y-102536904D01*
X153010741Y-102685425D01*
X152625103Y-102891552D01*
X152424602Y-103244997D01*
X147993401Y-103244997D01*
X148327922Y-102910476D01*
X148655907Y-102419612D01*
X148881827Y-101874193D01*
X148997000Y-101295179D01*
X148997000Y-100704821D01*
X159003000Y-100704821D01*
X159003000Y-101295179D01*
X159118173Y-101874193D01*
X159344093Y-102419612D01*
X159672078Y-102910476D01*
X160089524Y-103327922D01*
X160580388Y-103655907D01*
X161125807Y-103881827D01*
X161704821Y-103997000D01*
X162295179Y-103997000D01*
X162874193Y-103881827D01*
X163419612Y-103655907D01*
X163910476Y-103327922D01*
X164327922Y-102910476D01*
X164655907Y-102419612D01*
X164881827Y-101874193D01*
X164997000Y-101295179D01*
X164997000Y-100704821D01*
X164881827Y-100125807D01*
X164655907Y-99580388D01*
X164327922Y-99089524D01*
X163910476Y-98672078D01*
X163419612Y-98344093D01*
X162874193Y-98118173D01*
X162295179Y-98003000D01*
X161704821Y-98003000D01*
X161125807Y-98118173D01*
X160580388Y-98344093D01*
X160089524Y-98672078D01*
X159672078Y-99089524D01*
X159344093Y-99580388D01*
X159118173Y-100125807D01*
X159003000Y-100704821D01*
X148997000Y-100704821D01*
X148881827Y-100125807D01*
X148655907Y-99580388D01*
X148327922Y-99089524D01*
X147993401Y-98755003D01*
X152424602Y-98755003D01*
X152625103Y-99108448D01*
X153062859Y-99336164D01*
X153536629Y-99474102D01*
X154028206Y-99516962D01*
X154518700Y-99463096D01*
X154989259Y-99314575D01*
X155374897Y-99108448D01*
X155575398Y-98755003D01*
X154000000Y-97179605D01*
X152424602Y-98755003D01*
X147993401Y-98755003D01*
X147910476Y-98672078D01*
X147419612Y-98344093D01*
X146874193Y-98118173D01*
X146295179Y-98003000D01*
X145704821Y-98003000D01*
X145125807Y-98118173D01*
X144580388Y-98344093D01*
X144089524Y-98672078D01*
X143672078Y-99089524D01*
X143344093Y-99580388D01*
X143118173Y-100125807D01*
X143003000Y-100704821D01*
X128477172Y-100704821D01*
X128517852Y-100628715D01*
X128611343Y-100320516D01*
X128635000Y-100080322D01*
X128635000Y-100080320D01*
X128642911Y-100000001D01*
X128635000Y-99919681D01*
X128635000Y-95125016D01*
X128640261Y-95090811D01*
X128673000Y-95090811D01*
X128673000Y-95549189D01*
X128762426Y-95998761D01*
X128937840Y-96422248D01*
X129192501Y-96803376D01*
X129516624Y-97127499D01*
X129897752Y-97382160D01*
X130321239Y-97557574D01*
X130770811Y-97647000D01*
X131229189Y-97647000D01*
X131678761Y-97557574D01*
X132102248Y-97382160D01*
X132483376Y-97127499D01*
X132582669Y-97028206D01*
X151483038Y-97028206D01*
X151536904Y-97518700D01*
X151685425Y-97989259D01*
X151891552Y-98374897D01*
X152244997Y-98575398D01*
X153820395Y-97000000D01*
X154179605Y-97000000D01*
X155755003Y-98575398D01*
X156108448Y-98374897D01*
X156336164Y-97937141D01*
X156474102Y-97463371D01*
X156516962Y-96971794D01*
X156463096Y-96481300D01*
X156314575Y-96010741D01*
X156108448Y-95625103D01*
X155755003Y-95424602D01*
X154179605Y-97000000D01*
X153820395Y-97000000D01*
X152244997Y-95424602D01*
X151891552Y-95625103D01*
X151663836Y-96062859D01*
X151525898Y-96536629D01*
X151483038Y-97028206D01*
X132582669Y-97028206D01*
X132807499Y-96803376D01*
X133062160Y-96422248D01*
X133237574Y-95998761D01*
X133327000Y-95549189D01*
X133327000Y-95090811D01*
X133237574Y-94641239D01*
X133062160Y-94217752D01*
X132883797Y-93950811D01*
X135173000Y-93950811D01*
X135173000Y-94409189D01*
X135262426Y-94858761D01*
X135437840Y-95282248D01*
X135692501Y-95663376D01*
X136016624Y-95987499D01*
X136397752Y-96242160D01*
X136821239Y-96417574D01*
X137270811Y-96507000D01*
X137729189Y-96507000D01*
X138178761Y-96417574D01*
X138602248Y-96242160D01*
X138983376Y-95987499D01*
X139307499Y-95663376D01*
X139562160Y-95282248D01*
X139737574Y-94858761D01*
X139827000Y-94409189D01*
X139827000Y-93950811D01*
X139737574Y-93501239D01*
X139562160Y-93077752D01*
X139312977Y-92704821D01*
X143003000Y-92704821D01*
X143003000Y-93295179D01*
X143118173Y-93874193D01*
X143344093Y-94419612D01*
X143672078Y-94910476D01*
X144089524Y-95327922D01*
X144580388Y-95655907D01*
X145125807Y-95881827D01*
X145704821Y-95997000D01*
X146295179Y-95997000D01*
X146874193Y-95881827D01*
X147419612Y-95655907D01*
X147910476Y-95327922D01*
X147993401Y-95244997D01*
X152424602Y-95244997D01*
X154000000Y-96820395D01*
X155575398Y-95244997D01*
X155374897Y-94891552D01*
X154937141Y-94663836D01*
X154463371Y-94525898D01*
X153971794Y-94483038D01*
X153481300Y-94536904D01*
X153010741Y-94685425D01*
X152625103Y-94891552D01*
X152424602Y-95244997D01*
X147993401Y-95244997D01*
X148327922Y-94910476D01*
X148655907Y-94419612D01*
X148881827Y-93874193D01*
X148997000Y-93295179D01*
X148997000Y-92704821D01*
X159003000Y-92704821D01*
X159003000Y-93295179D01*
X159118173Y-93874193D01*
X159344093Y-94419612D01*
X159672078Y-94910476D01*
X160089524Y-95327922D01*
X160580388Y-95655907D01*
X161125807Y-95881827D01*
X161704821Y-95997000D01*
X162295179Y-95997000D01*
X162874193Y-95881827D01*
X163419612Y-95655907D01*
X163910476Y-95327922D01*
X164327922Y-94910476D01*
X164655907Y-94419612D01*
X164881827Y-93874193D01*
X164997000Y-93295179D01*
X164997000Y-92704821D01*
X164881827Y-92125807D01*
X164655907Y-91580388D01*
X164327922Y-91089524D01*
X163910476Y-90672078D01*
X163419612Y-90344093D01*
X162874193Y-90118173D01*
X162295179Y-90003000D01*
X161704821Y-90003000D01*
X161125807Y-90118173D01*
X160580388Y-90344093D01*
X160089524Y-90672078D01*
X159672078Y-91089524D01*
X159344093Y-91580388D01*
X159118173Y-92125807D01*
X159003000Y-92704821D01*
X148997000Y-92704821D01*
X148881827Y-92125807D01*
X148655907Y-91580388D01*
X148327922Y-91089524D01*
X147993401Y-90755003D01*
X152424602Y-90755003D01*
X152625103Y-91108448D01*
X153062859Y-91336164D01*
X153536629Y-91474102D01*
X154028206Y-91516962D01*
X154518700Y-91463096D01*
X154989259Y-91314575D01*
X155374897Y-91108448D01*
X155575398Y-90755003D01*
X154000000Y-89179605D01*
X152424602Y-90755003D01*
X147993401Y-90755003D01*
X147910476Y-90672078D01*
X147419612Y-90344093D01*
X146874193Y-90118173D01*
X146295179Y-90003000D01*
X145704821Y-90003000D01*
X145125807Y-90118173D01*
X144580388Y-90344093D01*
X144089524Y-90672078D01*
X143672078Y-91089524D01*
X143344093Y-91580388D01*
X143118173Y-92125807D01*
X143003000Y-92704821D01*
X139312977Y-92704821D01*
X139307499Y-92696624D01*
X139127000Y-92516125D01*
X139127000Y-89028206D01*
X151483038Y-89028206D01*
X151536904Y-89518700D01*
X151685425Y-89989259D01*
X151891552Y-90374897D01*
X152244997Y-90575398D01*
X153820395Y-89000000D01*
X154179605Y-89000000D01*
X155755003Y-90575398D01*
X156108448Y-90374897D01*
X156336164Y-89937141D01*
X156474102Y-89463371D01*
X156516962Y-88971794D01*
X156463096Y-88481300D01*
X156314575Y-88010741D01*
X156108448Y-87625103D01*
X155755003Y-87424602D01*
X154179605Y-89000000D01*
X153820395Y-89000000D01*
X152244997Y-87424602D01*
X151891552Y-87625103D01*
X151663836Y-88062859D01*
X151525898Y-88536629D01*
X151483038Y-89028206D01*
X139127000Y-89028206D01*
X139127000Y-88673925D01*
X140555928Y-87244997D01*
X152424602Y-87244997D01*
X154000000Y-88820395D01*
X155575398Y-87244997D01*
X155374897Y-86891552D01*
X154937141Y-86663836D01*
X154463371Y-86525898D01*
X153971794Y-86483038D01*
X153481300Y-86536904D01*
X153010741Y-86685425D01*
X152625103Y-86891552D01*
X152424602Y-87244997D01*
X140555928Y-87244997D01*
X143096104Y-84704821D01*
X159003000Y-84704821D01*
X159003000Y-85295179D01*
X159118173Y-85874193D01*
X159344093Y-86419612D01*
X159672078Y-86910476D01*
X160089524Y-87327922D01*
X160580388Y-87655907D01*
X161125807Y-87881827D01*
X161704821Y-87997000D01*
X162295179Y-87997000D01*
X162874193Y-87881827D01*
X163419612Y-87655907D01*
X163910476Y-87327922D01*
X164327922Y-86910476D01*
X164655907Y-86419612D01*
X164881827Y-85874193D01*
X164997000Y-85295179D01*
X164997000Y-84704821D01*
X164881827Y-84125807D01*
X164655907Y-83580388D01*
X164327922Y-83089524D01*
X163910476Y-82672078D01*
X163419612Y-82344093D01*
X162874193Y-82118173D01*
X162295179Y-82003000D01*
X161704821Y-82003000D01*
X161125807Y-82118173D01*
X160580388Y-82344093D01*
X160089524Y-82672078D01*
X159672078Y-83089524D01*
X159344093Y-83580388D01*
X159118173Y-84125807D01*
X159003000Y-84704821D01*
X143096104Y-84704821D01*
X145968473Y-81832453D01*
X147200000Y-81832453D01*
X147420931Y-81810693D01*
X147633371Y-81746250D01*
X147829157Y-81641600D01*
X148000765Y-81500765D01*
X148141600Y-81329157D01*
X148246250Y-81133371D01*
X148310693Y-80920931D01*
X148324772Y-80777980D01*
X149901626Y-80777980D01*
X150021514Y-81062836D01*
X150345210Y-81223699D01*
X150694069Y-81318322D01*
X151054684Y-81343067D01*
X151413198Y-81296985D01*
X151755833Y-81181846D01*
X151978486Y-81062836D01*
X152098374Y-80777980D01*
X151000000Y-79679605D01*
X149901626Y-80777980D01*
X148324772Y-80777980D01*
X148332453Y-80700000D01*
X148332453Y-79554684D01*
X149156933Y-79554684D01*
X149203015Y-79913198D01*
X149318154Y-80255833D01*
X149437164Y-80478486D01*
X149722020Y-80598374D01*
X150820395Y-79500000D01*
X151179605Y-79500000D01*
X152277980Y-80598374D01*
X152562836Y-80478486D01*
X152723699Y-80154790D01*
X152818322Y-79805931D01*
X152843067Y-79445316D01*
X152796985Y-79086802D01*
X152681846Y-78744167D01*
X152562836Y-78521514D01*
X152277980Y-78401626D01*
X151179605Y-79500000D01*
X150820395Y-79500000D01*
X149722020Y-78401626D01*
X149437164Y-78521514D01*
X149276301Y-78845210D01*
X149181678Y-79194069D01*
X149156933Y-79554684D01*
X148332453Y-79554684D01*
X148332453Y-78300000D01*
X148324773Y-78222020D01*
X149901626Y-78222020D01*
X151000000Y-79320395D01*
X152098374Y-78222020D01*
X151978486Y-77937164D01*
X151654790Y-77776301D01*
X151305931Y-77681678D01*
X150945316Y-77656933D01*
X150586802Y-77703015D01*
X150244167Y-77818154D01*
X150021514Y-77937164D01*
X149901626Y-78222020D01*
X148324773Y-78222020D01*
X148310693Y-78079069D01*
X148246250Y-77866629D01*
X148141600Y-77670843D01*
X148000765Y-77499235D01*
X147829157Y-77358400D01*
X147633371Y-77253750D01*
X147420931Y-77189307D01*
X147200000Y-77167547D01*
X144800000Y-77167547D01*
X144579069Y-77189307D01*
X144366629Y-77253750D01*
X144170843Y-77358400D01*
X143999235Y-77499235D01*
X143858400Y-77670843D01*
X143753750Y-77866629D01*
X143689307Y-78079069D01*
X143667547Y-78300000D01*
X143667547Y-79531527D01*
X136406050Y-86793025D01*
X136343972Y-86843971D01*
X136293026Y-86906049D01*
X136293022Y-86906053D01*
X136171410Y-87054239D01*
X136140655Y-87091714D01*
X135989576Y-87374362D01*
X135896543Y-87681052D01*
X135883504Y-87813437D01*
X135865129Y-88000000D01*
X135873001Y-88079924D01*
X135873000Y-92516125D01*
X135692501Y-92696624D01*
X135437840Y-93077752D01*
X135262426Y-93501239D01*
X135173000Y-93950811D01*
X132883797Y-93950811D01*
X132807499Y-93836624D01*
X132483376Y-93512501D01*
X132102248Y-93257840D01*
X131678761Y-93082426D01*
X131229189Y-92993000D01*
X130770811Y-92993000D01*
X130321239Y-93082426D01*
X129897752Y-93257840D01*
X129516624Y-93512501D01*
X129192501Y-93836624D01*
X128937840Y-94217752D01*
X128762426Y-94641239D01*
X128673000Y-95090811D01*
X128640261Y-95090811D01*
X128640476Y-95089417D01*
X128635000Y-94964251D01*
X128635000Y-94919678D01*
X128631491Y-94884054D01*
X128626399Y-94767657D01*
X128615738Y-94724105D01*
X128611343Y-94679484D01*
X128577522Y-94567992D01*
X128549820Y-94454826D01*
X128530868Y-94414192D01*
X128517852Y-94371285D01*
X128462931Y-94268534D01*
X128413683Y-94162947D01*
X128387167Y-94126791D01*
X128366031Y-94087248D01*
X128292115Y-93997181D01*
X128223218Y-93903235D01*
X128190162Y-93872950D01*
X128161714Y-93838286D01*
X128071643Y-93764367D01*
X128045257Y-93740193D01*
X128009607Y-93713455D01*
X127912752Y-93633969D01*
X127880986Y-93616990D01*
X126635000Y-92682500D01*
X126635000Y-78907606D01*
X126945761Y-78596845D01*
X127219903Y-78186563D01*
X127408735Y-77730682D01*
X127505000Y-77246721D01*
X127505000Y-76753279D01*
X127408735Y-76269318D01*
X127219903Y-75813437D01*
X126945761Y-75403155D01*
X126596845Y-75054239D01*
X126186563Y-74780097D01*
X125730682Y-74591265D01*
X125246721Y-74495000D01*
X124753279Y-74495000D01*
X124269318Y-74591265D01*
X123813437Y-74780097D01*
X123403155Y-75054239D01*
X123054239Y-75403155D01*
X122780097Y-75813437D01*
X122591265Y-76269318D01*
X122495000Y-76753279D01*
X122495000Y-77246721D01*
X122591265Y-77730682D01*
X122780097Y-78186563D01*
X123054239Y-78596845D01*
X123365001Y-78907607D01*
X123365000Y-93374985D01*
X123359524Y-93410584D01*
X123360509Y-93433098D01*
X123184798Y-93360316D01*
X122770969Y-93278000D01*
X122402084Y-93278000D01*
X122469684Y-93114798D01*
X122552000Y-92700969D01*
X122552000Y-92279031D01*
X122469684Y-91865202D01*
X122308216Y-91475383D01*
X122073800Y-91124555D01*
X121775445Y-90826200D01*
X121424617Y-90591784D01*
X121034798Y-90430316D01*
X120620969Y-90348000D01*
X120199031Y-90348000D01*
X119785202Y-90430316D01*
X119395383Y-90591784D01*
X119044555Y-90826200D01*
X118746200Y-91124555D01*
X118600000Y-91343359D01*
X118600000Y-91187489D01*
X118536592Y-90868713D01*
X118412211Y-90568432D01*
X118231639Y-90298186D01*
X118001814Y-90068361D01*
X117731568Y-89887789D01*
X117431287Y-89763408D01*
X117112511Y-89700000D01*
X116787489Y-89700000D01*
X116468713Y-89763408D01*
X116168432Y-89887789D01*
X115898186Y-90068361D01*
X115668361Y-90298186D01*
X115487789Y-90568432D01*
X115363408Y-90868713D01*
X115300000Y-91187489D01*
X114520577Y-91187489D01*
X114281568Y-91027789D01*
X113981287Y-90903408D01*
X113662511Y-90840000D01*
X113337489Y-90840000D01*
X113018713Y-90903408D01*
X112718432Y-91027789D01*
X112448186Y-91208361D01*
X112218361Y-91438186D01*
X112037789Y-91708432D01*
X111913408Y-92008713D01*
X111850000Y-92327489D01*
X67710000Y-92327489D01*
X67710000Y-88753279D01*
X69495000Y-88753279D01*
X69495000Y-89246721D01*
X69591265Y-89730682D01*
X69780097Y-90186563D01*
X70054239Y-90596845D01*
X70403155Y-90945761D01*
X70813437Y-91219903D01*
X71269318Y-91408735D01*
X71753279Y-91505000D01*
X72246721Y-91505000D01*
X72730682Y-91408735D01*
X73186563Y-91219903D01*
X73596845Y-90945761D01*
X73945761Y-90596845D01*
X74219903Y-90186563D01*
X74408735Y-89730682D01*
X74505000Y-89246721D01*
X74505000Y-88858665D01*
X76565000Y-88858665D01*
X76565000Y-89141335D01*
X76620147Y-89418574D01*
X76728320Y-89679727D01*
X76885363Y-89914759D01*
X77085241Y-90114637D01*
X77320273Y-90271680D01*
X77581426Y-90379853D01*
X77858665Y-90435000D01*
X78141335Y-90435000D01*
X78418574Y-90379853D01*
X78679727Y-90271680D01*
X78914759Y-90114637D01*
X79114637Y-89914759D01*
X79271680Y-89679727D01*
X79379853Y-89418574D01*
X79435000Y-89141335D01*
X79435000Y-88858665D01*
X81565000Y-88858665D01*
X81565000Y-89141335D01*
X81620147Y-89418574D01*
X81728320Y-89679727D01*
X81885363Y-89914759D01*
X82085241Y-90114637D01*
X82320273Y-90271680D01*
X82581426Y-90379853D01*
X82858665Y-90435000D01*
X83141335Y-90435000D01*
X83418574Y-90379853D01*
X83679727Y-90271680D01*
X83914759Y-90114637D01*
X84114637Y-89914759D01*
X84271680Y-89679727D01*
X84379853Y-89418574D01*
X84435000Y-89141335D01*
X84435000Y-88858665D01*
X88565000Y-88858665D01*
X88565000Y-89141335D01*
X88620147Y-89418574D01*
X88728320Y-89679727D01*
X88885363Y-89914759D01*
X89085241Y-90114637D01*
X89320273Y-90271680D01*
X89581426Y-90379853D01*
X89858665Y-90435000D01*
X90141335Y-90435000D01*
X90418574Y-90379853D01*
X90679727Y-90271680D01*
X90914759Y-90114637D01*
X91114637Y-89914759D01*
X91271680Y-89679727D01*
X91379853Y-89418574D01*
X91435000Y-89141335D01*
X91435000Y-88858665D01*
X98725000Y-88858665D01*
X98725000Y-89141335D01*
X98780147Y-89418574D01*
X98888320Y-89679727D01*
X99045363Y-89914759D01*
X99245241Y-90114637D01*
X99480273Y-90271680D01*
X99741426Y-90379853D01*
X100018665Y-90435000D01*
X100301335Y-90435000D01*
X100578574Y-90379853D01*
X100839727Y-90271680D01*
X101074759Y-90114637D01*
X101274637Y-89914759D01*
X101431680Y-89679727D01*
X101539853Y-89418574D01*
X101595000Y-89141335D01*
X101595000Y-88858665D01*
X101539853Y-88581426D01*
X101431680Y-88320273D01*
X101274637Y-88085241D01*
X101074759Y-87885363D01*
X100839727Y-87728320D01*
X100578574Y-87620147D01*
X100301335Y-87565000D01*
X100018665Y-87565000D01*
X99741426Y-87620147D01*
X99480273Y-87728320D01*
X99245241Y-87885363D01*
X99045363Y-88085241D01*
X98888320Y-88320273D01*
X98780147Y-88581426D01*
X98725000Y-88858665D01*
X91435000Y-88858665D01*
X91379853Y-88581426D01*
X91271680Y-88320273D01*
X91114637Y-88085241D01*
X90914759Y-87885363D01*
X90679727Y-87728320D01*
X90418574Y-87620147D01*
X90141335Y-87565000D01*
X89858665Y-87565000D01*
X89581426Y-87620147D01*
X89320273Y-87728320D01*
X89085241Y-87885363D01*
X88885363Y-88085241D01*
X88728320Y-88320273D01*
X88620147Y-88581426D01*
X88565000Y-88858665D01*
X84435000Y-88858665D01*
X84379853Y-88581426D01*
X84271680Y-88320273D01*
X84114637Y-88085241D01*
X83914759Y-87885363D01*
X83679727Y-87728320D01*
X83418574Y-87620147D01*
X83141335Y-87565000D01*
X82858665Y-87565000D01*
X82581426Y-87620147D01*
X82320273Y-87728320D01*
X82085241Y-87885363D01*
X81885363Y-88085241D01*
X81728320Y-88320273D01*
X81620147Y-88581426D01*
X81565000Y-88858665D01*
X79435000Y-88858665D01*
X79379853Y-88581426D01*
X79271680Y-88320273D01*
X79114637Y-88085241D01*
X78914759Y-87885363D01*
X78679727Y-87728320D01*
X78418574Y-87620147D01*
X78141335Y-87565000D01*
X77858665Y-87565000D01*
X77581426Y-87620147D01*
X77320273Y-87728320D01*
X77085241Y-87885363D01*
X76885363Y-88085241D01*
X76728320Y-88320273D01*
X76620147Y-88581426D01*
X76565000Y-88858665D01*
X74505000Y-88858665D01*
X74505000Y-88753279D01*
X74408735Y-88269318D01*
X74219903Y-87813437D01*
X73945761Y-87403155D01*
X73596845Y-87054239D01*
X73186563Y-86780097D01*
X72730682Y-86591265D01*
X72246721Y-86495000D01*
X71753279Y-86495000D01*
X71269318Y-86591265D01*
X70813437Y-86780097D01*
X70403155Y-87054239D01*
X70054239Y-87403155D01*
X69780097Y-87813437D01*
X69591265Y-88269318D01*
X69495000Y-88753279D01*
X67710000Y-88753279D01*
X67710000Y-83858665D01*
X83405000Y-83858665D01*
X83405000Y-84141335D01*
X83460147Y-84418574D01*
X83568320Y-84679727D01*
X83725363Y-84914759D01*
X83925241Y-85114637D01*
X84160273Y-85271680D01*
X84421426Y-85379853D01*
X84698665Y-85435000D01*
X84981335Y-85435000D01*
X85258574Y-85379853D01*
X85519727Y-85271680D01*
X85754759Y-85114637D01*
X85954637Y-84914759D01*
X86111680Y-84679727D01*
X86219853Y-84418574D01*
X86275000Y-84141335D01*
X86275000Y-83858665D01*
X93565000Y-83858665D01*
X93565000Y-84141335D01*
X93620147Y-84418574D01*
X93728320Y-84679727D01*
X93885363Y-84914759D01*
X94085241Y-85114637D01*
X94320273Y-85271680D01*
X94581426Y-85379853D01*
X94858665Y-85435000D01*
X95141335Y-85435000D01*
X95418574Y-85379853D01*
X95679727Y-85271680D01*
X95914759Y-85114637D01*
X96114637Y-84914759D01*
X96271680Y-84679727D01*
X96379853Y-84418574D01*
X96435000Y-84141335D01*
X96435000Y-83858665D01*
X96379853Y-83581426D01*
X96271680Y-83320273D01*
X96114637Y-83085241D01*
X95914759Y-82885363D01*
X95679727Y-82728320D01*
X95418574Y-82620147D01*
X95141335Y-82565000D01*
X94858665Y-82565000D01*
X94581426Y-82620147D01*
X94320273Y-82728320D01*
X94085241Y-82885363D01*
X93885363Y-83085241D01*
X93728320Y-83320273D01*
X93620147Y-83581426D01*
X93565000Y-83858665D01*
X86275000Y-83858665D01*
X86219853Y-83581426D01*
X86111680Y-83320273D01*
X85954637Y-83085241D01*
X85754759Y-82885363D01*
X85519727Y-82728320D01*
X85258574Y-82620147D01*
X84981335Y-82565000D01*
X84698665Y-82565000D01*
X84421426Y-82620147D01*
X84160273Y-82728320D01*
X83925241Y-82885363D01*
X83725363Y-83085241D01*
X83568320Y-83320273D01*
X83460147Y-83581426D01*
X83405000Y-83858665D01*
X67710000Y-83858665D01*
X67710000Y-76622285D01*
X68165000Y-76622285D01*
X68165000Y-77377715D01*
X68312377Y-78118628D01*
X68601467Y-78816554D01*
X69021161Y-79444670D01*
X69555330Y-79978839D01*
X70183446Y-80398533D01*
X70881372Y-80687623D01*
X71622285Y-80835000D01*
X72377715Y-80835000D01*
X73118628Y-80687623D01*
X73816554Y-80398533D01*
X74444670Y-79978839D01*
X74978839Y-79444670D01*
X75398533Y-78816554D01*
X75424028Y-78755003D01*
X79424602Y-78755003D01*
X79625103Y-79108448D01*
X80062859Y-79336164D01*
X80536629Y-79474102D01*
X81028206Y-79516962D01*
X81518700Y-79463096D01*
X81989259Y-79314575D01*
X82374897Y-79108448D01*
X82575398Y-78755003D01*
X81000000Y-77179605D01*
X79424602Y-78755003D01*
X75424028Y-78755003D01*
X75687623Y-78118628D01*
X75835000Y-77377715D01*
X75835000Y-77028206D01*
X78483038Y-77028206D01*
X78536904Y-77518700D01*
X78685425Y-77989259D01*
X78891552Y-78374897D01*
X79244997Y-78575398D01*
X80820395Y-77000000D01*
X81179605Y-77000000D01*
X82755003Y-78575398D01*
X83108448Y-78374897D01*
X83336164Y-77937141D01*
X83336624Y-77935560D01*
X91664045Y-77935560D01*
X91725932Y-78171368D01*
X91967790Y-78284266D01*
X92227027Y-78347811D01*
X92493680Y-78359561D01*
X92757501Y-78319063D01*
X93008353Y-78227875D01*
X93114068Y-78171368D01*
X93175955Y-77935560D01*
X92420000Y-77179605D01*
X91664045Y-77935560D01*
X83336624Y-77935560D01*
X83474102Y-77463371D01*
X83508078Y-77073680D01*
X91060439Y-77073680D01*
X91100937Y-77337501D01*
X91192125Y-77588353D01*
X91248632Y-77694068D01*
X91484440Y-77755955D01*
X92240395Y-77000000D01*
X92599605Y-77000000D01*
X93355560Y-77755955D01*
X93591368Y-77694068D01*
X93691764Y-77478993D01*
X93759215Y-77641833D01*
X93907503Y-77863762D01*
X94096238Y-78052497D01*
X94318167Y-78200785D01*
X94564761Y-78302928D01*
X94826544Y-78355000D01*
X95093456Y-78355000D01*
X95355239Y-78302928D01*
X95601833Y-78200785D01*
X95823762Y-78052497D01*
X96012497Y-77863762D01*
X96160785Y-77641833D01*
X96230000Y-77474734D01*
X96299215Y-77641833D01*
X96447503Y-77863762D01*
X96636238Y-78052497D01*
X96858167Y-78200785D01*
X97104761Y-78302928D01*
X97366544Y-78355000D01*
X97633456Y-78355000D01*
X97895239Y-78302928D01*
X98141833Y-78200785D01*
X98363762Y-78052497D01*
X98552497Y-77863762D01*
X98700785Y-77641833D01*
X98802928Y-77395239D01*
X98855000Y-77133456D01*
X98855000Y-76866544D01*
X98832471Y-76753279D01*
X106495000Y-76753279D01*
X106495000Y-77246721D01*
X106591265Y-77730682D01*
X106780097Y-78186563D01*
X107054239Y-78596845D01*
X107403155Y-78945761D01*
X107813437Y-79219903D01*
X108269318Y-79408735D01*
X108753279Y-79505000D01*
X109246721Y-79505000D01*
X109730682Y-79408735D01*
X110186563Y-79219903D01*
X110596845Y-78945761D01*
X110945761Y-78596845D01*
X111219903Y-78186563D01*
X111408735Y-77730682D01*
X111505000Y-77246721D01*
X111505000Y-76753279D01*
X114495000Y-76753279D01*
X114495000Y-77246721D01*
X114591265Y-77730682D01*
X114780097Y-78186563D01*
X115054239Y-78596845D01*
X115403155Y-78945761D01*
X115813437Y-79219903D01*
X116269318Y-79408735D01*
X116753279Y-79505000D01*
X117246721Y-79505000D01*
X117730682Y-79408735D01*
X118186563Y-79219903D01*
X118596845Y-78945761D01*
X118945761Y-78596845D01*
X119219903Y-78186563D01*
X119408735Y-77730682D01*
X119505000Y-77246721D01*
X119505000Y-76753279D01*
X119408735Y-76269318D01*
X119219903Y-75813437D01*
X118945761Y-75403155D01*
X118596845Y-75054239D01*
X118186563Y-74780097D01*
X117730682Y-74591265D01*
X117246721Y-74495000D01*
X116753279Y-74495000D01*
X116269318Y-74591265D01*
X115813437Y-74780097D01*
X115403155Y-75054239D01*
X115054239Y-75403155D01*
X114780097Y-75813437D01*
X114591265Y-76269318D01*
X114495000Y-76753279D01*
X111505000Y-76753279D01*
X111408735Y-76269318D01*
X111219903Y-75813437D01*
X110945761Y-75403155D01*
X110596845Y-75054239D01*
X110186563Y-74780097D01*
X109730682Y-74591265D01*
X109246721Y-74495000D01*
X108753279Y-74495000D01*
X108269318Y-74591265D01*
X107813437Y-74780097D01*
X107403155Y-75054239D01*
X107054239Y-75403155D01*
X106780097Y-75813437D01*
X106591265Y-76269318D01*
X106495000Y-76753279D01*
X98832471Y-76753279D01*
X98802928Y-76604761D01*
X98700785Y-76358167D01*
X98552497Y-76136238D01*
X98363762Y-75947503D01*
X98141833Y-75799215D01*
X97895239Y-75697072D01*
X97633456Y-75645000D01*
X97366544Y-75645000D01*
X97104761Y-75697072D01*
X96858167Y-75799215D01*
X96636238Y-75947503D01*
X96447503Y-76136238D01*
X96299215Y-76358167D01*
X96230000Y-76525266D01*
X96160785Y-76358167D01*
X96012497Y-76136238D01*
X95823762Y-75947503D01*
X95601833Y-75799215D01*
X95355239Y-75697072D01*
X95093456Y-75645000D01*
X94826544Y-75645000D01*
X94564761Y-75697072D01*
X94318167Y-75799215D01*
X94096238Y-75947503D01*
X93907503Y-76136238D01*
X93759215Y-76358167D01*
X93689562Y-76526324D01*
X93647875Y-76411647D01*
X93591368Y-76305932D01*
X93355560Y-76244045D01*
X92599605Y-77000000D01*
X92240395Y-77000000D01*
X91484440Y-76244045D01*
X91248632Y-76305932D01*
X91135734Y-76547790D01*
X91072189Y-76807027D01*
X91060439Y-77073680D01*
X83508078Y-77073680D01*
X83516962Y-76971794D01*
X83463096Y-76481300D01*
X83331524Y-76064440D01*
X91664045Y-76064440D01*
X92420000Y-76820395D01*
X93175955Y-76064440D01*
X93114068Y-75828632D01*
X92872210Y-75715734D01*
X92612973Y-75652189D01*
X92346320Y-75640439D01*
X92082499Y-75680937D01*
X91831647Y-75772125D01*
X91725932Y-75828632D01*
X91664045Y-76064440D01*
X83331524Y-76064440D01*
X83314575Y-76010741D01*
X83108448Y-75625103D01*
X82755003Y-75424602D01*
X81179605Y-77000000D01*
X80820395Y-77000000D01*
X79244997Y-75424602D01*
X78891552Y-75625103D01*
X78663836Y-76062859D01*
X78525898Y-76536629D01*
X78483038Y-77028206D01*
X75835000Y-77028206D01*
X75835000Y-76622285D01*
X75687623Y-75881372D01*
X75424029Y-75244997D01*
X79424602Y-75244997D01*
X81000000Y-76820395D01*
X82575398Y-75244997D01*
X82374897Y-74891552D01*
X81937141Y-74663836D01*
X81463371Y-74525898D01*
X80971794Y-74483038D01*
X80481300Y-74536904D01*
X80010741Y-74685425D01*
X79625103Y-74891552D01*
X79424602Y-75244997D01*
X75424029Y-75244997D01*
X75398533Y-75183446D01*
X74978839Y-74555330D01*
X74444670Y-74021161D01*
X73816554Y-73601467D01*
X73118628Y-73312377D01*
X72377715Y-73165000D01*
X71622285Y-73165000D01*
X70881372Y-73312377D01*
X70183446Y-73601467D01*
X69555330Y-74021161D01*
X69021161Y-74555330D01*
X68601467Y-75183446D01*
X68312377Y-75881372D01*
X68165000Y-76622285D01*
X67710000Y-76622285D01*
X67710000Y-72710000D01*
X130584801Y-72710000D01*
X130321239Y-72762426D01*
G37*
X130321239Y-72762426D02*
X129897752Y-72937840D01*
X129516624Y-73192501D01*
X129192501Y-73516624D01*
X128937840Y-73897752D01*
X128762426Y-74321239D01*
X128673000Y-74770811D01*
X128673000Y-75229189D01*
X128762426Y-75678761D01*
X128937840Y-76102248D01*
X129192501Y-76483376D01*
X129516624Y-76807499D01*
X129897752Y-77062160D01*
X130321239Y-77237574D01*
X130770811Y-77327000D01*
X131229189Y-77327000D01*
X131678761Y-77237574D01*
X132102248Y-77062160D01*
X132483376Y-76807499D01*
X132668590Y-76622285D01*
X158165000Y-76622285D01*
X158165000Y-77377715D01*
X158312377Y-78118628D01*
X158601467Y-78816554D01*
X159021161Y-79444670D01*
X159555330Y-79978839D01*
X160183446Y-80398533D01*
X160881372Y-80687623D01*
X161622285Y-80835000D01*
X162377715Y-80835000D01*
X163118628Y-80687623D01*
X163816554Y-80398533D01*
X164444670Y-79978839D01*
X164978839Y-79444670D01*
X165398533Y-78816554D01*
X165687623Y-78118628D01*
X165835000Y-77377715D01*
X165835000Y-76622285D01*
X165687623Y-75881372D01*
X165398533Y-75183446D01*
X164978839Y-74555330D01*
X164444670Y-74021161D01*
X163816554Y-73601467D01*
X163118628Y-73312377D01*
X162377715Y-73165000D01*
X161622285Y-73165000D01*
X160881372Y-73312377D01*
X160183446Y-73601467D01*
X159555330Y-74021161D01*
X159021161Y-74555330D01*
X158601467Y-75183446D01*
X158312377Y-75881372D01*
X158165000Y-76622285D01*
X132668590Y-76622285D01*
X132807499Y-76483376D01*
X133062160Y-76102248D01*
X133237574Y-75678761D01*
X133327000Y-75229189D01*
X133327000Y-74770811D01*
X133237574Y-74321239D01*
X133062160Y-73897752D01*
X132807499Y-73516624D01*
X132483376Y-73192501D01*
X132102248Y-72937840D01*
X131678761Y-72762426D01*
X131415199Y-72710000D01*
X166290000Y-72710000D01*
X166290001Y-121290000D01*
X67710000Y-121290000D01*
X67710000Y-116622285D01*
X68165000Y-116622285D01*
X68165000Y-117377715D01*
X68312377Y-118118628D01*
X68601467Y-118816554D01*
X69021161Y-119444670D01*
X69555330Y-119978839D01*
X70183446Y-120398533D01*
X70881372Y-120687623D01*
X71622285Y-120835000D01*
X72377715Y-120835000D01*
X73118628Y-120687623D01*
X73816554Y-120398533D01*
X74444670Y-119978839D01*
X74978839Y-119444670D01*
X75398533Y-118816554D01*
X75424028Y-118755003D01*
X79424602Y-118755003D01*
X79625103Y-119108448D01*
X80062859Y-119336164D01*
X80536629Y-119474102D01*
X81028206Y-119516962D01*
X81518700Y-119463096D01*
X81989259Y-119314575D01*
X82374897Y-119108448D01*
X82575398Y-118755003D01*
X81000000Y-117179605D01*
X79424602Y-118755003D01*
X75424028Y-118755003D01*
X75687623Y-118118628D01*
X75835000Y-117377715D01*
X75835000Y-117028206D01*
X78483038Y-117028206D01*
X78536904Y-117518700D01*
X78685425Y-117989259D01*
X78891552Y-118374897D01*
X79244997Y-118575398D01*
X80820395Y-117000000D01*
X81179605Y-117000000D01*
X82755003Y-118575398D01*
X83108448Y-118374897D01*
X83336164Y-117937141D01*
X83336624Y-117935560D01*
X91704045Y-117935560D01*
X91765932Y-118171368D01*
X92007790Y-118284266D01*
X92267027Y-118347811D01*
X92533680Y-118359561D01*
X92797501Y-118319063D01*
X93048353Y-118227875D01*
X93154068Y-118171368D01*
X93215955Y-117935560D01*
X92460000Y-117179605D01*
X91704045Y-117935560D01*
X83336624Y-117935560D01*
X83474102Y-117463371D01*
X83508078Y-117073680D01*
X91100439Y-117073680D01*
X91140937Y-117337501D01*
X91232125Y-117588353D01*
X91288632Y-117694068D01*
X91524440Y-117755955D01*
X92280395Y-117000000D01*
X92639605Y-117000000D01*
X93395560Y-117755955D01*
X93631368Y-117694068D01*
X93731764Y-117478993D01*
X93799215Y-117641833D01*
X93947503Y-117863762D01*
X94136238Y-118052497D01*
X94358167Y-118200785D01*
X94604761Y-118302928D01*
X94866544Y-118355000D01*
X95133456Y-118355000D01*
X95395239Y-118302928D01*
X95641833Y-118200785D01*
X95863762Y-118052497D01*
X96052497Y-117863762D01*
X96200785Y-117641833D01*
X96270000Y-117474734D01*
X96339215Y-117641833D01*
X96487503Y-117863762D01*
X96676238Y-118052497D01*
X96898167Y-118200785D01*
X97144761Y-118302928D01*
X97406544Y-118355000D01*
X97673456Y-118355000D01*
X97935239Y-118302928D01*
X98181833Y-118200785D01*
X98403762Y-118052497D01*
X98592497Y-117863762D01*
X98740785Y-117641833D01*
X98842928Y-117395239D01*
X98895000Y-117133456D01*
X98895000Y-116866544D01*
X98842928Y-116604761D01*
X98740785Y-116358167D01*
X98592497Y-116136238D01*
X98403762Y-115947503D01*
X98181833Y-115799215D01*
X97935239Y-115697072D01*
X97673456Y-115645000D01*
X97406544Y-115645000D01*
X97144761Y-115697072D01*
X96898167Y-115799215D01*
X96676238Y-115947503D01*
X96487503Y-116136238D01*
X96339215Y-116358167D01*
X96270000Y-116525266D01*
X96200785Y-116358167D01*
X96052497Y-116136238D01*
X95863762Y-115947503D01*
X95641833Y-115799215D01*
X95395239Y-115697072D01*
X95133456Y-115645000D01*
X94866544Y-115645000D01*
X94604761Y-115697072D01*
X94358167Y-115799215D01*
X94136238Y-115947503D01*
X93947503Y-116136238D01*
X93799215Y-116358167D01*
X93729562Y-116526324D01*
X93687875Y-116411647D01*
X93631368Y-116305932D01*
X93395560Y-116244045D01*
X92639605Y-117000000D01*
X92280395Y-117000000D01*
X91524440Y-116244045D01*
X91288632Y-116305932D01*
X91175734Y-116547790D01*
X91112189Y-116807027D01*
X91100439Y-117073680D01*
X83508078Y-117073680D01*
X83516962Y-116971794D01*
X83463096Y-116481300D01*
X83331524Y-116064440D01*
X91704045Y-116064440D01*
X92460000Y-116820395D01*
X93215955Y-116064440D01*
X93154068Y-115828632D01*
X92912210Y-115715734D01*
X92652973Y-115652189D01*
X92386320Y-115640439D01*
X92122499Y-115680937D01*
X91871647Y-115772125D01*
X91765932Y-115828632D01*
X91704045Y-116064440D01*
X83331524Y-116064440D01*
X83314575Y-116010741D01*
X83108448Y-115625103D01*
X82755003Y-115424602D01*
X81179605Y-117000000D01*
X80820395Y-117000000D01*
X79244997Y-115424602D01*
X78891552Y-115625103D01*
X78663836Y-116062859D01*
X78525898Y-116536629D01*
X78483038Y-117028206D01*
X75835000Y-117028206D01*
X75835000Y-116622285D01*
X75687623Y-115881372D01*
X75424029Y-115244997D01*
X79424602Y-115244997D01*
X81000000Y-116820395D01*
X82575398Y-115244997D01*
X82374897Y-114891552D01*
X81937141Y-114663836D01*
X81463371Y-114525898D01*
X80971794Y-114483038D01*
X80481300Y-114536904D01*
X80010741Y-114685425D01*
X79625103Y-114891552D01*
X79424602Y-115244997D01*
X75424029Y-115244997D01*
X75398533Y-115183446D01*
X74978839Y-114555330D01*
X74694320Y-114270811D01*
X135173000Y-114270811D01*
X135173000Y-114729189D01*
X135262426Y-115178761D01*
X135437840Y-115602248D01*
X135692501Y-115983376D01*
X136016624Y-116307499D01*
X136397752Y-116562160D01*
X136821239Y-116737574D01*
X137270811Y-116827000D01*
X137729189Y-116827000D01*
X138178761Y-116737574D01*
X138602248Y-116562160D01*
X138983376Y-116307499D01*
X139307499Y-115983376D01*
X139562160Y-115602248D01*
X139737574Y-115178761D01*
X139827000Y-114729189D01*
X139827000Y-114270811D01*
X139737574Y-113821239D01*
X139562160Y-113397752D01*
X139307499Y-113016624D01*
X138983376Y-112692501D01*
X138602248Y-112437840D01*
X138178761Y-112262426D01*
X137729189Y-112173000D01*
X137270811Y-112173000D01*
X136821239Y-112262426D01*
X136397752Y-112437840D01*
X136016624Y-112692501D01*
X135692501Y-113016624D01*
X135437840Y-113397752D01*
X135262426Y-113821239D01*
X135173000Y-114270811D01*
X74694320Y-114270811D01*
X74444670Y-114021161D01*
X73816554Y-113601467D01*
X73118628Y-113312377D01*
X72377715Y-113165000D01*
X71622285Y-113165000D01*
X70881372Y-113312377D01*
X70183446Y-113601467D01*
X69555330Y-114021161D01*
X69021161Y-114555330D01*
X68601467Y-115183446D01*
X68312377Y-115881372D01*
X68165000Y-116622285D01*
X67710000Y-116622285D01*
X67710000Y-109858665D01*
X83405000Y-109858665D01*
X83405000Y-110141335D01*
X83460147Y-110418574D01*
X83568320Y-110679727D01*
X83725363Y-110914759D01*
X83925241Y-111114637D01*
X84160273Y-111271680D01*
X84421426Y-111379853D01*
X84698665Y-111435000D01*
X84981335Y-111435000D01*
X85258574Y-111379853D01*
X85519727Y-111271680D01*
X85754759Y-111114637D01*
X85954637Y-110914759D01*
X86111680Y-110679727D01*
X86219853Y-110418574D01*
X86275000Y-110141335D01*
X86275000Y-109858665D01*
X93565000Y-109858665D01*
X93565000Y-110141335D01*
X93620147Y-110418574D01*
X93728320Y-110679727D01*
X93885363Y-110914759D01*
X94085241Y-111114637D01*
X94320273Y-111271680D01*
X94581426Y-111379853D01*
X94858665Y-111435000D01*
X95141335Y-111435000D01*
X95418574Y-111379853D01*
X95679727Y-111271680D01*
X95914759Y-111114637D01*
X96114637Y-110914759D01*
X96271680Y-110679727D01*
X96379853Y-110418574D01*
X96435000Y-110141335D01*
X96435000Y-109858665D01*
X96379853Y-109581426D01*
X96271680Y-109320273D01*
X96114637Y-109085241D01*
X95914759Y-108885363D01*
X95679727Y-108728320D01*
X95418574Y-108620147D01*
X95141335Y-108565000D01*
X94858665Y-108565000D01*
X94581426Y-108620147D01*
X94320273Y-108728320D01*
X94085241Y-108885363D01*
X93885363Y-109085241D01*
X93728320Y-109320273D01*
X93620147Y-109581426D01*
X93565000Y-109858665D01*
X86275000Y-109858665D01*
X86219853Y-109581426D01*
X86111680Y-109320273D01*
X85954637Y-109085241D01*
X85754759Y-108885363D01*
X85519727Y-108728320D01*
X85258574Y-108620147D01*
X84981335Y-108565000D01*
X84698665Y-108565000D01*
X84421426Y-108620147D01*
X84160273Y-108728320D01*
X83925241Y-108885363D01*
X83725363Y-109085241D01*
X83568320Y-109320273D01*
X83460147Y-109581426D01*
X83405000Y-109858665D01*
X67710000Y-109858665D01*
X67710000Y-104753279D01*
X69495000Y-104753279D01*
X69495000Y-105246721D01*
X69591265Y-105730682D01*
X69780097Y-106186563D01*
X70054239Y-106596845D01*
X70403155Y-106945761D01*
X70813437Y-107219903D01*
X71269318Y-107408735D01*
X71753279Y-107505000D01*
X72246721Y-107505000D01*
X72730682Y-107408735D01*
X73186563Y-107219903D01*
X73596845Y-106945761D01*
X73945761Y-106596845D01*
X74219903Y-106186563D01*
X74408735Y-105730682D01*
X74505000Y-105246721D01*
X74505000Y-104858665D01*
X76565000Y-104858665D01*
X76565000Y-105141335D01*
X76620147Y-105418574D01*
X76728320Y-105679727D01*
X76885363Y-105914759D01*
X77085241Y-106114637D01*
X77320273Y-106271680D01*
X77581426Y-106379853D01*
X77858665Y-106435000D01*
X78141335Y-106435000D01*
X78418574Y-106379853D01*
X78679727Y-106271680D01*
X78914759Y-106114637D01*
X79114637Y-105914759D01*
X79271680Y-105679727D01*
X79379853Y-105418574D01*
X79435000Y-105141335D01*
X79435000Y-104858665D01*
X81565000Y-104858665D01*
X81565000Y-105141335D01*
X81620147Y-105418574D01*
X81728320Y-105679727D01*
X81885363Y-105914759D01*
X82085241Y-106114637D01*
X82320273Y-106271680D01*
X82581426Y-106379853D01*
X82858665Y-106435000D01*
X83141335Y-106435000D01*
X83418574Y-106379853D01*
X83679727Y-106271680D01*
X83914759Y-106114637D01*
X84114637Y-105914759D01*
X84271680Y-105679727D01*
X84379853Y-105418574D01*
X84435000Y-105141335D01*
X84435000Y-104858665D01*
X88565000Y-104858665D01*
X88565000Y-105141335D01*
X88620147Y-105418574D01*
X88728320Y-105679727D01*
X88885363Y-105914759D01*
X89085241Y-106114637D01*
X89320273Y-106271680D01*
X89581426Y-106379853D01*
X89858665Y-106435000D01*
X90141335Y-106435000D01*
X90418574Y-106379853D01*
X90679727Y-106271680D01*
X90914759Y-106114637D01*
X91114637Y-105914759D01*
X91271680Y-105679727D01*
X91379853Y-105418574D01*
X91435000Y-105141335D01*
X91435000Y-104858665D01*
X98725000Y-104858665D01*
X98725000Y-105141335D01*
X98780147Y-105418574D01*
X98888320Y-105679727D01*
X99045363Y-105914759D01*
X99245241Y-106114637D01*
X99480273Y-106271680D01*
X99741426Y-106379853D01*
X100018665Y-106435000D01*
X100301335Y-106435000D01*
X100578574Y-106379853D01*
X100839727Y-106271680D01*
X101074759Y-106114637D01*
X101274637Y-105914759D01*
X101431680Y-105679727D01*
X101539853Y-105418574D01*
X101595000Y-105141335D01*
X101595000Y-104858665D01*
X101539853Y-104581426D01*
X101431680Y-104320273D01*
X101274637Y-104085241D01*
X101074759Y-103885363D01*
X100839727Y-103728320D01*
X100578574Y-103620147D01*
X100301335Y-103565000D01*
X100018665Y-103565000D01*
X99741426Y-103620147D01*
X99480273Y-103728320D01*
X99245241Y-103885363D01*
X99045363Y-104085241D01*
X98888320Y-104320273D01*
X98780147Y-104581426D01*
X98725000Y-104858665D01*
X91435000Y-104858665D01*
X91379853Y-104581426D01*
X91271680Y-104320273D01*
X91114637Y-104085241D01*
X90914759Y-103885363D01*
X90679727Y-103728320D01*
X90418574Y-103620147D01*
X90141335Y-103565000D01*
X89858665Y-103565000D01*
X89581426Y-103620147D01*
X89320273Y-103728320D01*
X89085241Y-103885363D01*
X88885363Y-104085241D01*
X88728320Y-104320273D01*
X88620147Y-104581426D01*
X88565000Y-104858665D01*
X84435000Y-104858665D01*
X84379853Y-104581426D01*
X84271680Y-104320273D01*
X84114637Y-104085241D01*
X83914759Y-103885363D01*
X83679727Y-103728320D01*
X83418574Y-103620147D01*
X83141335Y-103565000D01*
X82858665Y-103565000D01*
X82581426Y-103620147D01*
X82320273Y-103728320D01*
X82085241Y-103885363D01*
X81885363Y-104085241D01*
X81728320Y-104320273D01*
X81620147Y-104581426D01*
X81565000Y-104858665D01*
X79435000Y-104858665D01*
X79379853Y-104581426D01*
X79271680Y-104320273D01*
X79114637Y-104085241D01*
X78914759Y-103885363D01*
X78679727Y-103728320D01*
X78418574Y-103620147D01*
X78141335Y-103565000D01*
X77858665Y-103565000D01*
X77581426Y-103620147D01*
X77320273Y-103728320D01*
X77085241Y-103885363D01*
X76885363Y-104085241D01*
X76728320Y-104320273D01*
X76620147Y-104581426D01*
X76565000Y-104858665D01*
X74505000Y-104858665D01*
X74505000Y-104753279D01*
X74408735Y-104269318D01*
X74219903Y-103813437D01*
X73945761Y-103403155D01*
X73596845Y-103054239D01*
X73186563Y-102780097D01*
X72730682Y-102591265D01*
X72246721Y-102495000D01*
X71753279Y-102495000D01*
X71269318Y-102591265D01*
X70813437Y-102780097D01*
X70403155Y-103054239D01*
X70054239Y-103403155D01*
X69780097Y-103813437D01*
X69591265Y-104269318D01*
X69495000Y-104753279D01*
X67710000Y-104753279D01*
X67710000Y-101837489D01*
X111850000Y-101837489D01*
X111850000Y-102162511D01*
X111913408Y-102481287D01*
X112037789Y-102781568D01*
X112218361Y-103051814D01*
X112448186Y-103281639D01*
X112718432Y-103462211D01*
X113018713Y-103586592D01*
X113337489Y-103650000D01*
X113662511Y-103650000D01*
X113981287Y-103586592D01*
X114281568Y-103462211D01*
X114551814Y-103281639D01*
X114781639Y-103051814D01*
X114962211Y-102781568D01*
X115086592Y-102481287D01*
X115150000Y-102162511D01*
X115150000Y-101837489D01*
X115086592Y-101518713D01*
X114962211Y-101218432D01*
X114781639Y-100948186D01*
X114551814Y-100718361D01*
X114281568Y-100537789D01*
X113981287Y-100413408D01*
X113662511Y-100350000D01*
X113337489Y-100350000D01*
X113018713Y-100413408D01*
X112718432Y-100537789D01*
X112448186Y-100718361D01*
X112218361Y-100948186D01*
X112037789Y-101218432D01*
X111913408Y-101518713D01*
X111850000Y-101837489D01*
X67710000Y-101837489D01*
X67710000Y-98755003D01*
X70424602Y-98755003D01*
X70625103Y-99108448D01*
X71062859Y-99336164D01*
X71536629Y-99474102D01*
X72028206Y-99516962D01*
X72518700Y-99463096D01*
X72989259Y-99314575D01*
X73374897Y-99108448D01*
X73575398Y-98755003D01*
X72000000Y-97179605D01*
X70424602Y-98755003D01*
X67710000Y-98755003D01*
X67710000Y-97028206D01*
X69483038Y-97028206D01*
X69536904Y-97518700D01*
X69685425Y-97989259D01*
X69891552Y-98374897D01*
X70244997Y-98575398D01*
X71820395Y-97000000D01*
X72179605Y-97000000D01*
X73755003Y-98575398D01*
X74108448Y-98374897D01*
X74336164Y-97937141D01*
X74474102Y-97463371D01*
X74477230Y-97427484D01*
X83112811Y-97427484D01*
X83193358Y-97693028D01*
X83363275Y-98032170D01*
X83596091Y-98331646D01*
X83882858Y-98579948D01*
X84212556Y-98767533D01*
X84572515Y-98887193D01*
X84873000Y-98772082D01*
X84873000Y-97127000D01*
X85127000Y-97127000D01*
X85127000Y-98772082D01*
X85427485Y-98887193D01*
X85787444Y-98767533D01*
X86117142Y-98579948D01*
X86403909Y-98331646D01*
X86636725Y-98032170D01*
X86806642Y-97693028D01*
X86887189Y-97427484D01*
X86771704Y-97127000D01*
X85127000Y-97127000D01*
X84873000Y-97127000D01*
X83228296Y-97127000D01*
X83112811Y-97427484D01*
X74477230Y-97427484D01*
X74516962Y-96971794D01*
X74473114Y-96572516D01*
X83112811Y-96572516D01*
X83228296Y-96873000D01*
X84873000Y-96873000D01*
X84873000Y-95227918D01*
X85127000Y-95227918D01*
X85127000Y-96873000D01*
X86771704Y-96873000D01*
X86887189Y-96572516D01*
X86806642Y-96306972D01*
X86636725Y-95967830D01*
X86428511Y-95700000D01*
X98301928Y-95700000D01*
X98301928Y-98300000D01*
X98314188Y-98424482D01*
X98350498Y-98544180D01*
X98409463Y-98654494D01*
X98488815Y-98751185D01*
X98585506Y-98830537D01*
X98695820Y-98889502D01*
X98815518Y-98925812D01*
X98940000Y-98938072D01*
X101540000Y-98938072D01*
X101664482Y-98925812D01*
X101724884Y-98907489D01*
X109700000Y-98907489D01*
X109700000Y-99232511D01*
X109763408Y-99551287D01*
X109887789Y-99851568D01*
X110068361Y-100121814D01*
X110298186Y-100351639D01*
X110568432Y-100532211D01*
X110868713Y-100656592D01*
X111187489Y-100720000D01*
X111512511Y-100720000D01*
X111831287Y-100656592D01*
X112131568Y-100532211D01*
X112401814Y-100351639D01*
X112631639Y-100121814D01*
X112812211Y-99851568D01*
X112936592Y-99551287D01*
X113000000Y-99232511D01*
X113000000Y-98907489D01*
X112936592Y-98588713D01*
X112812211Y-98288432D01*
X112631639Y-98018186D01*
X112401814Y-97788361D01*
X112131568Y-97607789D01*
X111831287Y-97483408D01*
X111512511Y-97420000D01*
X111187489Y-97420000D01*
X110868713Y-97483408D01*
X110568432Y-97607789D01*
X110298186Y-97788361D01*
X110068361Y-98018186D01*
X109887789Y-98288432D01*
X109763408Y-98588713D01*
X109700000Y-98907489D01*
X101724884Y-98907489D01*
X101784180Y-98889502D01*
X101894494Y-98830537D01*
X101991185Y-98751185D01*
X102070537Y-98654494D01*
X102129502Y-98544180D01*
X102165812Y-98424482D01*
X102178072Y-98300000D01*
X102178072Y-95700000D01*
X102165812Y-95575518D01*
X102129502Y-95455820D01*
X102070537Y-95345506D01*
X101998304Y-95257489D01*
X109700000Y-95257489D01*
X109700000Y-95582511D01*
X109763408Y-95901287D01*
X109887789Y-96201568D01*
X110068361Y-96471814D01*
X110298186Y-96701639D01*
X110568432Y-96882211D01*
X110868713Y-97006592D01*
X111187489Y-97070000D01*
X111512511Y-97070000D01*
X111831287Y-97006592D01*
X112131568Y-96882211D01*
X112401814Y-96701639D01*
X112631639Y-96471814D01*
X112812211Y-96201568D01*
X112936592Y-95901287D01*
X113000000Y-95582511D01*
X113000000Y-95257489D01*
X112936592Y-94938713D01*
X112812211Y-94638432D01*
X112631639Y-94368186D01*
X112401814Y-94138361D01*
X112131568Y-93957789D01*
X111831287Y-93833408D01*
X111512511Y-93770000D01*
X111187489Y-93770000D01*
X110868713Y-93833408D01*
X110568432Y-93957789D01*
X110298186Y-94138361D01*
X110068361Y-94368186D01*
X109887789Y-94638432D01*
X109763408Y-94938713D01*
X109700000Y-95257489D01*
X101998304Y-95257489D01*
X101991185Y-95248815D01*
X101894494Y-95169463D01*
X101784180Y-95110498D01*
X101664482Y-95074188D01*
X101540000Y-95061928D01*
X98940000Y-95061928D01*
X98815518Y-95074188D01*
X98695820Y-95110498D01*
X98585506Y-95169463D01*
X98488815Y-95248815D01*
X98409463Y-95345506D01*
X98350498Y-95455820D01*
X98314188Y-95575518D01*
X98301928Y-95700000D01*
X86428511Y-95700000D01*
X86403909Y-95668354D01*
X86117142Y-95420052D01*
X85787444Y-95232467D01*
X85427485Y-95112807D01*
X85127000Y-95227918D01*
X84873000Y-95227918D01*
X84572515Y-95112807D01*
X84212556Y-95232467D01*
X83882858Y-95420052D01*
X83596091Y-95668354D01*
X83363275Y-95967830D01*
X83193358Y-96306972D01*
X83112811Y-96572516D01*
X74473114Y-96572516D01*
X74463096Y-96481300D01*
X74314575Y-96010741D01*
X74108448Y-95625103D01*
X73755003Y-95424602D01*
X72179605Y-97000000D01*
X71820395Y-97000000D01*
X70244997Y-95424602D01*
X69891552Y-95625103D01*
X69663836Y-96062859D01*
X69525898Y-96536629D01*
X69483038Y-97028206D01*
X67710000Y-97028206D01*
X67710000Y-95244997D01*
X70424602Y-95244997D01*
X72000000Y-96820395D01*
X73575398Y-95244997D01*
X73374897Y-94891552D01*
X72937141Y-94663836D01*
X72463371Y-94525898D01*
X71971794Y-94483038D01*
X71481300Y-94536904D01*
X71010741Y-94685425D01*
X70625103Y-94891552D01*
X70424602Y-95244997D01*
X67710000Y-95244997D01*
X67710000Y-92327489D01*
X111850000Y-92327489D01*
X111850000Y-92652511D01*
X111913408Y-92971287D01*
X112037789Y-93271568D01*
X112218361Y-93541814D01*
X112448186Y-93771639D01*
X112718432Y-93952211D01*
X113018713Y-94076592D01*
X113337489Y-94140000D01*
X113662511Y-94140000D01*
X113981287Y-94076592D01*
X114281568Y-93952211D01*
X114551814Y-93771639D01*
X114781639Y-93541814D01*
X114962211Y-93271568D01*
X115086592Y-92971287D01*
X115150000Y-92652511D01*
X115150000Y-92327489D01*
X115086592Y-92008713D01*
X114962211Y-91708432D01*
X114781639Y-91438186D01*
X114551814Y-91208361D01*
X114520577Y-91187489D01*
X115300000Y-91187489D01*
X115300000Y-91512511D01*
X115363408Y-91831287D01*
X115487789Y-92131568D01*
X115668361Y-92401814D01*
X115898186Y-92631639D01*
X116168432Y-92812211D01*
X116468713Y-92936592D01*
X116787489Y-93000000D01*
X117112511Y-93000000D01*
X117431287Y-92936592D01*
X117731568Y-92812211D01*
X118001814Y-92631639D01*
X118231639Y-92401814D01*
X118268000Y-92347396D01*
X118268000Y-92700969D01*
X118350316Y-93114798D01*
X118511784Y-93504617D01*
X118746200Y-93855445D01*
X119044555Y-94153800D01*
X119395383Y-94388216D01*
X119785202Y-94549684D01*
X120199031Y-94632000D01*
X120567916Y-94632000D01*
X120500316Y-94795202D01*
X120418000Y-95209031D01*
X120418000Y-95630969D01*
X120500316Y-96044798D01*
X120661784Y-96434617D01*
X120896200Y-96785445D01*
X121194555Y-97083800D01*
X121405876Y-97225000D01*
X121194555Y-97366200D01*
X120896200Y-97664555D01*
X120661784Y-98015383D01*
X120500316Y-98405202D01*
X120418000Y-98819031D01*
X120418000Y-99240969D01*
X120500316Y-99654798D01*
X120661784Y-100044617D01*
X120875857Y-100365000D01*
X120647922Y-100365000D01*
X120572511Y-100350000D01*
X120247489Y-100350000D01*
X119928713Y-100413408D01*
X119628432Y-100537789D01*
X119358186Y-100718361D01*
X119128361Y-100948186D01*
X118947789Y-101218432D01*
X118823408Y-101518713D01*
X118760000Y-101837489D01*
X118760000Y-102162511D01*
X118823408Y-102481287D01*
X118947789Y-102781568D01*
X119128361Y-103051814D01*
X119358186Y-103281639D01*
X119628432Y-103462211D01*
X119928713Y-103586592D01*
X120247489Y-103650000D01*
X120572511Y-103650000D01*
X120647922Y-103635000D01*
X124919681Y-103635000D01*
X125000000Y-103642911D01*
X125080319Y-103635000D01*
X125080322Y-103635000D01*
X125320516Y-103611343D01*
X125628715Y-103517852D01*
X125912752Y-103366031D01*
X126161714Y-103161714D01*
X126212925Y-103099313D01*
X128099320Y-101212919D01*
X128161714Y-101161714D01*
X128366031Y-100912752D01*
X128477172Y-100704821D01*
X143003000Y-100704821D01*
X143003000Y-101295179D01*
X143118173Y-101874193D01*
X143344093Y-102419612D01*
X143672078Y-102910476D01*
X144089524Y-103327922D01*
X144373000Y-103517335D01*
X144373001Y-112251817D01*
X144366629Y-112253750D01*
X144170843Y-112358400D01*
X143999235Y-112499235D01*
X143858400Y-112670843D01*
X143753750Y-112866629D01*
X143689307Y-113079069D01*
X143667547Y-113300000D01*
X143667547Y-115700000D01*
X143689307Y-115920931D01*
X143753750Y-116133371D01*
X143858400Y-116329157D01*
X143999235Y-116500765D01*
X144170843Y-116641600D01*
X144366629Y-116746250D01*
X144579069Y-116810693D01*
X144800000Y-116832453D01*
X147200000Y-116832453D01*
X147420931Y-116810693D01*
X147633371Y-116746250D01*
X147829157Y-116641600D01*
X147852692Y-116622285D01*
X158165000Y-116622285D01*
X158165000Y-117377715D01*
X158312377Y-118118628D01*
X158601467Y-118816554D01*
X159021161Y-119444670D01*
X159555330Y-119978839D01*
X160183446Y-120398533D01*
X160881372Y-120687623D01*
X161622285Y-120835000D01*
X162377715Y-120835000D01*
X163118628Y-120687623D01*
X163816554Y-120398533D01*
X164444670Y-119978839D01*
X164978839Y-119444670D01*
X165398533Y-118816554D01*
X165687623Y-118118628D01*
X165835000Y-117377715D01*
X165835000Y-116622285D01*
X165687623Y-115881372D01*
X165398533Y-115183446D01*
X164978839Y-114555330D01*
X164444670Y-114021161D01*
X163816554Y-113601467D01*
X163118628Y-113312377D01*
X162377715Y-113165000D01*
X161622285Y-113165000D01*
X160881372Y-113312377D01*
X160183446Y-113601467D01*
X159555330Y-114021161D01*
X159021161Y-114555330D01*
X158601467Y-115183446D01*
X158312377Y-115881372D01*
X158165000Y-116622285D01*
X147852692Y-116622285D01*
X148000765Y-116500765D01*
X148141600Y-116329157D01*
X148246250Y-116133371D01*
X148310693Y-115920931D01*
X148324772Y-115777980D01*
X149901626Y-115777980D01*
X150021514Y-116062836D01*
X150345210Y-116223699D01*
X150694069Y-116318322D01*
X151054684Y-116343067D01*
X151413198Y-116296985D01*
X151755833Y-116181846D01*
X151978486Y-116062836D01*
X152098374Y-115777980D01*
X151000000Y-114679605D01*
X149901626Y-115777980D01*
X148324772Y-115777980D01*
X148332453Y-115700000D01*
X148332453Y-114554684D01*
X149156933Y-114554684D01*
X149203015Y-114913198D01*
X149318154Y-115255833D01*
X149437164Y-115478486D01*
X149722020Y-115598374D01*
X150820395Y-114500000D01*
X151179605Y-114500000D01*
X152277980Y-115598374D01*
X152562836Y-115478486D01*
X152723699Y-115154790D01*
X152818322Y-114805931D01*
X152843067Y-114445316D01*
X152796985Y-114086802D01*
X152681846Y-113744167D01*
X152562836Y-113521514D01*
X152277980Y-113401626D01*
X151179605Y-114500000D01*
X150820395Y-114500000D01*
X149722020Y-113401626D01*
X149437164Y-113521514D01*
X149276301Y-113845210D01*
X149181678Y-114194069D01*
X149156933Y-114554684D01*
X148332453Y-114554684D01*
X148332453Y-113300000D01*
X148324773Y-113222020D01*
X149901626Y-113222020D01*
X151000000Y-114320395D01*
X152098374Y-113222020D01*
X151978486Y-112937164D01*
X151654790Y-112776301D01*
X151305931Y-112681678D01*
X150945316Y-112656933D01*
X150586802Y-112703015D01*
X150244167Y-112818154D01*
X150021514Y-112937164D01*
X149901626Y-113222020D01*
X148324773Y-113222020D01*
X148310693Y-113079069D01*
X148246250Y-112866629D01*
X148141600Y-112670843D01*
X148000765Y-112499235D01*
X147829157Y-112358400D01*
X147633371Y-112253750D01*
X147627000Y-112251817D01*
X147627000Y-108704821D01*
X159003000Y-108704821D01*
X159003000Y-109295179D01*
X159118173Y-109874193D01*
X159344093Y-110419612D01*
X159672078Y-110910476D01*
X160089524Y-111327922D01*
X160580388Y-111655907D01*
X161125807Y-111881827D01*
X161704821Y-111997000D01*
X162295179Y-111997000D01*
X162874193Y-111881827D01*
X163419612Y-111655907D01*
X163910476Y-111327922D01*
X164327922Y-110910476D01*
X164655907Y-110419612D01*
X164881827Y-109874193D01*
X164997000Y-109295179D01*
X164997000Y-108704821D01*
X164881827Y-108125807D01*
X164655907Y-107580388D01*
X164327922Y-107089524D01*
X163910476Y-106672078D01*
X163419612Y-106344093D01*
X162874193Y-106118173D01*
X162295179Y-106003000D01*
X161704821Y-106003000D01*
X161125807Y-106118173D01*
X160580388Y-106344093D01*
X160089524Y-106672078D01*
X159672078Y-107089524D01*
X159344093Y-107580388D01*
X159118173Y-108125807D01*
X159003000Y-108704821D01*
X147627000Y-108704821D01*
X147627000Y-106755003D01*
X152424602Y-106755003D01*
X152625103Y-107108448D01*
X153062859Y-107336164D01*
X153536629Y-107474102D01*
X154028206Y-107516962D01*
X154518700Y-107463096D01*
X154989259Y-107314575D01*
X155374897Y-107108448D01*
X155575398Y-106755003D01*
X154000000Y-105179605D01*
X152424602Y-106755003D01*
X147627000Y-106755003D01*
X147627000Y-105028206D01*
X151483038Y-105028206D01*
X151536904Y-105518700D01*
X151685425Y-105989259D01*
X151891552Y-106374897D01*
X152244997Y-106575398D01*
X153820395Y-105000000D01*
X154179605Y-105000000D01*
X155755003Y-106575398D01*
X156108448Y-106374897D01*
X156336164Y-105937141D01*
X156474102Y-105463371D01*
X156516962Y-104971794D01*
X156463096Y-104481300D01*
X156314575Y-104010741D01*
X156108448Y-103625103D01*
X155755003Y-103424602D01*
X154179605Y-105000000D01*
X153820395Y-105000000D01*
X152244997Y-103424602D01*
X151891552Y-103625103D01*
X151663836Y-104062859D01*
X151525898Y-104536629D01*
X151483038Y-105028206D01*
X147627000Y-105028206D01*
X147627000Y-103517335D01*
X147910476Y-103327922D01*
X147993401Y-103244997D01*
X152424602Y-103244997D01*
X154000000Y-104820395D01*
X155575398Y-103244997D01*
X155374897Y-102891552D01*
X154937141Y-102663836D01*
X154463371Y-102525898D01*
X153971794Y-102483038D01*
X153481300Y-102536904D01*
X153010741Y-102685425D01*
X152625103Y-102891552D01*
X152424602Y-103244997D01*
X147993401Y-103244997D01*
X148327922Y-102910476D01*
X148655907Y-102419612D01*
X148881827Y-101874193D01*
X148997000Y-101295179D01*
X148997000Y-100704821D01*
X159003000Y-100704821D01*
X159003000Y-101295179D01*
X159118173Y-101874193D01*
X159344093Y-102419612D01*
X159672078Y-102910476D01*
X160089524Y-103327922D01*
X160580388Y-103655907D01*
X161125807Y-103881827D01*
X161704821Y-103997000D01*
X162295179Y-103997000D01*
X162874193Y-103881827D01*
X163419612Y-103655907D01*
X163910476Y-103327922D01*
X164327922Y-102910476D01*
X164655907Y-102419612D01*
X164881827Y-101874193D01*
X164997000Y-101295179D01*
X164997000Y-100704821D01*
X164881827Y-100125807D01*
X164655907Y-99580388D01*
X164327922Y-99089524D01*
X163910476Y-98672078D01*
X163419612Y-98344093D01*
X162874193Y-98118173D01*
X162295179Y-98003000D01*
X161704821Y-98003000D01*
X161125807Y-98118173D01*
X160580388Y-98344093D01*
X160089524Y-98672078D01*
X159672078Y-99089524D01*
X159344093Y-99580388D01*
X159118173Y-100125807D01*
X159003000Y-100704821D01*
X148997000Y-100704821D01*
X148881827Y-100125807D01*
X148655907Y-99580388D01*
X148327922Y-99089524D01*
X147993401Y-98755003D01*
X152424602Y-98755003D01*
X152625103Y-99108448D01*
X153062859Y-99336164D01*
X153536629Y-99474102D01*
X154028206Y-99516962D01*
X154518700Y-99463096D01*
X154989259Y-99314575D01*
X155374897Y-99108448D01*
X155575398Y-98755003D01*
X154000000Y-97179605D01*
X152424602Y-98755003D01*
X147993401Y-98755003D01*
X147910476Y-98672078D01*
X147419612Y-98344093D01*
X146874193Y-98118173D01*
X146295179Y-98003000D01*
X145704821Y-98003000D01*
X145125807Y-98118173D01*
X144580388Y-98344093D01*
X144089524Y-98672078D01*
X143672078Y-99089524D01*
X143344093Y-99580388D01*
X143118173Y-100125807D01*
X143003000Y-100704821D01*
X128477172Y-100704821D01*
X128517852Y-100628715D01*
X128611343Y-100320516D01*
X128635000Y-100080322D01*
X128635000Y-100080320D01*
X128642911Y-100000001D01*
X128635000Y-99919681D01*
X128635000Y-95125016D01*
X128640261Y-95090811D01*
X128673000Y-95090811D01*
X128673000Y-95549189D01*
X128762426Y-95998761D01*
X128937840Y-96422248D01*
X129192501Y-96803376D01*
X129516624Y-97127499D01*
X129897752Y-97382160D01*
X130321239Y-97557574D01*
X130770811Y-97647000D01*
X131229189Y-97647000D01*
X131678761Y-97557574D01*
X132102248Y-97382160D01*
X132483376Y-97127499D01*
X132582669Y-97028206D01*
X151483038Y-97028206D01*
X151536904Y-97518700D01*
X151685425Y-97989259D01*
X151891552Y-98374897D01*
X152244997Y-98575398D01*
X153820395Y-97000000D01*
X154179605Y-97000000D01*
X155755003Y-98575398D01*
X156108448Y-98374897D01*
X156336164Y-97937141D01*
X156474102Y-97463371D01*
X156516962Y-96971794D01*
X156463096Y-96481300D01*
X156314575Y-96010741D01*
X156108448Y-95625103D01*
X155755003Y-95424602D01*
X154179605Y-97000000D01*
X153820395Y-97000000D01*
X152244997Y-95424602D01*
X151891552Y-95625103D01*
X151663836Y-96062859D01*
X151525898Y-96536629D01*
X151483038Y-97028206D01*
X132582669Y-97028206D01*
X132807499Y-96803376D01*
X133062160Y-96422248D01*
X133237574Y-95998761D01*
X133327000Y-95549189D01*
X133327000Y-95090811D01*
X133237574Y-94641239D01*
X133062160Y-94217752D01*
X132883797Y-93950811D01*
X135173000Y-93950811D01*
X135173000Y-94409189D01*
X135262426Y-94858761D01*
X135437840Y-95282248D01*
X135692501Y-95663376D01*
X136016624Y-95987499D01*
X136397752Y-96242160D01*
X136821239Y-96417574D01*
X137270811Y-96507000D01*
X137729189Y-96507000D01*
X138178761Y-96417574D01*
X138602248Y-96242160D01*
X138983376Y-95987499D01*
X139307499Y-95663376D01*
X139562160Y-95282248D01*
X139737574Y-94858761D01*
X139827000Y-94409189D01*
X139827000Y-93950811D01*
X139737574Y-93501239D01*
X139562160Y-93077752D01*
X139312977Y-92704821D01*
X143003000Y-92704821D01*
X143003000Y-93295179D01*
X143118173Y-93874193D01*
X143344093Y-94419612D01*
X143672078Y-94910476D01*
X144089524Y-95327922D01*
X144580388Y-95655907D01*
X145125807Y-95881827D01*
X145704821Y-95997000D01*
X146295179Y-95997000D01*
X146874193Y-95881827D01*
X147419612Y-95655907D01*
X147910476Y-95327922D01*
X147993401Y-95244997D01*
X152424602Y-95244997D01*
X154000000Y-96820395D01*
X155575398Y-95244997D01*
X155374897Y-94891552D01*
X154937141Y-94663836D01*
X154463371Y-94525898D01*
X153971794Y-94483038D01*
X153481300Y-94536904D01*
X153010741Y-94685425D01*
X152625103Y-94891552D01*
X152424602Y-95244997D01*
X147993401Y-95244997D01*
X148327922Y-94910476D01*
X148655907Y-94419612D01*
X148881827Y-93874193D01*
X148997000Y-93295179D01*
X148997000Y-92704821D01*
X159003000Y-92704821D01*
X159003000Y-93295179D01*
X159118173Y-93874193D01*
X159344093Y-94419612D01*
X159672078Y-94910476D01*
X160089524Y-95327922D01*
X160580388Y-95655907D01*
X161125807Y-95881827D01*
X161704821Y-95997000D01*
X162295179Y-95997000D01*
X162874193Y-95881827D01*
X163419612Y-95655907D01*
X163910476Y-95327922D01*
X164327922Y-94910476D01*
X164655907Y-94419612D01*
X164881827Y-93874193D01*
X164997000Y-93295179D01*
X164997000Y-92704821D01*
X164881827Y-92125807D01*
X164655907Y-91580388D01*
X164327922Y-91089524D01*
X163910476Y-90672078D01*
X163419612Y-90344093D01*
X162874193Y-90118173D01*
X162295179Y-90003000D01*
X161704821Y-90003000D01*
X161125807Y-90118173D01*
X160580388Y-90344093D01*
X160089524Y-90672078D01*
X159672078Y-91089524D01*
X159344093Y-91580388D01*
X159118173Y-92125807D01*
X159003000Y-92704821D01*
X148997000Y-92704821D01*
X148881827Y-92125807D01*
X148655907Y-91580388D01*
X148327922Y-91089524D01*
X147993401Y-90755003D01*
X152424602Y-90755003D01*
X152625103Y-91108448D01*
X153062859Y-91336164D01*
X153536629Y-91474102D01*
X154028206Y-91516962D01*
X154518700Y-91463096D01*
X154989259Y-91314575D01*
X155374897Y-91108448D01*
X155575398Y-90755003D01*
X154000000Y-89179605D01*
X152424602Y-90755003D01*
X147993401Y-90755003D01*
X147910476Y-90672078D01*
X147419612Y-90344093D01*
X146874193Y-90118173D01*
X146295179Y-90003000D01*
X145704821Y-90003000D01*
X145125807Y-90118173D01*
X144580388Y-90344093D01*
X144089524Y-90672078D01*
X143672078Y-91089524D01*
X143344093Y-91580388D01*
X143118173Y-92125807D01*
X143003000Y-92704821D01*
X139312977Y-92704821D01*
X139307499Y-92696624D01*
X139127000Y-92516125D01*
X139127000Y-89028206D01*
X151483038Y-89028206D01*
X151536904Y-89518700D01*
X151685425Y-89989259D01*
X151891552Y-90374897D01*
X152244997Y-90575398D01*
X153820395Y-89000000D01*
X154179605Y-89000000D01*
X155755003Y-90575398D01*
X156108448Y-90374897D01*
X156336164Y-89937141D01*
X156474102Y-89463371D01*
X156516962Y-88971794D01*
X156463096Y-88481300D01*
X156314575Y-88010741D01*
X156108448Y-87625103D01*
X155755003Y-87424602D01*
X154179605Y-89000000D01*
X153820395Y-89000000D01*
X152244997Y-87424602D01*
X151891552Y-87625103D01*
X151663836Y-88062859D01*
X151525898Y-88536629D01*
X151483038Y-89028206D01*
X139127000Y-89028206D01*
X139127000Y-88673925D01*
X140555928Y-87244997D01*
X152424602Y-87244997D01*
X154000000Y-88820395D01*
X155575398Y-87244997D01*
X155374897Y-86891552D01*
X154937141Y-86663836D01*
X154463371Y-86525898D01*
X153971794Y-86483038D01*
X153481300Y-86536904D01*
X153010741Y-86685425D01*
X152625103Y-86891552D01*
X152424602Y-87244997D01*
X140555928Y-87244997D01*
X143096104Y-84704821D01*
X159003000Y-84704821D01*
X159003000Y-85295179D01*
X159118173Y-85874193D01*
X159344093Y-86419612D01*
X159672078Y-86910476D01*
X160089524Y-87327922D01*
X160580388Y-87655907D01*
X161125807Y-87881827D01*
X161704821Y-87997000D01*
X162295179Y-87997000D01*
X162874193Y-87881827D01*
X163419612Y-87655907D01*
X163910476Y-87327922D01*
X164327922Y-86910476D01*
X164655907Y-86419612D01*
X164881827Y-85874193D01*
X164997000Y-85295179D01*
X164997000Y-84704821D01*
X164881827Y-84125807D01*
X164655907Y-83580388D01*
X164327922Y-83089524D01*
X163910476Y-82672078D01*
X163419612Y-82344093D01*
X162874193Y-82118173D01*
X162295179Y-82003000D01*
X161704821Y-82003000D01*
X161125807Y-82118173D01*
X160580388Y-82344093D01*
X160089524Y-82672078D01*
X159672078Y-83089524D01*
X159344093Y-83580388D01*
X159118173Y-84125807D01*
X159003000Y-84704821D01*
X143096104Y-84704821D01*
X145968473Y-81832453D01*
X147200000Y-81832453D01*
X147420931Y-81810693D01*
X147633371Y-81746250D01*
X147829157Y-81641600D01*
X148000765Y-81500765D01*
X148141600Y-81329157D01*
X148246250Y-81133371D01*
X148310693Y-80920931D01*
X148324772Y-80777980D01*
X149901626Y-80777980D01*
X150021514Y-81062836D01*
X150345210Y-81223699D01*
X150694069Y-81318322D01*
X151054684Y-81343067D01*
X151413198Y-81296985D01*
X151755833Y-81181846D01*
X151978486Y-81062836D01*
X152098374Y-80777980D01*
X151000000Y-79679605D01*
X149901626Y-80777980D01*
X148324772Y-80777980D01*
X148332453Y-80700000D01*
X148332453Y-79554684D01*
X149156933Y-79554684D01*
X149203015Y-79913198D01*
X149318154Y-80255833D01*
X149437164Y-80478486D01*
X149722020Y-80598374D01*
X150820395Y-79500000D01*
X151179605Y-79500000D01*
X152277980Y-80598374D01*
X152562836Y-80478486D01*
X152723699Y-80154790D01*
X152818322Y-79805931D01*
X152843067Y-79445316D01*
X152796985Y-79086802D01*
X152681846Y-78744167D01*
X152562836Y-78521514D01*
X152277980Y-78401626D01*
X151179605Y-79500000D01*
X150820395Y-79500000D01*
X149722020Y-78401626D01*
X149437164Y-78521514D01*
X149276301Y-78845210D01*
X149181678Y-79194069D01*
X149156933Y-79554684D01*
X148332453Y-79554684D01*
X148332453Y-78300000D01*
X148324773Y-78222020D01*
X149901626Y-78222020D01*
X151000000Y-79320395D01*
X152098374Y-78222020D01*
X151978486Y-77937164D01*
X151654790Y-77776301D01*
X151305931Y-77681678D01*
X150945316Y-77656933D01*
X150586802Y-77703015D01*
X150244167Y-77818154D01*
X150021514Y-77937164D01*
X149901626Y-78222020D01*
X148324773Y-78222020D01*
X148310693Y-78079069D01*
X148246250Y-77866629D01*
X148141600Y-77670843D01*
X148000765Y-77499235D01*
X147829157Y-77358400D01*
X147633371Y-77253750D01*
X147420931Y-77189307D01*
X147200000Y-77167547D01*
X144800000Y-77167547D01*
X144579069Y-77189307D01*
X144366629Y-77253750D01*
X144170843Y-77358400D01*
X143999235Y-77499235D01*
X143858400Y-77670843D01*
X143753750Y-77866629D01*
X143689307Y-78079069D01*
X143667547Y-78300000D01*
X143667547Y-79531527D01*
X136406050Y-86793025D01*
X136343972Y-86843971D01*
X136293026Y-86906049D01*
X136293022Y-86906053D01*
X136171410Y-87054239D01*
X136140655Y-87091714D01*
X135989576Y-87374362D01*
X135896543Y-87681052D01*
X135883504Y-87813437D01*
X135865129Y-88000000D01*
X135873001Y-88079924D01*
X135873000Y-92516125D01*
X135692501Y-92696624D01*
X135437840Y-93077752D01*
X135262426Y-93501239D01*
X135173000Y-93950811D01*
X132883797Y-93950811D01*
X132807499Y-93836624D01*
X132483376Y-93512501D01*
X132102248Y-93257840D01*
X131678761Y-93082426D01*
X131229189Y-92993000D01*
X130770811Y-92993000D01*
X130321239Y-93082426D01*
X129897752Y-93257840D01*
X129516624Y-93512501D01*
X129192501Y-93836624D01*
X128937840Y-94217752D01*
X128762426Y-94641239D01*
X128673000Y-95090811D01*
X128640261Y-95090811D01*
X128640476Y-95089417D01*
X128635000Y-94964251D01*
X128635000Y-94919678D01*
X128631491Y-94884054D01*
X128626399Y-94767657D01*
X128615738Y-94724105D01*
X128611343Y-94679484D01*
X128577522Y-94567992D01*
X128549820Y-94454826D01*
X128530868Y-94414192D01*
X128517852Y-94371285D01*
X128462931Y-94268534D01*
X128413683Y-94162947D01*
X128387167Y-94126791D01*
X128366031Y-94087248D01*
X128292115Y-93997181D01*
X128223218Y-93903235D01*
X128190162Y-93872950D01*
X128161714Y-93838286D01*
X128071643Y-93764367D01*
X128045257Y-93740193D01*
X128009607Y-93713455D01*
X127912752Y-93633969D01*
X127880986Y-93616990D01*
X126635000Y-92682500D01*
X126635000Y-78907606D01*
X126945761Y-78596845D01*
X127219903Y-78186563D01*
X127408735Y-77730682D01*
X127505000Y-77246721D01*
X127505000Y-76753279D01*
X127408735Y-76269318D01*
X127219903Y-75813437D01*
X126945761Y-75403155D01*
X126596845Y-75054239D01*
X126186563Y-74780097D01*
X125730682Y-74591265D01*
X125246721Y-74495000D01*
X124753279Y-74495000D01*
X124269318Y-74591265D01*
X123813437Y-74780097D01*
X123403155Y-75054239D01*
X123054239Y-75403155D01*
X122780097Y-75813437D01*
X122591265Y-76269318D01*
X122495000Y-76753279D01*
X122495000Y-77246721D01*
X122591265Y-77730682D01*
X122780097Y-78186563D01*
X123054239Y-78596845D01*
X123365001Y-78907607D01*
X123365000Y-93374985D01*
X123359524Y-93410584D01*
X123360509Y-93433098D01*
X123184798Y-93360316D01*
X122770969Y-93278000D01*
X122402084Y-93278000D01*
X122469684Y-93114798D01*
X122552000Y-92700969D01*
X122552000Y-92279031D01*
X122469684Y-91865202D01*
X122308216Y-91475383D01*
X122073800Y-91124555D01*
X121775445Y-90826200D01*
X121424617Y-90591784D01*
X121034798Y-90430316D01*
X120620969Y-90348000D01*
X120199031Y-90348000D01*
X119785202Y-90430316D01*
X119395383Y-90591784D01*
X119044555Y-90826200D01*
X118746200Y-91124555D01*
X118600000Y-91343359D01*
X118600000Y-91187489D01*
X118536592Y-90868713D01*
X118412211Y-90568432D01*
X118231639Y-90298186D01*
X118001814Y-90068361D01*
X117731568Y-89887789D01*
X117431287Y-89763408D01*
X117112511Y-89700000D01*
X116787489Y-89700000D01*
X116468713Y-89763408D01*
X116168432Y-89887789D01*
X115898186Y-90068361D01*
X115668361Y-90298186D01*
X115487789Y-90568432D01*
X115363408Y-90868713D01*
X115300000Y-91187489D01*
X114520577Y-91187489D01*
X114281568Y-91027789D01*
X113981287Y-90903408D01*
X113662511Y-90840000D01*
X113337489Y-90840000D01*
X113018713Y-90903408D01*
X112718432Y-91027789D01*
X112448186Y-91208361D01*
X112218361Y-91438186D01*
X112037789Y-91708432D01*
X111913408Y-92008713D01*
X111850000Y-92327489D01*
X67710000Y-92327489D01*
X67710000Y-88753279D01*
X69495000Y-88753279D01*
X69495000Y-89246721D01*
X69591265Y-89730682D01*
X69780097Y-90186563D01*
X70054239Y-90596845D01*
X70403155Y-90945761D01*
X70813437Y-91219903D01*
X71269318Y-91408735D01*
X71753279Y-91505000D01*
X72246721Y-91505000D01*
X72730682Y-91408735D01*
X73186563Y-91219903D01*
X73596845Y-90945761D01*
X73945761Y-90596845D01*
X74219903Y-90186563D01*
X74408735Y-89730682D01*
X74505000Y-89246721D01*
X74505000Y-88858665D01*
X76565000Y-88858665D01*
X76565000Y-89141335D01*
X76620147Y-89418574D01*
X76728320Y-89679727D01*
X76885363Y-89914759D01*
X77085241Y-90114637D01*
X77320273Y-90271680D01*
X77581426Y-90379853D01*
X77858665Y-90435000D01*
X78141335Y-90435000D01*
X78418574Y-90379853D01*
X78679727Y-90271680D01*
X78914759Y-90114637D01*
X79114637Y-89914759D01*
X79271680Y-89679727D01*
X79379853Y-89418574D01*
X79435000Y-89141335D01*
X79435000Y-88858665D01*
X81565000Y-88858665D01*
X81565000Y-89141335D01*
X81620147Y-89418574D01*
X81728320Y-89679727D01*
X81885363Y-89914759D01*
X82085241Y-90114637D01*
X82320273Y-90271680D01*
X82581426Y-90379853D01*
X82858665Y-90435000D01*
X83141335Y-90435000D01*
X83418574Y-90379853D01*
X83679727Y-90271680D01*
X83914759Y-90114637D01*
X84114637Y-89914759D01*
X84271680Y-89679727D01*
X84379853Y-89418574D01*
X84435000Y-89141335D01*
X84435000Y-88858665D01*
X88565000Y-88858665D01*
X88565000Y-89141335D01*
X88620147Y-89418574D01*
X88728320Y-89679727D01*
X88885363Y-89914759D01*
X89085241Y-90114637D01*
X89320273Y-90271680D01*
X89581426Y-90379853D01*
X89858665Y-90435000D01*
X90141335Y-90435000D01*
X90418574Y-90379853D01*
X90679727Y-90271680D01*
X90914759Y-90114637D01*
X91114637Y-89914759D01*
X91271680Y-89679727D01*
X91379853Y-89418574D01*
X91435000Y-89141335D01*
X91435000Y-88858665D01*
X98725000Y-88858665D01*
X98725000Y-89141335D01*
X98780147Y-89418574D01*
X98888320Y-89679727D01*
X99045363Y-89914759D01*
X99245241Y-90114637D01*
X99480273Y-90271680D01*
X99741426Y-90379853D01*
X100018665Y-90435000D01*
X100301335Y-90435000D01*
X100578574Y-90379853D01*
X100839727Y-90271680D01*
X101074759Y-90114637D01*
X101274637Y-89914759D01*
X101431680Y-89679727D01*
X101539853Y-89418574D01*
X101595000Y-89141335D01*
X101595000Y-88858665D01*
X101539853Y-88581426D01*
X101431680Y-88320273D01*
X101274637Y-88085241D01*
X101074759Y-87885363D01*
X100839727Y-87728320D01*
X100578574Y-87620147D01*
X100301335Y-87565000D01*
X100018665Y-87565000D01*
X99741426Y-87620147D01*
X99480273Y-87728320D01*
X99245241Y-87885363D01*
X99045363Y-88085241D01*
X98888320Y-88320273D01*
X98780147Y-88581426D01*
X98725000Y-88858665D01*
X91435000Y-88858665D01*
X91379853Y-88581426D01*
X91271680Y-88320273D01*
X91114637Y-88085241D01*
X90914759Y-87885363D01*
X90679727Y-87728320D01*
X90418574Y-87620147D01*
X90141335Y-87565000D01*
X89858665Y-87565000D01*
X89581426Y-87620147D01*
X89320273Y-87728320D01*
X89085241Y-87885363D01*
X88885363Y-88085241D01*
X88728320Y-88320273D01*
X88620147Y-88581426D01*
X88565000Y-88858665D01*
X84435000Y-88858665D01*
X84379853Y-88581426D01*
X84271680Y-88320273D01*
X84114637Y-88085241D01*
X83914759Y-87885363D01*
X83679727Y-87728320D01*
X83418574Y-87620147D01*
X83141335Y-87565000D01*
X82858665Y-87565000D01*
X82581426Y-87620147D01*
X82320273Y-87728320D01*
X82085241Y-87885363D01*
X81885363Y-88085241D01*
X81728320Y-88320273D01*
X81620147Y-88581426D01*
X81565000Y-88858665D01*
X79435000Y-88858665D01*
X79379853Y-88581426D01*
X79271680Y-88320273D01*
X79114637Y-88085241D01*
X78914759Y-87885363D01*
X78679727Y-87728320D01*
X78418574Y-87620147D01*
X78141335Y-87565000D01*
X77858665Y-87565000D01*
X77581426Y-87620147D01*
X77320273Y-87728320D01*
X77085241Y-87885363D01*
X76885363Y-88085241D01*
X76728320Y-88320273D01*
X76620147Y-88581426D01*
X76565000Y-88858665D01*
X74505000Y-88858665D01*
X74505000Y-88753279D01*
X74408735Y-88269318D01*
X74219903Y-87813437D01*
X73945761Y-87403155D01*
X73596845Y-87054239D01*
X73186563Y-86780097D01*
X72730682Y-86591265D01*
X72246721Y-86495000D01*
X71753279Y-86495000D01*
X71269318Y-86591265D01*
X70813437Y-86780097D01*
X70403155Y-87054239D01*
X70054239Y-87403155D01*
X69780097Y-87813437D01*
X69591265Y-88269318D01*
X69495000Y-88753279D01*
X67710000Y-88753279D01*
X67710000Y-83858665D01*
X83405000Y-83858665D01*
X83405000Y-84141335D01*
X83460147Y-84418574D01*
X83568320Y-84679727D01*
X83725363Y-84914759D01*
X83925241Y-85114637D01*
X84160273Y-85271680D01*
X84421426Y-85379853D01*
X84698665Y-85435000D01*
X84981335Y-85435000D01*
X85258574Y-85379853D01*
X85519727Y-85271680D01*
X85754759Y-85114637D01*
X85954637Y-84914759D01*
X86111680Y-84679727D01*
X86219853Y-84418574D01*
X86275000Y-84141335D01*
X86275000Y-83858665D01*
X93565000Y-83858665D01*
X93565000Y-84141335D01*
X93620147Y-84418574D01*
X93728320Y-84679727D01*
X93885363Y-84914759D01*
X94085241Y-85114637D01*
X94320273Y-85271680D01*
X94581426Y-85379853D01*
X94858665Y-85435000D01*
X95141335Y-85435000D01*
X95418574Y-85379853D01*
X95679727Y-85271680D01*
X95914759Y-85114637D01*
X96114637Y-84914759D01*
X96271680Y-84679727D01*
X96379853Y-84418574D01*
X96435000Y-84141335D01*
X96435000Y-83858665D01*
X96379853Y-83581426D01*
X96271680Y-83320273D01*
X96114637Y-83085241D01*
X95914759Y-82885363D01*
X95679727Y-82728320D01*
X95418574Y-82620147D01*
X95141335Y-82565000D01*
X94858665Y-82565000D01*
X94581426Y-82620147D01*
X94320273Y-82728320D01*
X94085241Y-82885363D01*
X93885363Y-83085241D01*
X93728320Y-83320273D01*
X93620147Y-83581426D01*
X93565000Y-83858665D01*
X86275000Y-83858665D01*
X86219853Y-83581426D01*
X86111680Y-83320273D01*
X85954637Y-83085241D01*
X85754759Y-82885363D01*
X85519727Y-82728320D01*
X85258574Y-82620147D01*
X84981335Y-82565000D01*
X84698665Y-82565000D01*
X84421426Y-82620147D01*
X84160273Y-82728320D01*
X83925241Y-82885363D01*
X83725363Y-83085241D01*
X83568320Y-83320273D01*
X83460147Y-83581426D01*
X83405000Y-83858665D01*
X67710000Y-83858665D01*
X67710000Y-76622285D01*
X68165000Y-76622285D01*
X68165000Y-77377715D01*
X68312377Y-78118628D01*
X68601467Y-78816554D01*
X69021161Y-79444670D01*
X69555330Y-79978839D01*
X70183446Y-80398533D01*
X70881372Y-80687623D01*
X71622285Y-80835000D01*
X72377715Y-80835000D01*
X73118628Y-80687623D01*
X73816554Y-80398533D01*
X74444670Y-79978839D01*
X74978839Y-79444670D01*
X75398533Y-78816554D01*
X75424028Y-78755003D01*
X79424602Y-78755003D01*
X79625103Y-79108448D01*
X80062859Y-79336164D01*
X80536629Y-79474102D01*
X81028206Y-79516962D01*
X81518700Y-79463096D01*
X81989259Y-79314575D01*
X82374897Y-79108448D01*
X82575398Y-78755003D01*
X81000000Y-77179605D01*
X79424602Y-78755003D01*
X75424028Y-78755003D01*
X75687623Y-78118628D01*
X75835000Y-77377715D01*
X75835000Y-77028206D01*
X78483038Y-77028206D01*
X78536904Y-77518700D01*
X78685425Y-77989259D01*
X78891552Y-78374897D01*
X79244997Y-78575398D01*
X80820395Y-77000000D01*
X81179605Y-77000000D01*
X82755003Y-78575398D01*
X83108448Y-78374897D01*
X83336164Y-77937141D01*
X83336624Y-77935560D01*
X91664045Y-77935560D01*
X91725932Y-78171368D01*
X91967790Y-78284266D01*
X92227027Y-78347811D01*
X92493680Y-78359561D01*
X92757501Y-78319063D01*
X93008353Y-78227875D01*
X93114068Y-78171368D01*
X93175955Y-77935560D01*
X92420000Y-77179605D01*
X91664045Y-77935560D01*
X83336624Y-77935560D01*
X83474102Y-77463371D01*
X83508078Y-77073680D01*
X91060439Y-77073680D01*
X91100937Y-77337501D01*
X91192125Y-77588353D01*
X91248632Y-77694068D01*
X91484440Y-77755955D01*
X92240395Y-77000000D01*
X92599605Y-77000000D01*
X93355560Y-77755955D01*
X93591368Y-77694068D01*
X93691764Y-77478993D01*
X93759215Y-77641833D01*
X93907503Y-77863762D01*
X94096238Y-78052497D01*
X94318167Y-78200785D01*
X94564761Y-78302928D01*
X94826544Y-78355000D01*
X95093456Y-78355000D01*
X95355239Y-78302928D01*
X95601833Y-78200785D01*
X95823762Y-78052497D01*
X96012497Y-77863762D01*
X96160785Y-77641833D01*
X96230000Y-77474734D01*
X96299215Y-77641833D01*
X96447503Y-77863762D01*
X96636238Y-78052497D01*
X96858167Y-78200785D01*
X97104761Y-78302928D01*
X97366544Y-78355000D01*
X97633456Y-78355000D01*
X97895239Y-78302928D01*
X98141833Y-78200785D01*
X98363762Y-78052497D01*
X98552497Y-77863762D01*
X98700785Y-77641833D01*
X98802928Y-77395239D01*
X98855000Y-77133456D01*
X98855000Y-76866544D01*
X98832471Y-76753279D01*
X106495000Y-76753279D01*
X106495000Y-77246721D01*
X106591265Y-77730682D01*
X106780097Y-78186563D01*
X107054239Y-78596845D01*
X107403155Y-78945761D01*
X107813437Y-79219903D01*
X108269318Y-79408735D01*
X108753279Y-79505000D01*
X109246721Y-79505000D01*
X109730682Y-79408735D01*
X110186563Y-79219903D01*
X110596845Y-78945761D01*
X110945761Y-78596845D01*
X111219903Y-78186563D01*
X111408735Y-77730682D01*
X111505000Y-77246721D01*
X111505000Y-76753279D01*
X114495000Y-76753279D01*
X114495000Y-77246721D01*
X114591265Y-77730682D01*
X114780097Y-78186563D01*
X115054239Y-78596845D01*
X115403155Y-78945761D01*
X115813437Y-79219903D01*
X116269318Y-79408735D01*
X116753279Y-79505000D01*
X117246721Y-79505000D01*
X117730682Y-79408735D01*
X118186563Y-79219903D01*
X118596845Y-78945761D01*
X118945761Y-78596845D01*
X119219903Y-78186563D01*
X119408735Y-77730682D01*
X119505000Y-77246721D01*
X119505000Y-76753279D01*
X119408735Y-76269318D01*
X119219903Y-75813437D01*
X118945761Y-75403155D01*
X118596845Y-75054239D01*
X118186563Y-74780097D01*
X117730682Y-74591265D01*
X117246721Y-74495000D01*
X116753279Y-74495000D01*
X116269318Y-74591265D01*
X115813437Y-74780097D01*
X115403155Y-75054239D01*
X115054239Y-75403155D01*
X114780097Y-75813437D01*
X114591265Y-76269318D01*
X114495000Y-76753279D01*
X111505000Y-76753279D01*
X111408735Y-76269318D01*
X111219903Y-75813437D01*
X110945761Y-75403155D01*
X110596845Y-75054239D01*
X110186563Y-74780097D01*
X109730682Y-74591265D01*
X109246721Y-74495000D01*
X108753279Y-74495000D01*
X108269318Y-74591265D01*
X107813437Y-74780097D01*
X107403155Y-75054239D01*
X107054239Y-75403155D01*
X106780097Y-75813437D01*
X106591265Y-76269318D01*
X106495000Y-76753279D01*
X98832471Y-76753279D01*
X98802928Y-76604761D01*
X98700785Y-76358167D01*
X98552497Y-76136238D01*
X98363762Y-75947503D01*
X98141833Y-75799215D01*
X97895239Y-75697072D01*
X97633456Y-75645000D01*
X97366544Y-75645000D01*
X97104761Y-75697072D01*
X96858167Y-75799215D01*
X96636238Y-75947503D01*
X96447503Y-76136238D01*
X96299215Y-76358167D01*
X96230000Y-76525266D01*
X96160785Y-76358167D01*
X96012497Y-76136238D01*
X95823762Y-75947503D01*
X95601833Y-75799215D01*
X95355239Y-75697072D01*
X95093456Y-75645000D01*
X94826544Y-75645000D01*
X94564761Y-75697072D01*
X94318167Y-75799215D01*
X94096238Y-75947503D01*
X93907503Y-76136238D01*
X93759215Y-76358167D01*
X93689562Y-76526324D01*
X93647875Y-76411647D01*
X93591368Y-76305932D01*
X93355560Y-76244045D01*
X92599605Y-77000000D01*
X92240395Y-77000000D01*
X91484440Y-76244045D01*
X91248632Y-76305932D01*
X91135734Y-76547790D01*
X91072189Y-76807027D01*
X91060439Y-77073680D01*
X83508078Y-77073680D01*
X83516962Y-76971794D01*
X83463096Y-76481300D01*
X83331524Y-76064440D01*
X91664045Y-76064440D01*
X92420000Y-76820395D01*
X93175955Y-76064440D01*
X93114068Y-75828632D01*
X92872210Y-75715734D01*
X92612973Y-75652189D01*
X92346320Y-75640439D01*
X92082499Y-75680937D01*
X91831647Y-75772125D01*
X91725932Y-75828632D01*
X91664045Y-76064440D01*
X83331524Y-76064440D01*
X83314575Y-76010741D01*
X83108448Y-75625103D01*
X82755003Y-75424602D01*
X81179605Y-77000000D01*
X80820395Y-77000000D01*
X79244997Y-75424602D01*
X78891552Y-75625103D01*
X78663836Y-76062859D01*
X78525898Y-76536629D01*
X78483038Y-77028206D01*
X75835000Y-77028206D01*
X75835000Y-76622285D01*
X75687623Y-75881372D01*
X75424029Y-75244997D01*
X79424602Y-75244997D01*
X81000000Y-76820395D01*
X82575398Y-75244997D01*
X82374897Y-74891552D01*
X81937141Y-74663836D01*
X81463371Y-74525898D01*
X80971794Y-74483038D01*
X80481300Y-74536904D01*
X80010741Y-74685425D01*
X79625103Y-74891552D01*
X79424602Y-75244997D01*
X75424029Y-75244997D01*
X75398533Y-75183446D01*
X74978839Y-74555330D01*
X74444670Y-74021161D01*
X73816554Y-73601467D01*
X73118628Y-73312377D01*
X72377715Y-73165000D01*
X71622285Y-73165000D01*
X70881372Y-73312377D01*
X70183446Y-73601467D01*
X69555330Y-74021161D01*
X69021161Y-74555330D01*
X68601467Y-75183446D01*
X68312377Y-75881372D01*
X68165000Y-76622285D01*
X67710000Y-76622285D01*
X67710000Y-72710000D01*
X130584801Y-72710000D01*
X130321239Y-72762426D01*
%TD*%
M02*
