M48
; DRILL file {KiCad 5.1.6-c6e7f7d~87~ubuntu20.04.1} date Sat Aug 29 21:47:56 2020
; FORMAT={-:-/ absolute / inch / decimal}
; #@! TF.CreationDate,2020-08-29T21:47:56-04:00
; #@! TF.GenerationSoftware,Kicad,Pcbnew,5.1.6-c6e7f7d~87~ubuntu20.04.1
; #@! TF.FileFunction,Plated,1,2,PTH
FMAT,2
INCH
T1C0.0197
T2C0.0315
T3C0.0402
T4C0.0472
T5C0.0512
T6C0.0980
T7C0.1260
%
G90
G05
T1
X6.2835Y-3.0315
X6.3111Y-2.9647
X6.3111Y-3.0983
X6.378Y-2.937
X6.378Y-3.126
X6.4448Y-2.9647
X6.4448Y-3.0983
X6.4724Y-3.0315
X2.7402Y-3.0315
X2.7678Y-2.9647
X2.7678Y-3.0983
X2.8346Y-2.937
X2.8346Y-3.126
X2.9015Y-2.9647
X2.9015Y-3.0983
X2.9291Y-3.0315
X2.7402Y-4.6063
X2.7678Y-4.5395
X2.7678Y-4.6731
X2.8346Y-4.5118
X2.8346Y-4.7008
X2.9015Y-4.5395
X2.9015Y-4.6731
X2.9291Y-4.6063
X6.2835Y-4.6063
X6.3111Y-4.5395
X6.3111Y-4.6731
X6.378Y-4.5118
X6.378Y-4.7008
X6.4448Y-4.5395
X6.4448Y-4.6731
X6.4724Y-4.6063
T2
X3.5433Y-3.5039
X3.9433Y-3.5039
X3.5433Y-4.1339
X3.9433Y-4.1339
X3.3402Y-3.3071
X3.7402Y-3.3071
X3.6386Y-3.0315
X3.7386Y-3.0315
X3.8386Y-3.0315
X3.0709Y-4.1339
X3.2677Y-4.1339
X3.3402Y-4.3307
X3.7402Y-4.3307
X3.6402Y-4.6063
X3.7402Y-4.6063
X3.8402Y-4.6063
X3.0709Y-3.5039
X3.2677Y-3.5039
T3
X4.3839Y-3.7567
X4.3839Y-3.9004
X4.4685Y-3.6413
X4.4685Y-4.0157
X4.6043Y-3.5965
X4.7406Y-3.6413
X4.7406Y-4.0157
X4.8252Y-3.7567
X4.8252Y-3.8988
T4
X5.748Y-3.1299
X5.9449Y-3.1299
X5.4134Y-3.7079
X5.4134Y-4.5079
X5.1575Y-2.9528
X5.1575Y-3.7528
X5.748Y-4.5079
X5.9449Y-4.5079
T5
X3.3465Y-3.8189
X3.9465Y-3.8189
T6
X6.063Y-3.8189
X3.189Y-3.0315
X2.8346Y-4.1339
X6.378Y-3.3465
X2.8346Y-3.5039
X6.378Y-3.6614
X6.063Y-4.1339
X3.189Y-4.6063
X5.748Y-3.9764
X6.378Y-4.2913
X6.378Y-3.9764
X5.748Y-3.6614
X4.2913Y-3.0315
X4.6063Y-3.0315
X2.8346Y-3.8189
X4.9213Y-3.0315
X6.063Y-3.5039
T7
X6.378Y-3.0315
X2.8346Y-3.0315
X2.8346Y-4.6063
X6.378Y-4.6063
T0
M30
