%TF.GenerationSoftware,KiCad,Pcbnew,5.1.6-c6e7f7d~87~ubuntu20.04.1*%
%TF.CreationDate,2020-08-29T22:12:38-04:00*%
%TF.ProjectId,Tube AMP GU17 Power Output Stage,54756265-2041-44d5-9020-475531372050,rev?*%
%TF.SameCoordinates,Original*%
%TF.FileFunction,Copper,L1,Top*%
%TF.FilePolarity,Positive*%
%FSLAX46Y46*%
G04 Gerber Fmt 4.6, Leading zero omitted, Abs format (unit mm)*
G04 Created by KiCad (PCBNEW 5.1.6-c6e7f7d~87~ubuntu20.04.1) date 2020-08-29 22:12:38*
%MOMM*%
%LPD*%
G01*
G04 APERTURE LIST*
%TA.AperFunction,ComponentPad*%
%ADD10C,3.740000*%
%TD*%
%TA.AperFunction,ComponentPad*%
%ADD11C,1.440000*%
%TD*%
%TA.AperFunction,ComponentPad*%
%ADD12O,2.600000X2.600000*%
%TD*%
%TA.AperFunction,ComponentPad*%
%ADD13R,2.600000X2.600000*%
%TD*%
%TA.AperFunction,ComponentPad*%
%ADD14C,0.800000*%
%TD*%
%TA.AperFunction,ComponentPad*%
%ADD15C,6.400000*%
%TD*%
%TA.AperFunction,ComponentPad*%
%ADD16O,1.600000X1.600000*%
%TD*%
%TA.AperFunction,ComponentPad*%
%ADD17C,1.600000*%
%TD*%
%TA.AperFunction,ComponentPad*%
%ADD18C,2.030000*%
%TD*%
%TA.AperFunction,ComponentPad*%
%ADD19O,2.400000X2.400000*%
%TD*%
%TA.AperFunction,ComponentPad*%
%ADD20C,2.400000*%
%TD*%
%TA.AperFunction,ComponentPad*%
%ADD21R,2.400000X2.400000*%
%TD*%
%TA.AperFunction,Conductor*%
%ADD22C,1.000000*%
%TD*%
%TA.AperFunction,Conductor*%
%ADD23C,2.000000*%
%TD*%
G04 APERTURE END LIST*
D10*
%TO.P,J17,1*%
%TO.N,VSS*%
X146000000Y-93000000D03*
%TD*%
D11*
%TO.P,RV2,3*%
%TO.N,GND*%
X92420000Y-77000000D03*
%TO.P,RV2,2*%
%TO.N,Net-(R2-Pad1)*%
X94960000Y-77000000D03*
%TO.P,RV2,1*%
%TO.N,Net-(D1-Pad1)*%
X97500000Y-77000000D03*
%TD*%
%TO.P,RV1,3*%
%TO.N,GND*%
X92460000Y-117000000D03*
%TO.P,RV1,2*%
%TO.N,Net-(R1-Pad1)*%
X95000000Y-117000000D03*
%TO.P,RV1,1*%
%TO.N,Net-(D1-Pad1)*%
X97540000Y-117000000D03*
%TD*%
D12*
%TO.P,D1,2*%
%TO.N,GND*%
X85000000Y-97000000D03*
D13*
%TO.P,D1,1*%
%TO.N,Net-(D1-Pad1)*%
X100240000Y-97000000D03*
%TD*%
D10*
%TO.P,J16,1*%
%TO.N,VS*%
X162000000Y-93000000D03*
%TD*%
%TO.P,J15,1*%
%TO.N,Net-(J15-Pad1)*%
X117000000Y-77000000D03*
%TD*%
%TO.P,J14,1*%
%TO.N,Net-(J14-Pad1)*%
X125000000Y-77000000D03*
%TD*%
%TO.P,J13,1*%
%TO.N,Net-(J13-Pad1)*%
X109000000Y-77000000D03*
%TD*%
D14*
%TO.P,H4,1*%
%TO.N,Net-(H4-Pad1)*%
X73697056Y-115302944D03*
X72000000Y-114600000D03*
X70302944Y-115302944D03*
X69600000Y-117000000D03*
X70302944Y-118697056D03*
X72000000Y-119400000D03*
X73697056Y-118697056D03*
X74400000Y-117000000D03*
D15*
X72000000Y-117000000D03*
%TD*%
D14*
%TO.P,H3,1*%
%TO.N,Net-(H3-Pad1)*%
X163697056Y-115302944D03*
X162000000Y-114600000D03*
X160302944Y-115302944D03*
X159600000Y-117000000D03*
X160302944Y-118697056D03*
X162000000Y-119400000D03*
X163697056Y-118697056D03*
X164400000Y-117000000D03*
D15*
X162000000Y-117000000D03*
%TD*%
D14*
%TO.P,H2,1*%
%TO.N,Net-(H2-Pad1)*%
X163697056Y-75302944D03*
X162000000Y-74600000D03*
X160302944Y-75302944D03*
X159600000Y-77000000D03*
X160302944Y-78697056D03*
X162000000Y-79400000D03*
X163697056Y-78697056D03*
X164400000Y-77000000D03*
D15*
X162000000Y-77000000D03*
%TD*%
D14*
%TO.P,H1,1*%
%TO.N,Net-(H1-Pad1)*%
X73697056Y-75302944D03*
X72000000Y-74600000D03*
X70302944Y-75302944D03*
X69600000Y-77000000D03*
X70302944Y-78697056D03*
X72000000Y-79400000D03*
X73697056Y-78697056D03*
X74400000Y-77000000D03*
D15*
X72000000Y-77000000D03*
%TD*%
D16*
%TO.P,R7,2*%
%TO.N,Net-(R7-Pad2)*%
X100160000Y-89000000D03*
D17*
%TO.P,R7,1*%
%TO.N,Net-(C2-Pad2)*%
X90000000Y-89000000D03*
%TD*%
D16*
%TO.P,R3,2*%
%TO.N,Net-(C1-Pad2)*%
X90000000Y-105000000D03*
D17*
%TO.P,R3,1*%
%TO.N,Net-(R3-Pad1)*%
X100160000Y-105000000D03*
%TD*%
D16*
%TO.P,R2,2*%
%TO.N,Net-(C2-Pad2)*%
X84840000Y-84000000D03*
D17*
%TO.P,R2,1*%
%TO.N,Net-(R2-Pad1)*%
X95000000Y-84000000D03*
%TD*%
D16*
%TO.P,R1,2*%
%TO.N,Net-(C1-Pad2)*%
X84840000Y-110000000D03*
D17*
%TO.P,R1,1*%
%TO.N,Net-(R1-Pad1)*%
X95000000Y-110000000D03*
%TD*%
D10*
%TO.P,J12,1*%
%TO.N,Net-(J12-Pad1)*%
X162000000Y-109000000D03*
%TD*%
%TO.P,J11,1*%
%TO.N,VS*%
X162000000Y-101000000D03*
%TD*%
%TO.P,J10,1*%
%TO.N,Net-(J10-Pad1)*%
X162000000Y-85000000D03*
%TD*%
%TO.P,J9,1*%
%TO.N,GND*%
X154000000Y-89000000D03*
%TD*%
%TO.P,J8,1*%
%TO.N,VSS*%
X146000000Y-101000000D03*
%TD*%
%TO.P,J7,1*%
%TO.N,GND*%
X154000000Y-97000000D03*
%TD*%
%TO.P,J6,1*%
%TO.N,GND*%
X154000000Y-105000000D03*
%TD*%
%TO.P,J5,1*%
%TO.N,GND*%
X81000000Y-117000000D03*
%TD*%
%TO.P,J4,1*%
%TO.N,GND*%
X81000000Y-77000000D03*
%TD*%
D18*
%TO.P,V1,9*%
%TO.N,Net-(J14-Pad1)*%
X120410000Y-102000000D03*
%TO.P,V1,8*%
%TO.N,Net-(J12-Pad1)*%
X122560000Y-99030000D03*
%TO.P,V1,7*%
%TO.N,Net-(R4-Pad1)*%
X122560000Y-95420000D03*
%TO.P,V1,6*%
%TO.N,Net-(J10-Pad1)*%
X120410000Y-92490000D03*
%TO.P,V1,5*%
%TO.N,Net-(J15-Pad1)*%
X116950000Y-91350000D03*
%TO.P,V1,4*%
%TO.N,Net-(J13-Pad1)*%
X113500000Y-92490000D03*
%TO.P,V1,3*%
%TO.N,Net-(R7-Pad2)*%
X111350000Y-95420000D03*
%TO.P,V1,2*%
%TO.N,Net-(D1-Pad1)*%
X111350000Y-99070000D03*
%TO.P,V1,1*%
%TO.N,Net-(R3-Pad1)*%
X113500000Y-102000000D03*
%TD*%
D19*
%TO.P,R5,2*%
%TO.N,VSS*%
X137500000Y-114500000D03*
D20*
%TO.P,R5,1*%
%TO.N,Net-(C4-Pad1)*%
X137500000Y-94180000D03*
%TD*%
D19*
%TO.P,R4,2*%
%TO.N,Net-(C4-Pad1)*%
X131000000Y-75000000D03*
D20*
%TO.P,R4,1*%
%TO.N,Net-(R4-Pad1)*%
X131000000Y-95320000D03*
%TD*%
D10*
%TO.P,J3,1*%
%TO.N,Net-(C1-Pad1)*%
X72000000Y-105000000D03*
%TD*%
%TO.P,J2,1*%
%TO.N,GND*%
X72000000Y-97000000D03*
%TD*%
%TO.P,J1,1*%
%TO.N,Net-(C2-Pad1)*%
X72000000Y-89000000D03*
%TD*%
D20*
%TO.P,C5,2*%
%TO.N,GND*%
X151000000Y-114500000D03*
D21*
%TO.P,C5,1*%
%TO.N,VSS*%
X146000000Y-114500000D03*
%TD*%
D20*
%TO.P,C4,2*%
%TO.N,GND*%
X151000000Y-79500000D03*
D21*
%TO.P,C4,1*%
%TO.N,Net-(C4-Pad1)*%
X146000000Y-79500000D03*
%TD*%
D17*
%TO.P,C2,2*%
%TO.N,Net-(C2-Pad2)*%
X83000000Y-89000000D03*
%TO.P,C2,1*%
%TO.N,Net-(C2-Pad1)*%
X78000000Y-89000000D03*
%TD*%
%TO.P,C1,2*%
%TO.N,Net-(C1-Pad2)*%
X83000000Y-105000000D03*
%TO.P,C1,1*%
%TO.N,Net-(C1-Pad1)*%
X78000000Y-105000000D03*
%TD*%
D22*
%TO.N,Net-(C1-Pad2)*%
X84840000Y-106840000D02*
X83000000Y-105000000D01*
X84840000Y-110000000D02*
X84840000Y-106840000D01*
X90000000Y-105000000D02*
X83000000Y-105000000D01*
%TO.N,Net-(C1-Pad1)*%
X72000000Y-105000000D02*
X78000000Y-105000000D01*
%TO.N,Net-(C2-Pad2)*%
X83000000Y-89000000D02*
X90000000Y-89000000D01*
X84840000Y-87160000D02*
X83000000Y-89000000D01*
X84840000Y-84000000D02*
X84840000Y-87160000D01*
%TO.N,Net-(C2-Pad1)*%
X72000000Y-89000000D02*
X78000000Y-89000000D01*
%TO.N,Net-(C4-Pad1)*%
X141500000Y-75000000D02*
X146000000Y-79500000D01*
X131000000Y-75000000D02*
X141500000Y-75000000D01*
%TO.N,VSS*%
X146000000Y-93000000D02*
X146000000Y-101000000D01*
X137500000Y-114500000D02*
X146000000Y-114500000D01*
%TO.N,Net-(R3-Pad1)*%
X110500000Y-105000000D02*
X113500000Y-102000000D01*
X100160000Y-105000000D02*
X110500000Y-105000000D01*
%TO.N,Net-(R4-Pad1)*%
X130900000Y-95420000D02*
X131000000Y-95320000D01*
X122560000Y-95420000D02*
X130900000Y-95420000D01*
%TO.N,Net-(R7-Pad2)*%
X111350000Y-95420000D02*
X104930000Y-89000000D01*
X104930000Y-89000000D02*
X100160000Y-89000000D01*
%TO.N,Net-(J10-Pad1)*%
X120410000Y-92490000D02*
X124010000Y-92490000D01*
X131500000Y-85000000D02*
X162000000Y-85000000D01*
X124010000Y-92490000D02*
X131500000Y-85000000D01*
%TO.N,VS*%
X162000000Y-93000000D02*
X162000000Y-101000000D01*
%TO.N,Net-(J12-Pad1)*%
X122560000Y-99030000D02*
X132530000Y-109000000D01*
X132530000Y-109000000D02*
X162000000Y-109000000D01*
D23*
%TO.N,Net-(J13-Pad1)*%
X113500000Y-81500000D02*
X109000000Y-77000000D01*
X113500000Y-92490000D02*
X113500000Y-81500000D01*
D22*
%TO.N,Net-(J15-Pad1)*%
X116950000Y-77050000D02*
X117000000Y-77000000D01*
D23*
X116950000Y-91350000D02*
X116950000Y-77050000D01*
D22*
%TO.N,Net-(D1-Pad1)*%
X97540000Y-99700000D02*
X100240000Y-97000000D01*
X97540000Y-117000000D02*
X97540000Y-99700000D01*
X97500000Y-94260000D02*
X100240000Y-97000000D01*
X97500000Y-77000000D02*
X97500000Y-94260000D01*
X100240000Y-97000000D02*
X104500000Y-97000000D01*
X106570000Y-99070000D02*
X111350000Y-99070000D01*
X104500000Y-97000000D02*
X106570000Y-99070000D01*
%TO.N,Net-(R1-Pad1)*%
X95000000Y-117000000D02*
X95000000Y-110000000D01*
%TO.N,Net-(R2-Pad1)*%
X95000000Y-77040000D02*
X94960000Y-77000000D01*
X95000000Y-84000000D02*
X95000000Y-77040000D01*
%TD*%
M02*
